<?xml version="1.0" encoding="UTF-8"?>
<svg id="Calque_1" data-name="Calque 1" xmlns="http://www.w3.org/2000/svg" viewBox="0 0 1920 764.18">
  <defs>
    <style>

    </style>
  </defs>
  <path class="cls-1" d="M1920,293.96c0,.34-20.25-48.9-49.38,4.77-18.31,33.73-15.31,76.43-4.09,109.28,13.79,40.34-2.01,75.86-26.04,69.45-12.27-3.27-34.21-30.13-23.49-70.47,10.48-39.41,11.33-90.7-5.11-129.7-45.94-109-96.36,36.59-99.96,51.69-11.87,49.92-10.83,65.75-4.82,98.72,6.02,32.97,14.17,66.66,7.91,99.58s-32.05,65.11-65.55,65.8c-36.95.77-65.02-37.25-67.94-74.1-2.92-36.84,12.05-72.41,25.03-107.02,12.97-34.61,24.31-72.47,14.14-108-13.39-46.77-67.41-77.61-114.5-65.36s-79.22,65.52-68.1,112.89c6.11,26.03,22.97,48.43,29.9,74.25,6.93,25.82-1.73,60.1-27.77,66.15-23.02,5.35-45.16-15.86-50.65-38.85-5.49-22.99.58-46.91,4.71-70.18,6.95-39.16,8.16-80.55-6.12-117.66-14.28-37.12-46.48-69.1-85.88-74.53-39.4-5.43-82.97,22.09-87.63,61.58-3.36,28.41,12.16,55.41,16.45,83.7,4.28,28.28-12.79,65.21-41.12,61.23-24.48-3.44-34.19-35.05-29.13-59.25,5.06-24.2,19.09-46.33,20.63-71,2.48-39.64-29.7-75.41-67.43-87.8-37.74-12.39-79.17-5.81-117.03,6.19-37.86,12-74.05,29.27-112.63,38.7-86,21.02-176.62,1.54-260.91-25.53-84.29-27.07-167.08-61.95-254.97-72.59C238.91,110.21,99.34,153.59,0,238.3V0h1920v293.96Z"/>
  <ellipse class="cls-1" cx="1754.45" cy="656.69" rx="20.17" ry="29.76"/>
  <ellipse class="cls-1" cx="1575.85" cy="710.44" rx="33.32" ry="53.74"/>
  <ellipse class="cls-1" cx="1283.38" cy="474.98" rx="29.62" ry="48"/>
</svg>
