<?xml version="1.0" encoding="UTF-8" standalone="no"?>
<svg
   id="Calque_1"
   data-name="Calque 1"
   viewBox="0 0 1920 566.53"
   version="1.1"
   sodipodi:docname="goutte3.svg"
   inkscape:version="1.4.2 (ebf0e940d0, 2025-05-08)"
   xmlns:inkscape="http://www.inkscape.org/namespaces/inkscape"
   xmlns:sodipodi="http://sodipodi.sourceforge.net/DTD/sodipodi-0.dtd"
   xmlns="http://www.w3.org/2000/svg"
   xmlns:svg="http://www.w3.org/2000/svg">
  <sodipodi:namedview
     id="namedview3"
     pagecolor="#ffffff"
     bordercolor="#000000"
     borderopacity="0.25"
     inkscape:showpageshadow="2"
     inkscape:pageopacity="0.0"
     inkscape:pagecheckerboard="0"
     inkscape:deskcolor="#d1d1d1"
     inkscape:zoom="5.2502678"
     inkscape:cx="-4.0950292"
     inkscape:cy="36.664796"
     inkscape:window-width="1920"
     inkscape:window-height="1008"
     inkscape:window-x="0"
     inkscape:window-y="0"
     inkscape:window-maximized="1"
     inkscape:current-layer="Calque_1" />
  <defs
     id="defs1">
    <style
       id="style1" />
  </defs>
  <path
     class="cls-1"
     d="m 1920,178.3 c 4e-4,0.34 -20.25,-48.9 -49.38,4.77 -18.31,33.73 -15.31,76.43 -4.09,109.28 13.79,40.34 -2.01,75.86 -26.04,69.45 -12.27,-3.27 -34.21,-30.13 -23.49,-70.47 10.48,-39.41 11.33,-90.7 -5.11,-129.7 -45.94,-109 -96.36,36.59 -99.96,51.69 -11.87,49.92 -10.83,65.75 -4.82,98.72 6.02,32.97 14.17,66.66 7.91,99.58 -6.26,32.92 -32.05,65.11 -65.55,65.8 -36.95,0.77 -65.02,-37.25 -67.94,-74.1 -2.92,-36.84 12.05,-72.41 25.03,-107.02 12.97,-34.61 24.31,-72.47 14.14,-108 -13.39,-46.77 -67.41,-77.61 -114.5,-65.36 -47.09,12.25 -79.22,65.52 -68.1,112.89 6.11,26.03 22.97,48.43 29.9,74.25 6.93,25.82 -1.73,60.1 -27.77,66.15 -23.02,5.35 -45.16,-15.86 -50.65,-38.85 -5.49,-22.99 0.58,-46.91 4.71,-70.18 6.95,-39.16 8.16,-80.55 -6.12,-117.66 -14.28,-37.12 -46.48,-69.1 -85.88,-74.53 -39.4,-5.43 -82.97,22.09 -87.63,61.58 -3.36,28.41 12.16,55.41 16.45,83.7 4.28,28.28 -12.79,65.21 -41.12,61.23 -24.48,-3.44 -34.19,-35.05 -29.13,-59.25 5.06,-24.2 19.09,-46.33 20.63,-71 2.48,-39.64 -29.7,-75.41 -67.43,-87.8 -37.74,-12.39 -79.17,-5.81 -117.03,6.19 -37.86,12 -74.05,29.27 -112.63,38.7 -86,21.02 -176.62,1.54 -260.91,-25.53 C 539.2,55.76 456.41,20.88 368.52,10.24 238.91,-5.45 99.34,37.93 0,122.64 V 0 l 1919.8095,-0.02606415 z"
     id="path1"
     sodipodi:nodetypes="scccccccsccccscscsscscccsccscsccccs" />
  <ellipse
     class="cls-1"
     cx="1799.13"
     cy="420.66"
     rx="20.17"
     ry="29.76"
     id="ellipse1" />
  <ellipse
     class="cls-1"
     cx="1543.3"
     cy="512.79"
     rx="33.32"
     ry="53.74"
     id="ellipse2" />
  <ellipse
     class="cls-1"
     cx="1284.4"
     cy="353.26"
     rx="29.62"
     ry="48"
     id="ellipse3" />
</svg>
