<?xml version="1.0" encoding="UTF-8" standalone="no"?>
<!DOCTYPE svg PUBLIC "-//W3C//DTD SVG 1.1//EN" "http://www.w3.org/Graphics/SVG/1.1/DTD/svg11.dtd">
<svg width="100%" height="100%" viewBox="0 0 4961 3508" version="1.1" xmlns="http://www.w3.org/2000/svg" xmlns:xlink="http://www.w3.org/1999/xlink" xml:space="preserve" xmlns:serif="http://www.serif.com/" style="fill-rule:evenodd;clip-rule:evenodd;stroke-linecap:round;stroke-linejoin:round;stroke-miterlimit:1.5;">
    <g id="Calque1">
        <g id="Prenez-ronron-mask">
            <g id="ronron-n-2-mask" transform="matrix(1,0,0,1,2912.954155,0)">
                <path d="M1225.149,1603.168C1221.298,1603.81 1219.917,1753.795 1237.074,1737.97C1240.215,1735.073 1254.991,1657.894 1254.991,1657.894C1252.621,1629.274 1330.702,1535.181 1316.44,1760.066" style="fill:none;stroke:rgb(255,47,135);stroke-width:33.33px;"/>
            </g>
            <g id="ronron-o-2-mask" transform="matrix(1,0,0,1,441.458753,0)">
                <path d="M3590.11,1608.189C3645.356,1611.519 3671.408,1732.203 3579.746,1734.508C3519.962,1736.011 3531.877,1604.678 3590.11,1608.189Z" style="fill:none;stroke:rgb(255,47,135);stroke-width:33.33px;"/>
            </g>
            <g id="ronron-r-2-mask" transform="matrix(1,0,0,1,2909.4794,6.483676)">
                <path d="M952.308,1588.691C945.031,1607.602 932.171,1747.418 949.736,1741.774C965.059,1736.851 950.902,1654.258 982.898,1632.7C1007.28,1616.27 1008.187,1618.007 1027.093,1624.783" style="fill:none;stroke:rgb(255,47,135);stroke-width:33.33px;"/>
            </g>
            <g id="ronron-n-mask" transform="matrix(1,0,0,1,2473.495822,0)">
                <path d="M1225.149,1603.168C1221.298,1603.81 1219.917,1753.795 1237.074,1737.97C1240.215,1735.073 1254.991,1657.894 1254.991,1657.894C1252.621,1629.274 1330.702,1535.181 1316.44,1760.066" style="fill:none;stroke:rgb(255,47,135);stroke-width:33.33px;"/>
            </g>
            <path id="ronron-o-mask" d="M3590.11,1608.189C3645.356,1611.519 3671.408,1732.203 3579.746,1734.508C3519.962,1736.011 3531.877,1604.678 3590.11,1608.189Z" style="fill:none;stroke:rgb(255,47,135);stroke-width:33.33px;"/>
            <g id="ronron-r-mask" transform="matrix(1,0,0,1,2470.021067,6.483676)">
                <path d="M952.308,1588.691C945.031,1607.602 932.171,1747.418 949.736,1741.774C965.059,1736.851 950.902,1654.258 982.898,1632.7C1007.28,1616.27 1008.187,1618.007 1027.093,1624.783" style="fill:none;stroke:rgb(255,47,135);stroke-width:33.33px;"/>
            </g>
            <g id="instant-t-mask">
                <path d="M3199.907,1505.683C3199.907,1505.683 3128.261,1701.516 3205.366,1741.774" style="fill:none;stroke:rgb(255,47,135);stroke-width:33.33px;"/>
                <path d="M3135.887,1624.783C3169.72,1624.278 3189.921,1620.856 3222.886,1614.493" style="fill:none;stroke:rgb(255,47,135);stroke-width:33.33px;"/>
            </g>
            <g id="instant-n-2-mask" transform="matrix(1,0,0,1,1762.412488,-0.333942)">
                <path d="M1225.149,1603.168C1221.298,1603.81 1219.917,1753.795 1237.074,1737.97C1240.215,1735.073 1254.991,1657.894 1254.991,1657.894C1252.621,1629.274 1330.702,1535.181 1316.44,1760.066" style="fill:none;stroke:rgb(255,47,135);stroke-width:33.33px;"/>
            </g>
            <g id="instant-a-mask">
                <path d="M2918.275,1651.646C2918.555,1650.807 2829.111,1579.175 2808.535,1671.32C2791.297,1748.523 2848.137,1736.385 2853.37,1734.521C2899.369,1718.134 2918.275,1671.32 2918.275,1671.32" style="fill:none;stroke:rgb(255,47,135);stroke-width:33.33px;"/>
                <path d="M2922.369,1608.12C2917.183,1613.971 2913.593,1700.32 2933.141,1741.437" style="fill:none;stroke:rgb(255,47,135);stroke-width:33.33px;"/>
            </g>
            <g id="instant-t-mask1" serif:id="instant-t-mask">
                <g transform="matrix(1,0,0,1,-452.520072,1.054648)">
                    <path d="M3199.907,1505.683C3199.907,1505.683 3128.261,1701.516 3205.366,1741.774" style="fill:none;stroke:rgb(255,47,135);stroke-width:33.33px;"/>
                </g>
                <g transform="matrix(1,0,0,1,-452.520072,1.054648)">
                    <path d="M3135.887,1624.783C3169.72,1624.278 3189.921,1620.856 3222.886,1614.493" style="fill:none;stroke:rgb(255,47,135);stroke-width:33.33px;"/>
                </g>
            </g>
            <g id="instant-s-mask" transform="matrix(1,0,0,1,-3.898391,-1.871306)">
                <path d="M2640.727,1609.801C2621.994,1583.62 2590.282,1595.709 2592.57,1630.326C2593.78,1648.628 2635.723,1676.342 2636.36,1711.116C2629.933,1749.792 2603.509,1750.636 2592.57,1753.937C2580.374,1754.352 2569.201,1750.676 2559.335,1741.774C2549.238,1726.511 2550.817,1708.912 2558.191,1690.154" style="fill:none;stroke:rgb(255,47,135);stroke-width:33.33px;"/>
            </g>
            <g id="instant-n-mask" transform="matrix(1,0,0,1,1172.345822,0)">
                <path d="M1225.149,1603.168C1221.298,1603.81 1219.917,1753.795 1237.074,1737.97C1240.215,1735.073 1254.991,1657.894 1254.991,1657.894C1252.621,1629.274 1330.702,1535.181 1316.44,1760.066" style="fill:none;stroke:rgb(255,47,135);stroke-width:33.33px;"/>
            </g>
            <g id="instant-i-mask">
                <path d="M2344.742,1608.12C2344.742,1608.12 2319.653,1725.859 2340.568,1750.97" style="fill:none;stroke:rgb(255,47,135);stroke-width:33.33px;"/>
                <path d="M2355.66,1544.544C2359.01,1547.023 2350.005,1565.744 2348.745,1565.554" style="fill:none;stroke:rgb(255,47,135);stroke-width:37.5px;"/>
            </g>
            <g id="un-n-mask" transform="matrix(1,0,0,1,786.770822,0)">
                <path d="M1225.149,1603.168C1221.298,1603.81 1219.917,1753.795 1237.074,1737.97C1240.215,1735.073 1254.991,1657.894 1254.991,1657.894C1252.621,1629.274 1330.702,1535.181 1316.44,1760.066" style="fill:none;stroke:rgb(255,47,135);stroke-width:33.33px;"/>
            </g>
            <path id="un-u-mask" d="M1871.165,1605.351C1871.165,1605.351 1832.017,1726.561 1888.481,1728.067C1944.945,1729.572 1947.956,1639.332 1941.933,1586.958C1935.91,1534.584 1956.99,1750.845 1956.99,1750.845" style="fill:none;stroke:rgb(255,47,135);stroke-width:33.33px;"/>
            <g id="prenez-z-mask" transform="matrix(1,0,0,1,0.873406,-0.442885)">
                <path d="M1541.039,1615.576C1564.083,1597.749 1603.675,1592.581 1613.959,1605.788C1601.358,1649.329 1568.469,1682.07 1535.316,1728.519C1577.132,1730.892 1613.561,1730.789 1653.048,1728.504" style="fill:none;stroke:rgb(255,47,135);stroke-width:33.33px;"/>
            </g>
            <g id="prenez-e-2-mask" transform="matrix(1,0,0,1,310.601863,6.141125)">
                <path d="M1068.704,1693.206C1084.825,1693.097 1100.498,1688.675 1113.089,1680.307C1151.685,1654.656 1165.074,1624.791 1147.837,1612.811C1127.032,1605.404 1112.902,1607.853 1102.802,1615.54C1082.697,1630.843 1077.357,1636.889 1070.794,1654.856C1066.711,1666.037 1061.832,1682.858 1065.21,1697.136C1076.847,1720.038 1086.046,1734.637 1121.36,1735.633C1147.186,1732.901 1170.686,1723.569 1181.954,1693.543" style="fill:none;stroke:rgb(255,47,135);stroke-width:33.33px;"/>
            </g>
            <path id="prenez-n-mask" d="M1225.149,1603.168C1221.298,1603.81 1219.917,1753.795 1237.074,1737.97C1240.215,1735.073 1254.991,1657.894 1254.991,1657.894C1252.621,1629.274 1330.702,1535.181 1316.44,1760.066" style="fill:none;stroke:rgb(255,47,135);stroke-width:33.33px;"/>
            <g id="prenez-e-mask" transform="matrix(1,0,0,1,-3.018101,6.141125)">
                <path d="M1068.704,1693.206C1084.825,1693.097 1100.498,1688.675 1113.089,1680.307C1151.685,1654.656 1165.074,1624.791 1147.837,1612.811C1127.032,1605.404 1112.902,1607.853 1102.802,1615.54C1082.697,1630.843 1077.357,1636.889 1070.794,1654.856C1066.711,1666.037 1061.832,1682.858 1065.21,1697.136C1076.847,1720.038 1086.046,1734.637 1121.36,1735.633C1147.186,1732.901 1170.686,1723.569 1181.954,1693.543" style="fill:none;stroke:rgb(255,47,135);stroke-width:33.33px;"/>
            </g>
            <path id="prenez-r-mask" d="M952.308,1588.691C945.031,1607.602 932.171,1747.418 949.736,1741.774C965.059,1736.851 950.902,1654.258 982.898,1632.7C1007.28,1616.27 1008.187,1618.007 1027.093,1624.783" style="fill:none;stroke:rgb(255,47,135);stroke-width:33.33px;"/>
            <g id="prenez-p-mask">
                <path d="M761.836,1668.97C761.836,1668.97 787.848,1696.31 833.675,1685.157C874.349,1675.257 896.975,1618.805 896.222,1588.691C895.632,1565.07 887.562,1522.164 828.84,1505.601C770.117,1489.038 741.004,1546.886 741.004,1546.886C741.004,1546.886 713.653,1588.9 747.532,1632.7" style="fill:none;stroke:rgb(255,47,135);stroke-width:33.33px;"/>
                <path d="M794.209,1601.966C792.12,1655.306 783.724,1710.362 773.068,1769.413" style="fill:none;stroke:rgb(255,47,135);stroke-width:33.33px;"/>
            </g>
        </g>
    </g>
</svg>
