<?xml version="1.0" encoding="UTF-8" standalone="no"?>
<svg
   width="300px"
   height="317px"
   viewBox="0 0 300 317"
   version="1.1"
   id="svg32"
   sodipodi:docname="logoLoading.svg"
   inkscape:version="1.4.2 (ebf0e940d0, 2025-05-08)"
   xmlns:inkscape="http://www.inkscape.org/namespaces/inkscape"
   xmlns:sodipodi="http://sodipodi.sourceforge.net/DTD/sodipodi-0.dtd"
   xmlns="http://www.w3.org/2000/svg"
   xmlns:svg="http://www.w3.org/2000/svg">
  <sodipodi:namedview
     id="namedview32"
     pagecolor="#ffffff"
     bordercolor="#000000"
     borderopacity="0.25"
     inkscape:showpageshadow="2"
     inkscape:pageopacity="0.0"
     inkscape:pagecheckerboard="0"
     inkscape:deskcolor="#d1d1d1"
     inkscape:zoom="3.0903245"
     inkscape:cx="174.25355"
     inkscape:cy="235.08858"
     inkscape:window-width="1920"
     inkscape:window-height="1008"
     inkscape:window-x="0"
     inkscape:window-y="0"
     inkscape:window-maximized="1"
     inkscape:current-layer="g42" />
  <defs
     id="defs11">
    <clipPath
       id="clip1">
      <path
         d="M 37.933594 12.054688 L 262.066406 12.054688 L 262.066406 246.367188 L 37.933594 246.367188 Z M 37.933594 12.054688 "
         id="path1" />
    </clipPath>
    <clipPath
       id="clip2">
      <path
         d="M 178 69 L 262.066406 69 L 262.066406 196 L 178 196 Z M 178 69 "
         id="path2" />
    </clipPath>
    <clipPath
       id="clip3">
      <path
         d="M 129 12.054688 L 220 12.054688 L 220 83 L 129 83 Z M 129 12.054688 "
         id="path3" />
    </clipPath>
    <clipPath
       id="clip4">
      <path
         d="M 37.933594 32 L 119 32 L 119 132 L 37.933594 132 Z M 37.933594 32 "
         id="path4" />
    </clipPath>
    <clipPath
       id="clip5">
      <path
         d="M 131 12.054688 L 218 12.054688 L 218 76 L 131 76 Z M 131 12.054688 "
         id="path5" />
    </clipPath>
    <clipPath
       id="clip6">
      <path
         d="M 128 12.054688 L 223 12.054688 L 223 85 L 128 85 Z M 128 12.054688 "
         id="path6" />
    </clipPath>
    <clipPath
       id="clip7">
      <path
         d="M 146 12.054688 L 226 12.054688 L 226 79 L 146 79 Z M 146 12.054688 "
         id="path7" />
    </clipPath>
    <clipPath
       id="clip8">
      <path
         d="M 15.515625 254 L 44 254 L 44 298 L 15.515625 298 Z M 15.515625 254 "
         id="path8" />
    </clipPath>
    <clipPath
       id="clip9">
      <path
         d="M 72 264 L 90 264 L 90 304.941406 L 72 304.941406 Z M 72 264 "
         id="path9" />
    </clipPath>
    <clipPath
       id="clip10">
      <path
         d="M 138 253.257812 L 176 253.257812 L 176 304.941406 L 138 304.941406 Z M 138 253.257812 "
         id="path10" />
    </clipPath>
    <clipPath
       id="clip11">
      <path
         d="M 263 269 L 284.484375 269 L 284.484375 299 L 263 299 Z M 263 269 "
         id="path11" />
    </clipPath>
    <filter
       inkscape:collect="always"
       style="color-interpolation-filters:sRGB"
       id="filter35"
       x="-0.30301184"
       y="-0.097038002"
       width="1.6060237"
       height="1.194076">
      <feGaussianBlur
         inkscape:collect="always"
         stdDeviation="1.5640586"
         id="feGaussianBlur35" />
    </filter>
    <filter
       inkscape:collect="always"
       style="color-interpolation-filters:sRGB"
       id="filter36"
       x="-0.30301184"
       y="-0.097038002"
       width="1.6060237"
       height="1.194076">
      <feGaussianBlur
         inkscape:collect="always"
         stdDeviation="1.5640585"
         id="feGaussianBlur36" />
    </filter>
    <filter
       inkscape:collect="always"
       style="color-interpolation-filters:sRGB"
       id="filter37"
       x="-0.25745766"
       y="-0.10286682"
       width="1.5149153"
       height="1.2057336">
      <feGaussianBlur
         inkscape:collect="always"
         stdDeviation="1.9292028"
         id="feGaussianBlur37" />
    </filter>
    <filter
       inkscape:collect="always"
       style="color-interpolation-filters:sRGB"
       id="filter38"
       x="-0.25745768"
       y="-0.1028668"
       width="1.5149154"
       height="1.2057336">
      <feGaussianBlur
         inkscape:collect="always"
         stdDeviation="1.9292026"
         id="feGaussianBlur38" />
    </filter>
    <filter
       inkscape:collect="always"
       style="color-interpolation-filters:sRGB"
       id="filter39"
       x="-0.27167944"
       y="-0.10075938"
       width="1.5433589"
       height="1.2015188">
      <feGaussianBlur
         inkscape:collect="always"
         stdDeviation="1.567197"
         id="feGaussianBlur39" />
    </filter>
    <filter
       inkscape:collect="always"
       style="color-interpolation-filters:sRGB"
       id="filter40"
       x="-0.27167927"
       y="-0.1007594"
       width="1.5433585"
       height="1.2015188">
      <feGaussianBlur
         inkscape:collect="always"
         stdDeviation="1.5671958"
         id="feGaussianBlur40" />
    </filter>
  </defs>
  <g
     id="surface1">
    <g
       clip-path="url(#clip1)"
       clip-rule="nonzero"
       id="g12">
      <path
         style=" stroke:none;fill-rule:nonzero;fill:rgb(20%,13.725491%,12.156863%);fill-opacity:1;"
         d="M 68.679688 218.167969 C 68.300781 213.671875 67.738281 209.46875 67.496094 205.242188 C 66.886719 194.546875 67.722656 183.996094 70.214844 173.585938 C 73.300781 160.6875 78.589844 148.804688 86.871094 138.378906 C 91.78125 132.1875 97.960938 127.398438 104.570312 123.140625 C 114.699219 116.609375 125.742188 111.898438 136.722656 107.050781 C 142.921875 104.316406 149.238281 101.78125 154.273438 96.980469 C 156.414062 94.9375 157.617188 92.695312 157.667969 89.601562 C 157.75 84.464844 158.230469 79.328125 158.585938 74.195312 C 158.691406 72.726562 158.40625 72.097656 156.683594 72.457031 C 154.609375 72.878906 152.519531 73.332031 150.367188 73.347656 C 148.765625 73.359375 147.835938 72.585938 147.765625 71.066406 C 147.699219 69.675781 148.441406 68.789062 149.960938 68.601562 C 152.34375 68.308594 154.714844 67.890625 157.097656 67.589844 C 158.332031 67.429688 159.011719 67.066406 159.023438 65.566406 C 159.042969 63.035156 159.328125 60.5 159.597656 57.980469 C 159.746094 56.601562 159.449219 55.800781 157.925781 55.496094 C 156.601562 55.230469 155.320312 54.652344 154.058594 54.125 C 152.683594 53.546875 152.324219 52.40625 152.78125 51.070312 C 153.238281 49.726562 154.339844 49.363281 155.609375 49.679688 C 157.058594 50.046875 158.472656 50.550781 160 51.023438 C 160.722656 42.886719 161.421875 34.902344 162.140625 26.914062 C 162.472656 23.210938 162.9375 19.550781 164.523438 16.121094 C 166.746094 11.296875 170.984375 10.664062 174.367188 14.777344 C 177.949219 19.128906 180.863281 23.933594 183.679688 28.800781 C 184.160156 29.632812 184.796875 30.398438 185.148438 31.273438 C 186.664062 35.050781 189.316406 36.398438 193.429688 36.308594 C 200.699219 36.140625 207.976562 36.769531 215.234375 35.707031 C 217.253906 35.410156 218.722656 34.664062 220.023438 32.992188 C 224.851562 26.765625 230.128906 20.898438 235.355469 14.996094 C 237.714844 12.332031 241.429688 12.949219 242.949219 16.175781 C 244.058594 18.539062 244.195312 21.105469 244.125 23.640625 C 243.855469 32.832031 243.488281 42.015625 243.15625 51.203125 C 243.144531 51.476562 243.117188 51.753906 243.113281 52.023438 C 243.042969 54.4375 243.089844 54.421875 245.246094 53.558594 C 249.632812 51.796875 254.035156 50.089844 258.453125 48.410156 C 259.667969 47.945312 260.90625 47.925781 261.675781 49.261719 C 262.566406 50.808594 261.898438 52.246094 260.070312 52.96875 C 254.914062 55.007812 249.78125 57.105469 244.609375 59.09375 C 243.453125 59.53125 243.003906 60.097656 243.074219 61.34375 C 243.179688 63.121094 243.179688 64.917969 243.074219 66.703125 C 243.003906 67.941406 243.449219 68.375 244.664062 68.496094 C 248.835938 68.914062 252.988281 69.453125 257.152344 69.902344 C 258.464844 70.039062 259.386719 70.535156 259.625 71.914062 C 259.921875 73.671875 258.761719 74.90625 256.820312 74.714844 C 252.855469 74.324219 248.894531 73.863281 244.945312 73.371094 C 243.625 73.203125 243.140625 73.503906 243.203125 74.972656 C 243.75 88.414062 244.472656 101.84375 245.589844 115.246094 C 246.78125 129.605469 248.125 143.953125 249.441406 158.304688 C 250.304688 167.738281 251.207031 177.164062 252.148438 186.589844 C 253.011719 195.261719 253.441406 204.023438 255.003906 212.570312 C 256.476562 220.636719 257.257812 228.71875 257.617188 236.851562 C 257.914062 243.601562 257.859375 243.238281 251.789062 244.300781 C 246.5625 245.222656 241.265625 245.332031 235.984375 245.390625 C 222.375 245.539062 208.769531 245.597656 195.164062 245.722656 C 180.527344 245.859375 165.894531 245.941406 151.257812 246.21875 C 133.871094 246.546875 116.484375 246.261719 99.105469 246.007812 C 90.863281 245.886719 82.632812 245.382812 74.589844 243.382812 C 67.078125 241.515625 61.421875 236.78125 56.40625 231.226562 C 46.320312 220.0625 41.796875 206.5 39.574219 191.925781 C 36.988281 174.976562 37.53125 158.105469 40.664062 141.3125 C 43.589844 125.601562 48.597656 110.554688 55.660156 96.1875 C 59.996094 87.371094 64.828125 78.863281 70.777344 71.035156 C 78.660156 60.65625 88.042969 52.03125 100.4375 47.367188 C 106.621094 45.046875 113.003906 44.511719 119.238281 47.589844 C 126.542969 51.195312 127.320312 59.140625 123.648438 65.125 C 120.023438 71.046875 115.082031 75.8125 109.9375 80.355469 C 95.253906 93.320312 83.027344 108.261719 73.445312 125.34375 C 62.121094 145.523438 56.871094 167.175781 58.144531 190.308594 C 58.550781 197.730469 59.734375 205.042969 63.09375 211.816406 C 64.34375 214.332031 65.785156 216.683594 68.683594 218.191406 Z M 200.957031 215.636719 C 208.835938 215.621094 216.269531 214.9375 223.703125 214.316406 C 227.601562 213.988281 231.492188 213.542969 235.386719 213.214844 C 236.867188 213.085938 237.964844 213.652344 238.144531 215.300781 C 238.335938 217.011719 237.429688 217.851562 235.828125 218.074219 C 235.285156 218.152344 234.734375 218.230469 234.183594 218.21875 C 232.554688 218.191406 231.894531 218.960938 231.425781 220.558594 C 229.28125 227.867188 225.527344 234.226562 219.722656 239.273438 C 219.425781 239.535156 218.933594 239.765625 219.230469 240.242188 C 219.472656 240.640625 219.960938 240.503906 220.363281 240.480469 C 229.617188 239.996094 238.882812 239.675781 248.109375 238.730469 C 253.015625 238.230469 252.785156 237.65625 252.230469 233.488281 C 250.320312 219.136719 248.703125 204.738281 247.230469 190.335938 C 245.453125 172.925781 243.949219 155.484375 242.480469 138.042969 C 240.757812 117.589844 239.21875 97.136719 238.585938 76.617188 C 238.546875 75.449219 238.738281 74.207031 238.382812 73.144531 C 237.890625 71.679688 236.234375 72.355469 235.148438 71.914062 C 233.753906 71.347656 232.945312 70.417969 233.25 68.921875 C 233.539062 67.472656 234.679688 66.828125 236.046875 67.167969 C 237.9375 67.636719 238.421875 67.039062 238.347656 65.175781 C 238.222656 62.003906 238.308594 61.9375 235.332031 62.820312 C 233.699219 63.304688 232.550781 62.890625 232.082031 61.316406 C 231.621094 59.757812 232.40625 58.671875 233.910156 58.121094 C 234.746094 57.820312 235.574219 57.476562 236.433594 57.246094 C 237.769531 56.890625 238.183594 56.113281 238.214844 54.707031 C 238.347656 49.222656 238.613281 43.738281 238.875 38.261719 C 239.136719 32.84375 239.472656 27.4375 239.71875 22.019531 C 239.769531 20.925781 239.71875 19.621094 238.421875 19.277344 C 237.320312 18.984375 236.417969 19.808594 235.863281 20.679688 C 232.914062 25.328125 229.035156 29.28125 225.976562 33.816406 C 222.503906 38.964844 217.820312 41.183594 211.707031 41.222656 C 203.9375 41.273438 196.1875 41.152344 188.421875 40.8125 C 186.273438 40.71875 184.757812 39.859375 183.671875 38.113281 C 182.113281 35.613281 180.566406 33.109375 179.054688 30.582031 C 176.765625 26.757812 174.515625 22.914062 172.230469 19.097656 C 171.699219 18.203125 171.03125 17.226562 169.871094 17.386719 C 168.605469 17.5625 168.566406 18.867188 168.320312 19.820312 C 167.523438 22.882812 167.203125 26.03125 166.878906 29.171875 C 166.136719 36.40625 165.429688 43.648438 164.683594 50.886719 C 164.550781 52.148438 164.855469 52.832031 166.203125 53.304688 C 169.238281 54.371094 172.175781 55.710938 175.160156 56.933594 C 176.703125 57.566406 177.570312 58.597656 176.847656 60.304688 C 176.109375 62.046875 174.742188 62.003906 173.234375 61.378906 C 170.828125 60.378906 168.390625 59.445312 166.015625 58.386719 C 164.753906 57.824219 164.253906 58.089844 164.203125 59.464844 C 164.136719 61.316406 164.007812 63.167969 163.859375 65.011719 C 163.746094 66.339844 164.265625 66.695312 165.550781 66.425781 C 167.566406 66.003906 169.617188 65.769531 171.636719 65.375 C 173.746094 64.960938 175.230469 65.628906 175.566406 67.230469 C 175.867188 68.695312 174.855469 69.746094 172.605469 70.148438 C 170.175781 70.582031 167.738281 70.984375 165.28125 71.289062 C 164.0625 71.4375 163.515625 71.824219 163.457031 73.175781 C 163.21875 78.660156 162.679688 84.132812 162.574219 89.617188 C 162.476562 94.859375 160.074219 98.710938 156.199219 101.925781 C 150.949219 106.28125 144.777344 108.960938 138.597656 111.59375 C 127.675781 116.253906 116.8125 121.011719 106.839844 127.539062 C 99.089844 132.617188 92.15625 138.515625 87.023438 146.40625 C 81.082031 155.546875 77.070312 165.441406 74.675781 176.03125 C 72.359375 186.277344 71.574219 196.640625 72.488281 207.117188 C 72.824219 210.9375 72.921875 214.773438 74.402344 218.421875 C 75.074219 220.074219 74.851562 221.753906 73.378906 223.140625 C 71.902344 224.523438 70.257812 224.230469 68.757812 223.609375 C 65.746094 222.363281 63.144531 220.503906 61.097656 217.894531 C 57.835938 213.738281 56.191406 208.847656 55.039062 203.832031 C 51.953125 190.355469 52.933594 176.785156 54.847656 163.296875 C 56.527344 151.476562 60.488281 140.316406 65.753906 129.582031 C 72.292969 116.253906 80.738281 104.242188 90.386719 93.011719 C 96.933594 85.390625 104.480469 78.832031 111.902344 72.121094 C 115.535156 68.832031 118.742188 65.152344 120.371094 60.402344 C 121.628906 56.71875 120.398438 53.710938 116.949219 51.945312 C 115.667969 51.289062 114.3125 50.792969 112.859375 50.578125 C 107.210938 49.742188 102.09375 51.480469 97.246094 54.039062 C 88.804688 58.480469 81.851562 64.78125 76.003906 72.234375 C 66.878906 83.863281 59.964844 96.789062 54.613281 110.507812 C 49.355469 123.96875 45.824219 137.882812 43.96875 152.253906 C 41.894531 168.359375 42.1875 184.289062 46.203125 200.070312 C 48.679688 209.800781 52.339844 218.996094 58.925781 226.753906 C 63.898438 232.617188 69.785156 237.195312 77.449219 239.03125 C 83.425781 240.464844 89.527344 240.855469 95.632812 241 C 107.171875 241.269531 118.714844 241.421875 130.257812 241.578125 C 132.222656 241.605469 134.21875 241.808594 136.453125 241.378906 C 131.671875 239.207031 127.589844 236.605469 124.289062 232.914062 C 123.628906 232.175781 122.917969 232.128906 122.085938 232.132812 C 119.472656 232.132812 116.859375 232.148438 114.253906 232.132812 C 107.96875 232.089844 101.753906 231.609375 95.957031 228.867188 C 92.355469 227.160156 89.246094 224.804688 87.117188 221.394531 C 82.230469 213.585938 81.757812 205.183594 83.835938 196.417969 C 85.410156 189.785156 88.933594 184.652344 95.019531 181.4375 C 99.890625 178.859375 105.257812 178.375 110.617188 178.257812 C 113.328125 178.199219 115.1875 178.050781 116.613281 175.023438 C 119.386719 169.136719 125.0625 167.40625 131.089844 166.707031 C 144.546875 165.148438 158.074219 164.753906 171.605469 164.625 C 185.550781 164.5 199.5 164.675781 213.4375 165.238281 C 217.65625 165.40625 221.765625 166.101562 225.671875 167.769531 C 229.835938 169.554688 232.617188 172.566406 233.671875 177.035156 C 234.320312 179.785156 234.816406 182.554688 234.761719 185.390625 C 234.738281 186.511719 234.757812 187.21875 236.269531 186.691406 C 237.667969 186.199219 238.859375 186.707031 239.351562 188.265625 C 239.839844 189.832031 239.058594 190.800781 237.683594 191.304688 C 230.925781 193.78125 224.148438 196.203125 217.386719 198.660156 C 212.429688 200.460938 207.472656 202.25 202.535156 204.105469 C 201.953125 204.324219 200.78125 204.234375 201.484375 205.679688 C 202.535156 207.839844 201.660156 209.203125 199.230469 209.5625 C 198.144531 209.722656 197.035156 209.683594 195.945312 209.8125 C 195.121094 209.910156 195.058594 210.574219 195.148438 211.21875 C 195.261719 212.066406 195.875 211.605469 196.257812 211.546875 C 197.066406 211.40625 197.894531 211.253906 198.65625 210.96875 C 199.996094 210.472656 201.28125 210.324219 202.140625 211.671875 C 203.042969 213.09375 202.589844 214.375 200.980469 215.648438 Z M 176.390625 241.164062 C 184.871094 240.898438 192.992188 241.476562 201.078125 240.667969 C 205.25 240.25 209.464844 239.765625 213.210938 237.769531 C 219.757812 234.28125 223.179688 228.183594 225.976562 221.675781 C 227.042969 219.1875 226.882812 219.0625 224.175781 219.21875 C 216.777344 219.660156 209.390625 220.464844 201.96875 220.519531 C 200.097656 220.535156 198.179688 220.460938 196.523438 219.621094 C 193.875 218.285156 191.335938 217.332031 188.582031 219.226562 C 188.535156 219.257812 188.453125 219.25 188.378906 219.257812 C 187.140625 219.46875 186.167969 219.082031 185.746094 217.855469 C 185.320312 216.644531 185.492188 215.507812 186.71875 214.820312 C 187.550781 214.351562 188.417969 213.890625 189.328125 213.621094 C 190.679688 213.21875 190.085938 212.207031 190.136719 211.414062 C 190.199219 210.332031 189.425781 210.472656 188.722656 210.507812 C 188.171875 210.542969 187.621094 210.507812 187.070312 210.539062 C 185.382812 210.613281 184.183594 209.980469 184.136719 208.160156 C 184.09375 206.445312 185.265625 205.6875 186.8125 205.675781 C 189.832031 205.660156 192.3125 204.894531 194.703125 202.707031 C 197.976562 199.710938 202.492188 198.769531 206.582031 197.246094 C 213.765625 194.558594 221.042969 192.109375 228.296875 189.585938 C 229.269531 189.246094 229.6875 188.695312 229.769531 187.648438 C 230.023438 184.316406 229.683594 181.066406 228.738281 177.875 C 227.929688 175.144531 226.273438 173.214844 223.59375 172.101562 C 220.757812 170.929688 217.800781 170.453125 214.785156 170.160156 C 205.398438 169.25 195.972656 169.734375 186.570312 169.464844 C 173.523438 169.085938 160.464844 169.328125 147.429688 170.203125 C 142.019531 170.566406 136.574219 170.527344 131.21875 171.503906 C 127.109375 172.25 123.070312 173.25 120.78125 177.246094 C 119.183594 180.046875 118.703125 183.214844 118.53125 186.359375 C 118.042969 195.433594 118.308594 204.496094 120.128906 213.429688 C 121.675781 221 124.902344 227.660156 131.152344 232.617188 C 136.777344 237.070312 143.394531 238.949219 150.234375 240.207031 C 159.023438 241.824219 167.914062 241.148438 176.390625 241.148438 Z M 119.753906 227.117188 C 118.90625 225.183594 118.082031 223.605469 117.53125 221.933594 C 117.136719 220.734375 116.4375 220.347656 115.304688 220.273438 C 112.636719 220.085938 109.957031 219.96875 107.308594 219.605469 C 102.460938 218.933594 98.136719 217.261719 95.53125 212.71875 C 91.871094 206.359375 92.402344 196.671875 101.035156 193.078125 C 104.496094 191.632812 108.066406 191.335938 111.703125 191.359375 C 113.136719 191.363281 113.640625 190.972656 113.570312 189.507812 C 113.488281 187.875 113.503906 186.199219 113.761719 184.585938 C 113.992188 183.144531 113.410156 182.996094 112.234375 182.976562 C 108.84375 182.929688 105.542969 183.535156 102.226562 184.085938 C 97.261719 184.910156 93.378906 187.472656 90.941406 191.832031 C 87.054688 198.769531 86.515625 206.148438 88.878906 213.703125 C 90.617188 219.269531 94.171875 223.191406 99.75 225.199219 C 106.175781 227.519531 112.828125 227.25 119.75 227.121094 Z M 111.96875 215.195312 C 112.734375 215.257812 113.367188 215.230469 113.960938 215.367188 C 115.40625 215.707031 115.492188 215.195312 115.25 213.890625 C 114.257812 208.570312 113.542969 203.214844 113.554688 197.789062 C 113.554688 196.871094 113.472656 196.214844 112.273438 196.195312 C 109.445312 196.136719 106.625 196.214844 103.953125 197.167969 C 101.734375 197.960938 99.632812 199.152344 98.808594 201.546875 C 97.398438 205.632812 98.53125 212.019531 104.480469 213.917969 C 106.988281 214.714844 109.515625 215.128906 111.96875 215.195312 Z M 111.96875 215.195312 "
         id="path12" />
    </g>
    <path
       style=" stroke:none;fill-rule:nonzero;fill:rgb(93.333334%,85.09804%,74.509805%);fill-opacity:1;"
       d="M 201.035156 215.511719 C 202.640625 214.238281 203.097656 212.957031 202.195312 211.535156 C 201.335938 210.1875 200.050781 210.339844 198.710938 210.832031 C 197.949219 211.109375 197.121094 211.269531 196.3125 211.410156 C 195.933594 211.472656 195.324219 211.9375 195.203125 211.082031 C 195.113281 210.4375 195.175781 209.773438 196 209.675781 C 197.089844 209.546875 198.199219 209.585938 199.285156 209.425781 C 201.714844 209.070312 202.589844 207.703125 201.539062 205.542969 C 200.835938 204.097656 202.011719 204.183594 202.589844 203.96875 C 207.527344 202.113281 212.484375 200.324219 217.441406 198.523438 C 224.207031 196.066406 230.980469 193.644531 237.738281 191.167969 C 239.105469 190.664062 239.894531 189.695312 239.40625 188.128906 C 238.921875 186.574219 237.726562 186.0625 236.324219 186.550781 C 234.804688 187.082031 234.789062 186.382812 234.816406 185.253906 C 234.871094 182.417969 234.375 179.648438 233.726562 176.898438 C 232.671875 172.429688 229.890625 169.417969 225.726562 167.632812 C 221.824219 165.964844 217.710938 165.269531 213.492188 165.097656 C 199.554688 164.539062 185.601562 164.363281 171.660156 164.488281 C 158.128906 164.609375 144.605469 165.003906 131.144531 166.570312 C 125.117188 167.269531 119.441406 168.996094 116.667969 174.882812 C 115.242188 177.914062 113.382812 178.0625 110.671875 178.121094 C 105.3125 178.238281 99.941406 178.722656 95.074219 181.300781 C 88.988281 184.515625 85.472656 189.648438 83.894531 196.28125 C 81.8125 205.046875 82.292969 213.453125 87.171875 221.257812 C 89.300781 224.667969 92.414062 227.023438 96.015625 228.730469 C 101.8125 231.472656 108.023438 231.957031 114.308594 231.996094 C 116.921875 232.015625 119.535156 231.996094 122.140625 231.996094 C 122.972656 231.996094 123.683594 232.042969 124.34375 232.777344 C 127.644531 236.46875 131.722656 239.074219 136.507812 241.242188 C 134.273438 241.671875 132.277344 241.46875 130.3125 241.441406 C 118.769531 241.285156 107.226562 241.136719 95.6875 240.863281 C 89.582031 240.71875 83.476562 240.328125 77.503906 238.898438 C 69.839844 237.058594 63.960938 232.480469 58.980469 226.617188 C 52.394531 218.851562 48.734375 209.664062 46.261719 199.933594 C 42.242188 184.152344 41.953125 168.214844 44.027344 152.113281 C 45.878906 137.742188 49.414062 123.824219 54.667969 110.371094 C 60.027344 96.65625 66.941406 83.726562 76.058594 72.09375 C 81.90625 64.640625 88.863281 58.339844 97.300781 53.898438 C 102.144531 51.347656 107.265625 49.601562 112.914062 50.4375 C 114.367188 50.652344 115.722656 51.148438 117.003906 51.804688 C 120.453125 53.570312 121.683594 56.578125 120.425781 60.261719 C 118.796875 65.015625 115.589844 68.691406 111.957031 71.980469 C 104.542969 78.691406 96.988281 85.25 90.441406 92.871094 C 80.796875 104.105469 72.351562 116.121094 65.808594 129.445312 C 60.542969 140.171875 56.582031 151.339844 54.902344 163.160156 C 52.988281 176.644531 52.007812 190.21875 55.097656 203.695312 C 56.246094 208.703125 57.886719 213.59375 61.152344 217.757812 C 63.199219 220.363281 65.804688 222.230469 68.8125 223.472656 C 70.316406 224.09375 71.960938 224.386719 73.433594 223.003906 C 74.910156 221.617188 75.128906 219.9375 74.457031 218.285156 C 72.976562 214.636719 72.878906 210.804688 72.542969 206.980469 C 71.625 196.496094 72.417969 186.140625 74.730469 175.890625 C 77.121094 165.308594 81.136719 155.414062 87.078125 146.265625 C 92.207031 138.375 99.144531 132.472656 106.898438 127.402344 C 116.867188 120.871094 127.730469 116.113281 138.652344 111.457031 C 144.832031 108.816406 151.003906 106.140625 156.253906 101.785156 C 160.128906 98.570312 162.527344 94.726562 162.628906 89.480469 C 162.734375 83.996094 163.273438 78.519531 163.511719 73.035156 C 163.570312 71.683594 164.117188 71.296875 165.335938 71.148438 C 167.785156 70.84375 170.230469 70.441406 172.660156 70.007812 C 174.910156 69.605469 175.921875 68.554688 175.621094 67.089844 C 175.289062 65.480469 173.804688 64.820312 171.691406 65.234375 C 169.671875 65.625 167.621094 65.863281 165.605469 66.285156 C 164.320312 66.554688 163.804688 66.203125 163.914062 64.871094 C 164.0625 63.027344 164.195312 61.175781 164.257812 59.324219 C 164.308594 57.949219 164.808594 57.683594 166.070312 58.246094 C 168.445312 59.308594 170.882812 60.238281 173.289062 61.238281 C 174.796875 61.863281 176.164062 61.910156 176.902344 60.164062 C 177.617188 58.460938 176.757812 57.433594 175.214844 56.792969 C 172.230469 55.570312 169.292969 54.234375 166.257812 53.164062 C 164.910156 52.691406 164.605469 52.007812 164.738281 50.746094 C 165.484375 43.511719 166.191406 36.269531 166.933594 29.03125 C 167.257812 25.890625 167.578125 22.742188 168.375 19.679688 C 168.621094 18.726562 168.660156 17.421875 169.925781 17.246094 C 171.085938 17.085938 171.753906 18.0625 172.285156 18.957031 C 174.574219 22.78125 176.820312 26.625 179.109375 30.4375 C 180.621094 32.964844 182.167969 35.472656 183.726562 37.972656 C 184.816406 39.71875 186.332031 40.578125 188.480469 40.671875 C 196.234375 41.011719 203.992188 41.132812 211.761719 41.082031 C 217.875 41.042969 222.558594 38.824219 226.03125 33.675781 C 229.089844 29.140625 232.96875 25.1875 235.917969 20.539062 C 236.464844 19.667969 237.375 18.84375 238.472656 19.132812 C 239.773438 19.480469 239.824219 20.785156 239.773438 21.875 C 239.527344 27.292969 239.191406 32.703125 238.929688 38.121094 C 238.667969 43.597656 238.402344 49.085938 238.269531 54.570312 C 238.238281 55.96875 237.824219 56.75 236.488281 57.105469 C 235.628906 57.339844 234.804688 57.679688 233.964844 57.980469 C 232.457031 58.53125 231.675781 59.617188 232.136719 61.175781 C 232.605469 62.757812 233.757812 63.164062 235.386719 62.679688 C 238.363281 61.796875 238.277344 61.863281 238.402344 65.035156 C 238.480469 66.898438 237.992188 67.496094 236.101562 67.03125 C 234.734375 66.6875 233.59375 67.332031 233.304688 68.78125 C 233 70.277344 233.808594 71.214844 235.199219 71.777344 C 236.285156 72.214844 237.945312 71.539062 238.4375 73.003906 C 238.792969 74.066406 238.601562 75.316406 238.640625 76.480469 C 239.277344 96.996094 240.816406 117.453125 242.535156 137.902344 C 244.003906 155.347656 245.5 172.785156 247.28125 190.199219 C 248.757812 204.601562 250.375 218.996094 252.285156 233.351562 C 252.839844 237.519531 253.078125 238.09375 248.164062 238.59375 C 238.9375 239.535156 229.671875 239.855469 220.417969 240.34375 C 220.019531 240.367188 219.527344 240.503906 219.285156 240.109375 C 218.992188 239.625 219.480469 239.398438 219.777344 239.140625 C 225.582031 234.089844 229.335938 227.730469 231.480469 220.421875 C 231.949219 218.824219 232.609375 218.050781 234.238281 218.082031 C 234.78125 218.09375 235.339844 218.015625 235.882812 217.9375 C 237.484375 217.707031 238.390625 216.871094 238.199219 215.164062 C 238.019531 213.515625 236.921875 212.949219 235.441406 213.078125 C 231.542969 213.414062 227.652344 213.851562 223.757812 214.179688 C 216.324219 214.800781 208.890625 215.484375 201.011719 215.5 Z M 161.125 133.273438 C 160.953125 138.480469 163.539062 142.574219 166.433594 146.570312 C 168.335938 149.203125 177.007812 151.929688 176.902344 155.359375 C 176.851562 157.070312 170.492188 158.253906 172.320312 158.265625 C 174.238281 158.277344 174.636719 157 174.675781 155.359375 C 174.773438 150.859375 166.4375 149.796875 163.914062 146.265625 C 161.550781 142.964844 157.535156 137.65625 158.042969 133.273438 C 158.835938 126.390625 169.484375 114.328125 175.621094 111.457031 C 177.179688 110.722656 179.515625 116.59375 178.9375 114.742188 C 178.480469 113.289062 177.089844 112.898438 175.136719 113.574219 C 167.691406 116.152344 161.167969 125.320312 161.125 133.265625 Z M 153.28125 135.507812 C 153.574219 139.664062 153.371094 141.050781 156.253906 144.445312 C 158.054688 146.566406 157.507812 155.160156 157.355469 158.265625 C 153.867188 162.039062 154.53125 157.214844 156.34375 157.140625 C 158.164062 157.070312 149.660156 153.644531 149.691406 152.113281 C 149.773438 148.546875 157.328125 147.671875 154.933594 145.175781 C 148.617188 138.601562 150.753906 127.40625 157.355469 123.074219 C 158.71875 122.175781 150.59375 125.925781 149.691406 124.582031 C 148.777344 123.226562 155.859375 118.289062 154.601562 119.03125 C 154.136719 119.3125 158.460938 124.234375 158.042969 124.582031 C 153.234375 128.597656 154.972656 123.300781 154.601562 129.445312 Z M 188.296875 139.566406 C 188.117188 143.074219 189.402344 142.40625 191.28125 145.175781 C 192.941406 147.621094 192.207031 151.046875 192.480469 154.164062 C 192.648438 156.167969 188.117188 157.582031 189.761719 156.507812 C 190.652344 155.929688 190.730469 155.082031 190.691406 154.164062 C 190.53125 150.417969 188.757812 147.3125 186.613281 144.445312 C 183.792969 140.667969 183.398438 136.761719 185.195312 132.453125 C 186.527344 129.253906 188.539062 126.664062 191.28125 124.582031 C 193.121094 123.183594 193.480469 121.917969 192.480469 120.652344 C 191.460938 119.367188 195.824219 126.027344 194.027344 127.402344 C 188.425781 131.679688 188.714844 130.613281 188.296875 137.667969 Z M 208.804688 56.394531 C 208.050781 56.363281 207.296875 56.308594 206.542969 56.296875 C 202.839844 56.242188 201.558594 58.226562 203.203125 61.601562 C 203.917969 63.070312 204.792969 64.484375 205.726562 65.824219 C 206.96875 67.597656 208.589844 67.945312 210.601562 67.117188 C 212.941406 66.160156 214.375 64.210938 215.839844 62.328125 C 217.46875 60.222656 216.796875 58.085938 214.277344 57.101562 C 212.515625 56.40625 210.644531 56.484375 208.804688 56.394531 Z M 189.289062 57.117188 C 191.019531 57.101562 191.875 56.144531 191.9375 54.722656 C 192.003906 53.308594 191.042969 52.398438 189.644531 52.34375 C 188.132812 52.285156 187.167969 53.121094 187.179688 54.710938 C 187.1875 56.144531 188.015625 56.929688 189.292969 57.125 Z M 226.847656 51.332031 C 225.40625 51.523438 224.515625 52.292969 224.582031 53.863281 C 224.648438 55.324219 225.582031 56.121094 226.949219 56.136719 C 228.34375 56.152344 229.214844 55.300781 229.242188 53.835938 C 229.269531 52.285156 228.445312 51.460938 226.847656 51.332031 Z M 226.847656 51.332031 "
       id="path13" />
    <path
       style=" stroke:none;fill-rule:nonzero;fill:rgb(94.117647%,55.686277%,49.803922%);fill-opacity:1;"
       d="M 176.398438 241.179688 C 167.921875 241.179688 159.027344 241.855469 150.242188 240.238281 C 143.402344 238.976562 136.777344 237.105469 131.160156 232.648438 C 124.910156 227.691406 121.683594 221.03125 120.136719 213.460938 C 118.316406 204.527344 118.050781 195.46875 118.539062 186.390625 C 118.710938 183.242188 119.1875 180.074219 120.789062 177.277344 C 123.078125 173.273438 127.113281 172.285156 131.226562 171.535156 C 136.582031 170.554688 142.027344 170.59375 147.4375 170.234375 C 160.46875 169.359375 173.53125 169.117188 186.578125 169.496094 C 195.980469 169.773438 205.40625 169.28125 214.789062 170.191406 C 217.804688 170.484375 220.765625 170.957031 223.597656 172.136719 C 226.277344 173.246094 227.933594 175.175781 228.742188 177.90625 C 229.691406 181.097656 230.03125 184.347656 229.777344 187.679688 C 229.699219 188.726562 229.28125 189.28125 228.304688 189.617188 C 221.050781 192.140625 213.777344 194.589844 206.585938 197.277344 C 202.5 198.808594 197.980469 199.75 194.707031 202.738281 C 192.320312 204.925781 189.839844 205.691406 186.820312 205.707031 C 185.273438 205.71875 184.105469 206.472656 184.144531 208.191406 C 184.1875 210.011719 185.386719 210.640625 187.078125 210.570312 C 187.628906 210.546875 188.179688 210.570312 188.726562 210.542969 C 189.433594 210.503906 190.207031 210.363281 190.140625 211.445312 C 190.09375 212.238281 190.691406 213.25 189.332031 213.652344 C 188.425781 213.921875 187.554688 214.382812 186.726562 214.851562 C 185.5 215.542969 185.328125 216.675781 185.75 217.886719 C 186.179688 219.113281 187.148438 219.5 188.386719 219.289062 C 188.453125 219.28125 188.535156 219.289062 188.589844 219.257812 C 191.339844 217.363281 193.882812 218.3125 196.53125 219.652344 C 198.179688 220.492188 200.101562 220.566406 201.976562 220.550781 C 209.398438 220.496094 216.78125 219.691406 224.183594 219.253906 C 226.894531 219.09375 227.050781 219.21875 225.980469 221.707031 C 223.191406 228.210938 219.765625 234.3125 213.21875 237.804688 C 209.46875 239.800781 205.257812 240.285156 201.085938 240.699219 C 192.996094 241.507812 184.875 240.929688 176.398438 241.195312 Z M 174.457031 173.847656 C 165.390625 173.847656 156.320312 173.824219 147.261719 173.859375 C 142.5 173.875 137.785156 174.511719 133.226562 175.78125 C 130.308594 176.589844 127.492188 178.015625 127.039062 181.605469 C 126.578125 185.273438 128.695312 187.519531 131.574219 189.222656 C 133.550781 190.386719 135.75 190.925781 138.015625 191.21875 C 146.144531 192.265625 154.328125 192.027344 162.484375 192.34375 C 177.722656 192.925781 192.976562 192.867188 208.195312 191.601562 C 212.445312 191.246094 216.640625 190.554688 220.613281 188.886719 C 224.269531 187.34375 226.082031 184.386719 225.710938 180.632812 C 225.449219 177.925781 222.851562 175.453125 219.324219 174.777344 C 217.449219 174.414062 215.523438 174.171875 213.613281 174.121094 C 200.566406 173.777344 187.519531 173.351562 174.460938 173.851562 Z M 174.457031 173.847656 "
       id="path14" />
    <path
       style=" stroke:none;fill-rule:nonzero;fill:rgb(93.333334%,55.29412%,49.411765%);fill-opacity:1;"
       d="M 119.761719 227.132812 C 112.839844 227.257812 106.1875 227.523438 99.761719 225.210938 C 94.183594 223.199219 90.628906 219.28125 88.890625 213.714844 C 86.53125 206.160156 87.070312 198.78125 90.953125 191.84375 C 93.390625 187.480469 97.277344 184.921875 102.238281 184.09375 C 105.550781 183.542969 108.855469 182.9375 112.246094 182.988281 C 113.421875 183.003906 114.007812 183.152344 113.777344 184.597656 C 113.515625 186.210938 113.5 187.882812 113.582031 189.519531 C 113.65625 190.976562 113.144531 191.375 111.71875 191.367188 C 108.082031 191.351562 104.511719 191.648438 101.050781 193.085938 C 92.417969 196.675781 91.890625 206.367188 95.542969 212.726562 C 98.15625 217.269531 102.480469 218.949219 107.320312 219.617188 C 109.96875 219.980469 112.648438 220.09375 115.316406 220.28125 C 116.449219 220.359375 117.148438 220.75 117.542969 221.945312 C 118.09375 223.617188 118.921875 225.195312 119.765625 227.125 Z M 119.761719 227.132812 "
       id="path15" />
    <path
       style=" stroke:none;fill-rule:nonzero;fill:rgb(93.333334%,85.09804%,74.509805%);fill-opacity:1;"
       d="M 111.976562 215.210938 C 109.523438 215.140625 106.992188 214.730469 104.488281 213.933594 C 98.539062 212.035156 97.40625 205.640625 98.816406 201.5625 C 99.640625 199.164062 101.742188 197.976562 103.960938 197.183594 C 106.632812 196.230469 109.449219 196.152344 112.28125 196.207031 C 113.480469 196.230469 113.566406 196.886719 113.5625 197.804688 C 113.550781 203.234375 114.265625 208.59375 115.257812 213.90625 C 115.496094 215.21875 115.414062 215.722656 113.96875 215.382812 C 113.375 215.246094 112.742188 215.273438 111.976562 215.210938 Z M 111.976562 215.210938 "
       id="path16" />
    <path
       id="steam2-1"
       style="fill:#a1a1a1;fill-opacity:1;fill-rule:nonzero;stroke:none;filter:url(#filter37)"
       d="m 161.04687,133.41406 c 0.043,-7.95312 6.57032,-17.12109 14.01563,-19.6914 1.95703,-0.67578 3.34766,-0.29297 3.80078,1.16797 0.57813,1.84765 -0.48437,2.69531 -2.04297,3.42968 -6.13672,2.87891 -10.05078,7.51953 -10.84375,14.40235 -0.5039,4.3789 1.9336,7.72265 4.29297,11.03125 2.52344,3.52734 4.42969,7.25 4.32813,11.75 -0.0352,1.64062 -0.4336,2.91796 -2.35547,2.90625 -1.82032,-0.008 -2.51172,-1.12891 -2.46094,-2.83985 0.10156,-3.42969 -1.51953,-6.22265 -3.42578,-8.85547 -2.89063,-3.99609 -5.47656,-8.08593 -5.3086,-13.29687 z"
       sodipodi:nodetypes="sccccccccccs" />
    <path
       id="steam1-1"
       style="fill:#a1a1a1;fill-opacity:1;fill-rule:nonzero;stroke:none;filter:url(#filter35)"
       d="m 146.125,135.65234 c 0.37109,-6.13672 2.28125,-11.48437 7.08984,-15.5 0.41797,-0.35156 0.85157,-0.69921 1.32032,-0.97265 1.2539,-0.75 2.52343,-0.91016 3.4375,0.44922 0.90234,1.34375 0.67578,2.69531 -0.6875,3.58984 -6.60157,4.33594 -8.73829,15.53125 -2.42188,22.10547 2.39453,2.49219 3.71875,5.5664 3.63672,9.13281 -0.0312,1.53125 -0.40625,2.75781 -2.22656,2.83203 -1.8125,0.0703 -2.69532,-0.87109 -2.60938,-2.64844 0.15235,-3.11328 -1.6875,-5.33203 -3.48828,-7.44531 -2.88672,-3.39062 -3.76172,-7.3789 -4.05078,-11.53515 z"
       sodipodi:nodetypes="cccccccccccc" />
    <path
       id="steam3-1"
       style="stroke:none;fill-rule:nonzero;fill:#a1a1a1;fill-opacity:1;filter:url(#filter40)"
       d="M 179.128906 137.808594 C 179.546875 130.753906 182.621094 125.097656 188.222656 120.820312 C 190.027344 119.445312 191.386719 119.503906 192.402344 120.792969 C 193.40625 122.058594 193.046875 123.324219 191.203125 124.722656 C 188.464844 126.804688 186.449219 129.394531 185.117188 132.59375 C 183.324219 136.902344 183.714844 140.808594 186.539062 144.585938 C 188.683594 147.460938 190.460938 150.566406 190.613281 154.304688 C 190.652344 155.222656 190.578125 156.070312 189.683594 156.648438 C 188.039062 157.71875 186 156.972656 185.828125 154.96875 C 185.566406 151.851562 183.96875 149.429688 182.308594 146.984375 C 180.429688 144.214844 178.941406 141.316406 179.121094 137.808594 Z M 179.128906 137.808594 " />
    <path
       style=" stroke:none;fill-rule:nonzero;fill:rgb(20%,13.725491%,12.156863%);fill-opacity:1;"
       d="M 208.734375 56.539062 C 210.574219 56.625 212.445312 56.546875 214.207031 57.242188 C 216.722656 58.226562 217.398438 60.371094 215.769531 62.46875 C 214.304688 64.351562 212.871094 66.300781 210.53125 67.257812 C 208.523438 68.085938 206.902344 67.738281 205.65625 65.964844 C 204.714844 64.621094 203.847656 63.210938 203.132812 61.742188 C 201.488281 58.367188 202.769531 56.382812 206.472656 56.4375 C 207.226562 56.449219 207.980469 56.503906 208.734375 56.539062 Z M 208.734375 56.539062 "
       id="path17" />
    <path
       style=" stroke:none;fill-rule:nonzero;fill:rgb(20%,13.725491%,12.156863%);fill-opacity:1;"
       d="M 189.21875 57.257812 C 187.945312 57.066406 187.117188 56.277344 187.105469 54.847656 C 187.09375 53.257812 188.054688 52.417969 189.570312 52.480469 C 190.96875 52.535156 191.933594 53.441406 191.863281 54.859375 C 191.796875 56.285156 190.945312 57.238281 189.210938 57.253906 Z M 189.21875 57.257812 "
       id="path18" />
    <path
       style=" stroke:none;fill-rule:nonzero;fill:rgb(20%,13.725491%,12.156863%);fill-opacity:1;"
       d="M 226.777344 51.472656 C 228.375 51.605469 229.199219 52.425781 229.171875 53.976562 C 229.144531 55.441406 228.277344 56.289062 226.878906 56.277344 C 225.519531 56.261719 224.578125 55.464844 224.511719 54.003906 C 224.441406 52.4375 225.335938 51.664062 226.777344 51.472656 Z M 226.777344 51.472656 "
       id="path19" />
    <path
       style=" stroke:none;fill-rule:nonzero;fill:rgb(48.235294%,36.862746%,34.117648%);fill-opacity:1;"
       d="M 174.457031 173.847656 C 187.511719 173.351562 200.558594 173.769531 213.609375 174.117188 C 215.515625 174.167969 217.441406 174.414062 219.320312 174.773438 C 222.847656 175.453125 225.441406 177.921875 225.707031 180.625 C 226.074219 184.378906 224.265625 187.335938 220.605469 188.878906 C 216.640625 190.546875 212.445312 191.242188 208.1875 191.59375 C 192.96875 192.859375 177.71875 192.921875 162.480469 192.335938 C 154.320312 192.023438 146.132812 192.261719 138.011719 191.214844 C 135.746094 190.921875 133.542969 190.382812 131.570312 189.214844 C 128.691406 187.515625 126.578125 185.265625 127.035156 181.601562 C 127.484375 178.011719 130.304688 176.582031 133.21875 175.773438 C 137.78125 174.507812 142.496094 173.871094 147.253906 173.851562 C 156.320312 173.820312 165.390625 173.839844 174.449219 173.839844 Z M 174.457031 173.847656 "
       id="path20" />
    <g
       clip-path="url(#clip2)"
       clip-rule="nonzero"
       id="g21">
      <path
         style="fill:none;stroke-width:2;stroke-linecap:round;stroke-linejoin:miter;stroke:rgb(20%,13.725491%,12.156863%);stroke-opacity:1;stroke-miterlimit:4;"
         d="M 66.948086 31.500296 C 66.437188 31.500296 65.222813 31.776912 64.450234 32.478657 C 63.756953 33.106713 63.677656 34.113417 63.303828 35.350256 C 62.590156 37.7083 63.299297 40.51528 63.744492 41.52085 C 64.095664 42.313289 64.842188 42.852918 65.40293 43.437894 C 66.08375 44.146441 66.664883 45.048847 67.295859 45.357206 C 68.156797 45.776666 68.066172 43.142005 68.442266 41.880225 C 68.936172 40.219391 68.164727 39.30905 67.65043 38.51321 C 67.14293 37.726439 66.714727 37.017892 66.527813 36.061071 C 66.261602 34.699527 66.294453 33.746106 66.084883 33.556782 C 64.233867 31.884612 65.870781 39.392942 66.129063 40.444992 C 66.49043 41.917636 66.944688 44.05348 67.040977 45.472841 C 67.045508 45.535193 66.902773 45.060183 66.855195 43.111396 C 66.807617 41.162608 66.807617 37.645948 66.876719 36.089412 C 66.94582 34.532877 67.085156 35.040763 67.156523 36.275335 C 67.482773 41.907433 66.948086 43.318858 66.762305 43.767794 C 66.690938 43.938979 66.530078 43.100059 66.412266 41.057177 C 66.294453 39.01316 66.201563 35.451153 66.223086 33.823196 C 66.245742 32.196372 66.383945 32.613565 66.570859 33.683754 C 67.055703 36.454456 67.227891 38.738811 67.227891 38.862382 C 67.227891 42.062746 67.368359 34.823097 67.485039 34.00345 C 67.613047 33.097644 67.648164 32.250789 67.625508 31.829062 C 67.579063 30.986741 67.323047 33.877612 67.205234 34.7222 C 67.086289 35.562254 66.902773 36.496402 66.412266 37.128993 C 65.899102 37.791059 65.361016 38.459927 64.730039 39.626479 C 64.555586 39.95071 64.426445 40.279476 64.285977 40.330491 C 63.496406 40.617311 63.722969 37.497437 63.977852 36.406841 C 64.40832 34.568021 65.451641 40.834976 65.452773 42.564965 C 65.452773 43.093257 65.268125 42.906201 65.150313 42.648856 C 64.939609 42.068415 64.751563 41.549192 64.588438 41.176213 C 64.518203 40.989156 64.471758 40.803233 64.283711 40.612776 "
         transform="matrix(3.448276,0,0,3.445652,0,0)"
         id="path21" />
    </g>
    <g
       clip-path="url(#clip3)"
       clip-rule="nonzero"
       id="g22">
      <path
         style="fill:none;stroke-width:2;stroke-linecap:round;stroke-linejoin:miter;stroke:rgb(20%,13.725491%,12.156863%);stroke-opacity:1;stroke-miterlimit:4;"
         d="M 51.276758 8.271293 C 50.965234 8.403933 50.337656 8.941295 49.842617 9.503598 C 49.348711 10.063634 49.213906 10.916157 48.898984 11.634907 C 48.824219 11.806092 48.852539 11.993149 48.942031 12.12919 C 49.132344 12.421678 49.747461 12.446619 50.352383 12.379732 C 50.609531 12.35139 50.735273 12.179071 50.848555 12.021491 C 51.461406 11.168967 51.231445 9.843701 51.255234 9.529673 C 51.282422 9.165763 50.382969 9.257591 49.778047 9.392498 C 49.34418 9.487727 49.123281 9.885647 48.898984 10.177001 C 48.678086 10.462687 48.717734 11.139491 48.851406 11.857108 C 48.906914 12.156398 49.251289 12.219884 49.477852 12.221017 C 50.288945 12.225552 50.95957 11.505668 51.41043 10.832265 C 51.633594 10.500099 51.681172 9.713328 51.592813 8.859671 C 51.562227 8.571717 51.325469 8.629535 51.168008 8.719095 C 50.517773 9.086406 50.380703 9.97294 50.312734 10.916157 C 50.282148 11.32428 50.155273 11.681388 50.154141 12.016956 C 50.154141 12.181339 50.331992 12.30831 50.510977 12.400138 C 50.890469 12.591729 51.365117 12.491966 51.768398 12.290172 C 51.958711 12.194943 52.082188 12.045298 52.173945 11.887717 C 52.26457 11.730136 52.30875 11.552149 52.331406 11.215448 C 52.355195 10.87988 52.355195 10.391266 52.355195 9.88678 "
         transform="matrix(3.448276,0,0,3.445652,0,0)"
         id="path22" />
    </g>
    <g
       clip-path="url(#clip4)"
       clip-rule="nonzero"
       id="g23">
      <path
         style="fill:none;stroke-width:2;stroke-linecap:round;stroke-linejoin:miter;stroke:rgb(20%,13.725491%,12.156863%);stroke-opacity:1;stroke-miterlimit:4;"
         d="M 22.723086 21.201991 C 22.633594 21.513752 22.365117 22.230235 22.028672 22.927445 C 21.694492 23.62012 21.108828 24.250444 20.724805 24.815014 C 20.387227 25.311563 21.419219 23.58611 21.421484 22.394618 C 21.422617 22.210962 21.155273 22.322062 20.974023 22.45697 C 20.23543 23.007936 20.07457 23.846855 20.006602 24.677839 C 19.974883 25.063289 19.894453 25.820584 20.072305 26.651567 C 20.136875 26.954259 20.605859 26.81595 20.899258 26.702583 C 21.433945 26.498521 21.823633 26.142547 22.114766 25.783172 C 23.02668 24.663101 22.584883 21.836849 22.99043 20.889097 C 23.261172 21.646392 23.08332 22.903638 22.746875 23.623521 C 22.678906 23.803776 22.633594 23.981763 22.318672 24.299192 "
         transform="matrix(3.448276,0,0,3.445652,0,0)"
         id="path23" />
    </g>
    <g
       clip-path="url(#clip5)"
       clip-rule="nonzero"
       id="g24">
      <path
         style="fill:none;stroke-width:2;stroke-linecap:round;stroke-linejoin:miter;stroke:rgb(20%,13.725491%,12.156863%);stroke-opacity:1;stroke-miterlimit:4;"
         d="M 49.391758 10.560183 C 49.391758 10.248423 49.302266 9.53194 49.323789 8.83473 C 49.883398 8.360854 50.689961 8.181733 51.386641 8.091039 C 51.545234 8.135252 51.678906 8.267892 51.815977 8.809789 "
         transform="matrix(3.448276,0,0,3.445652,0,0)"
         id="path24" />
    </g>
    <g
       clip-path="url(#clip6)"
       clip-rule="nonzero"
       id="g25">
      <path
         style="fill:none;stroke-width:2;stroke-linecap:round;stroke-linejoin:miter;stroke:rgb(20%,13.725491%,12.156863%);stroke-opacity:1;stroke-miterlimit:4;"
         d="M 53.162891 12.311711 C 52.940859 12.579259 52.044805 13.028194 50.497383 13.075808 C 49.6625 12.717567 49.213906 12.357058 48.900117 12.133724 C 48.76418 11.998817 48.674688 11.821964 48.449258 11.503401 "
         transform="matrix(3.448276,0,0,3.445652,0,0)"
         id="path25" />
    </g>
    <g
       clip-path="url(#clip7)"
       clip-rule="nonzero"
       id="g26">
      <path
         style="fill:none;stroke-width:2;stroke-linecap:round;stroke-linejoin:miter;stroke:rgb(20%,13.725491%,12.156863%);stroke-opacity:1;stroke-miterlimit:4;"
         d="M 53.970586 11.503401 L 53.702109 11.099813 "
         transform="matrix(3.448276,0,0,3.445652,0,0)"
         id="path26" />
    </g>
    <path
       style="fill:none;stroke-width:2;stroke-linecap:round;stroke-linejoin:miter;stroke:rgb(20%,13.725491%,12.156863%);stroke-opacity:1;stroke-miterlimit:4;"
       d="M 30.400156 37.22989 C 30.311797 37.542784 29.864336 38.17084 29.212969 38.598235 C 28.570664 39.019963 28.067695 39.606073 27.751641 40.325956 C 27.678008 40.496007 27.706328 40.684198 27.773164 40.841778 C 28.0575 41.517449 28.781367 41.941443 29.454258 42.213525 C 29.627578 42.282679 29.813359 42.303086 29.838281 42.392646 C 29.863203 42.482206 29.729531 42.614846 29.482578 42.684 C 29.236758 42.752021 28.881055 42.752021 28.676016 42.640921 C 27.563594 42.040073 28.468711 39.880422 28.691875 39.567528 C 29.161992 38.907729 30.437539 38.84651 31.139883 38.623176 C 31.187461 38.607305 30.898594 38.576696 30.74 38.488269 C 30.580273 38.399842 30.491914 38.221855 30.445469 38.040467 C 30.400156 37.860213 30.400156 37.682226 30.511172 37.546185 C 30.766055 37.235558 31.340391 37.22989 31.833164 37.274103 C 32.063125 37.295643 32.237578 37.407877 32.350859 37.542784 C 32.833438 38.113022 32.378047 39.067577 32.107305 39.786327 C 31.800313 40.603707 30.986953 41.044706 30.26875 41.404081 C 30.0875 41.494775 29.909648 41.583202 29.662695 41.629683 C 29.415742 41.67503 29.104219 41.67503 28.944492 41.452829 C 28.543477 40.896195 28.917305 40.106023 29.229961 39.679761 C 29.883594 38.792094 30.979023 38.533616 31.744805 38.196914 C 32.088047 38.045002 32.464141 37.949773 32.732617 37.925966 C 32.844766 37.915763 32.824375 38.21392 32.757539 38.416847 C 32.441484 39.381605 30.898594 39.786327 30.223438 40.304416 C 30.054648 40.432522 29.821289 40.506211 29.728398 40.463131 C 29.636641 40.420051 29.68082 40.242064 29.792969 40.08335 C 30.342383 39.305649 31.47293 38.447457 32.261367 37.770653 C 32.854961 37.260499 33.406641 37.006556 33.67625 36.961209 C 33.775938 36.944203 33.768008 37.181142 33.701172 37.36253 C 33.360195 38.284207 32.333867 38.978017 31.705156 39.62988 C 31.00168 40.356565 30.26875 40.864452 29.907383 41.537855 C 29.819023 41.702238 29.860938 41.896096 30.038789 41.987924 C 30.520234 42.235065 31.117227 41.990191 31.452539 41.788397 C 32.136758 41.37914 32.687305 40.645653 33.115508 39.926903 C 33.549375 39.196816 34.613086 38.26947 35.359609 37.367064 C 35.865977 36.75488 35.831992 36.109819 35.810469 35.795791 C 35.787813 35.464757 35.161367 35.479495 34.713906 35.523709 C 33.807656 35.613269 33.142695 36.284405 32.535508 36.846707 C 32.186602 37.168671 31.705156 37.676558 31.367578 38.08128 C 30.865742 38.682127 32.910469 37.367064 33.629805 36.828569 C 33.811055 36.692528 33.988906 36.559888 33.991172 36.57916 C 34.089727 37.316049 32.56043 37.898758 31.749336 38.665122 C 30.934844 39.434888 29.952695 40.414383 29.593594 41.133133 C 29.233359 41.853017 28.964883 42.391512 28.918438 42.682867 C 28.876523 42.951548 29.766914 42.886928 30.529297 42.842715 C 31.415156 42.790566 31.967969 41.947112 32.709961 41.363269 C 33.596953 40.663791 34.169023 40.06181 34.820391 39.477967 C 35.572578 38.802297 36.055156 37.863614 36.661211 36.762815 C 37.066758 36.02706 37.312578 35.258429 37.67168 34.427445 C 37.760039 34.223383 37.851797 34.04653 37.80875 33.932029 C 37.765703 33.818661 37.587852 33.774448 37.429258 33.817528 C 36.726914 34.01252 35.928281 34.935331 35.005039 35.612135 C 34.802266 35.747043 34.624414 35.880816 34.443164 36.015724 C 34.263047 36.151765 34.085195 36.284405 33.768008 36.421579 "
       transform="matrix(3.448276,0,0,3.445652,0,0)"
       id="path27" />
    <g
       id="g41">
      <path
         style="stroke:none;fill-rule:nonzero;fill:rgb(20%, 13%, 12%);fill-opacity:1"
         d="M 42.28125 285.808594 C 42.867188 285.808594 43.296875 286.042969 43.574219 286.496094 C 43.851562 286.953125 43.984375 287.542969 43.984375 288.273438 C 43.984375 289.050781 43.816406 289.90625 43.476562 290.839844 C 43.132812 291.773438 42.648438 292.628906 42.015625 293.394531 C 41.375 294.125 40.691406 294.726562 39.941406 295.203125 C 39.1875 295.679688 38.394531 296.101562 37.53125 296.46875 C 36.21875 297.058594 34.816406 297.46875 33.324219 297.703125 C 31.832031 297.9375 30.363281 297.957031 28.90625 297.769531 C 26.773438 297.535156 24.882812 296.890625 23.238281 295.824219 C 21.582031 294.757812 20.144531 293.359375 18.929688 291.628906 C 17.75 290.039062 16.921875 288.261719 16.410156 286.308594 C 15.914062 284.355469 15.617188 282.398438 15.527344 280.445312 C 15.441406 278.078125 15.769531 275.582031 16.511719 272.9375 C 17.261719 270.292969 18.34375 267.808594 19.769531 265.464844 C 21.195312 263.121094 22.917969 261.054688 24.929688 259.253906 C 26.9375 257.457031 29.191406 256.191406 31.679688 255.46875 C 33.035156 255.058594 34.261719 254.859375 35.34375 254.859375 C 36.617188 254.859375 37.730469 255.101562 38.703125 255.578125 C 39.675781 256.058594 40.46875 256.679688 41.078125 257.457031 C 41.6875 258.234375 42.148438 259.121094 42.46875 260.121094 C 42.789062 261.121094 42.945312 262.164062 42.945312 263.265625 C 42.945312 264.585938 42.714844 265.898438 42.261719 267.183594 C 41.808594 268.472656 41.121094 269.628906 40.226562 270.628906 C 39.320312 271.628906 38.183594 272.414062 36.835938 272.980469 C 35.476562 273.546875 33.898438 273.769531 32.085938 273.625 C 31.546875 273.582031 31.070312 273.394531 30.660156 273.082031 C 30.253906 272.761719 29.945312 272.382812 29.746094 271.949219 C 29.535156 271.515625 29.46875 271.070312 29.535156 270.617188 C 29.601562 270.160156 29.867188 269.792969 30.320312 269.527344 C 30.992188 269.160156 31.679688 268.996094 32.351562 269.015625 C 33.035156 269.039062 33.6875 268.917969 34.316406 268.640625 C 35.398438 268.140625 36.183594 267.453125 36.660156 266.597656 C 37.136719 265.742188 37.378906 264.863281 37.378906 263.996094 C 37.378906 263.085938 37.167969 262.320312 36.738281 261.710938 C 36.304688 261.085938 35.753906 260.832031 35.078125 260.921875 C 32.960938 261.15625 31.136719 261.808594 29.601562 262.898438 C 28.066406 263.988281 26.785156 265.351562 25.746094 266.996094 C 24.707031 268.640625 23.945312 270.4375 23.449219 272.394531 C 22.953125 274.347656 22.707031 276.300781 22.707031 278.257812 C 22.707031 279.945312 22.886719 281.542969 23.25 283.066406 C 23.613281 284.585938 24.144531 285.929688 24.839844 287.097656 C 25.535156 288.261719 26.417969 289.195312 27.480469 289.894531 C 28.539062 290.605469 29.765625 290.949219 31.160156 290.949219 C 32.195312 290.949219 33.324219 290.726562 34.539062 290.273438 C 35.753906 289.816406 37.070312 289.085938 38.460938 288.085938 L 38.738281 287.886719 C 40.140625 286.519531 41.320312 285.832031 42.269531 285.832031 Z M 42.28125 285.808594 "
         id="cafe1" />
      <path
         style="stroke:none;fill-rule:nonzero;fill:rgb(20%, 13%, 12%);fill-opacity:1"
         d="M 69.910156 274.691406 C 69.457031 277.101562 69.222656 279.355469 69.222656 281.445312 C 69.222656 283.222656 69.402344 284.941406 69.730469 286.597656 C 70.074219 288.261719 70.582031 290.019531 71.257812 291.882812 C 71.621094 292.925781 71.476562 293.804688 70.816406 294.515625 C 70.152344 295.226562 69.058594 295.613281 67.523438 295.714844 C 66.617188 295.757812 65.910156 295.480469 65.414062 294.894531 C 64.917969 294.304688 64.550781 293.558594 64.332031 292.671875 C 64.097656 291.785156 63.945312 290.851562 63.855469 289.875 C 63.765625 288.894531 63.691406 288.042969 63.644531 287.308594 C 63.414062 287.996094 62.984375 288.773438 62.351562 289.664062 C 61.710938 290.550781 60.960938 291.394531 60.078125 292.183594 C 59.195312 292.984375 58.234375 293.648438 57.195312 294.191406 C 56.15625 294.738281 55.128906 294.992188 54.136719 294.949219 C 53.007812 294.902344 51.902344 294.660156 50.84375 294.226562 C 49.78125 293.792969 48.867188 293.082031 48.09375 292.070312 C 47.320312 291.074219 46.789062 289.949219 46.492188 288.695312 C 46.191406 287.441406 46.09375 286.1875 46.183594 284.910156 C 46.359375 282.5 47.019531 280.234375 48.148438 278.113281 C 49.273438 276.003906 50.699219 274.347656 52.421875 273.171875 C 53.691406 272.347656 55.050781 271.9375 56.5 271.9375 C 57.679688 271.9375 58.785156 272.238281 59.824219 272.828125 C 60.863281 273.414062 61.769531 274.304688 62.542969 275.492188 C 62.628906 275.125 62.707031 274.78125 62.785156 274.46875 C 62.851562 274.148438 62.949219 273.847656 63.09375 273.582031 C 63.457031 272.394531 64 271.515625 64.726562 270.917969 C 65.457031 270.316406 66.339844 270.183594 67.378906 270.503906 C 68.152344 270.738281 68.761719 271.261719 69.214844 272.070312 C 69.664062 272.894531 69.898438 273.757812 69.898438 274.667969 Z M 62.375 280.300781 C 62.417969 279.746094 62.253906 279.34375 61.867188 279.101562 C 61.480469 278.84375 60.972656 278.722656 60.34375 278.722656 C 59.65625 278.722656 58.929688 278.867188 58.132812 279.132812 C 57.339844 279.410156 56.597656 279.800781 55.890625 280.300781 C 55.183594 280.8125 54.597656 281.390625 54.125 282.054688 C 53.648438 282.722656 53.40625 283.464844 53.40625 284.289062 C 53.40625 284.609375 53.4375 284.941406 53.503906 285.285156 C 53.570312 285.632812 53.714844 285.988281 53.945312 286.351562 C 54.125 286.675781 54.410156 286.953125 54.796875 287.1875 C 55.183594 287.417969 55.648438 287.53125 56.191406 287.53125 C 56.640625 287.53125 57.140625 287.417969 57.679688 287.1875 C 58.222656 286.953125 58.761719 286.5625 59.316406 286.019531 C 59.867188 285.476562 60.386719 284.730469 60.917969 283.820312 C 61.4375 282.898438 61.921875 281.734375 62.375 280.3125 Z M 62.375 280.300781 "
         id="cafe2" />
      <path
         style="stroke:none;fill-rule:nonzero;fill:rgb(20%, 13%, 12%);fill-opacity:1"
         d="M 83.484375 285.332031 C 83.574219 286.375 83.660156 287.5625 83.761719 288.886719 C 83.851562 290.207031 83.894531 291.59375 83.894531 293.050781 C 83.894531 294.238281 83.828125 295.402344 83.683594 296.570312 C 83.539062 297.734375 83.296875 298.835938 82.933594 299.878906 C 82.566406 300.921875 82.050781 301.867188 81.386719 302.710938 C 80.722656 303.554688 79.882812 304.222656 78.878906 304.722656 C 78.515625 304.953125 77.972656 305.011719 77.265625 304.886719 C 76.558594 304.765625 75.863281 304.542969 75.1875 304.199219 C 74.503906 303.855469 73.953125 303.398438 73.519531 302.832031 C 73.089844 302.265625 72.992188 301.589844 73.210938 300.824219 C 73.445312 300.179688 73.730469 299.589844 74.097656 299.046875 C 74.097656 299.003906 74.140625 298.933594 74.226562 298.835938 C 75.179688 297.703125 75.828125 296.480469 76.160156 295.183594 C 76.492188 293.882812 76.667969 292.527344 76.667969 291.117188 C 76.667969 290.117188 76.613281 289.097656 76.503906 288.042969 C 76.394531 286.996094 76.28125 285.953125 76.195312 284.898438 C 75.378906 284.808594 74.671875 284.609375 74.050781 284.320312 C 73.433594 284.03125 73.070312 283.441406 72.9375 282.578125 C 72.847656 282.03125 72.878906 281.609375 73.035156 281.3125 C 73.199219 281.011719 73.410156 280.789062 73.6875 280.621094 C 73.964844 280.457031 74.285156 280.332031 74.671875 280.246094 C 75.058594 280.15625 75.453125 280.054688 75.863281 279.96875 C 75.773438 279.054688 75.753906 278.078125 75.796875 277.035156 C 75.839844 275.992188 75.960938 274.925781 76.171875 273.859375 C 76.382812 272.792969 76.679688 271.738281 77.066406 270.714844 C 77.453125 269.695312 77.949219 268.75 78.546875 267.882812 C 79.554688 266.5625 80.746094 265.5625 82.136719 264.886719 C 83.53125 264.199219 85.085938 264.042969 86.800781 264.410156 C 87.339844 264.496094 87.75 264.808594 88.023438 265.332031 C 88.300781 265.851562 88.433594 266.40625 88.433594 267.007812 C 88.433594 267.640625 88.28125 268.230469 87.992188 268.75 C 87.695312 269.273438 87.253906 269.496094 86.667969 269.394531 C 85.671875 269.261719 84.910156 269.582031 84.390625 270.351562 C 83.871094 271.128906 83.496094 272.070312 83.265625 273.183594 C 83.03125 274.304688 82.910156 275.4375 82.886719 276.589844 C 82.867188 277.746094 82.855469 278.667969 82.855469 279.355469 C 83.628906 279.269531 84.390625 279.210938 85.132812 279.191406 C 85.871094 279.167969 86.632812 279.199219 87.40625 279.289062 C 88.035156 279.421875 88.535156 279.757812 88.863281 280.277344 C 89.207031 280.800781 89.371094 281.378906 89.371094 282.023438 C 89.371094 282.664062 89.195312 283.242188 88.863281 283.765625 C 88.523438 284.289062 88.015625 284.664062 87.339844 284.898438 C 86.699219 285.132812 86.058594 285.242188 85.40625 285.242188 C 84.753906 285.242188 84.105469 285.265625 83.472656 285.308594 Z M 83.484375 285.332031 "
         id="cafe3" />
      <path
         style=" stroke:none;fill-rule:nonzero;fill:rgb(20%,13.725491%,12.156863%);fill-opacity:1;"
         d="M 110.226562 284.519531 C 110.859375 284.433594 111.476562 284.464844 112.0625 284.621094 C 112.648438 284.785156 112.96875 285.199219 113.011719 285.886719 C 113.011719 286.839844 112.78125 287.761719 112.328125 288.652344 C 111.875 289.539062 111.308594 290.363281 110.625 291.105469 C 109.953125 291.859375 109.199219 292.515625 108.382812 293.082031 C 107.566406 293.648438 106.78125 294.070312 106.007812 294.347656 C 104.515625 294.9375 103.070312 295.238281 101.667969 295.238281 C 100.132812 295.238281 98.730469 294.902344 97.457031 294.25 C 96.1875 293.59375 95.09375 292.714844 94.167969 291.617188 C 93.238281 290.527344 92.519531 289.273438 92.023438 287.863281 C 91.527344 286.453125 91.273438 284.976562 91.273438 283.421875 C 91.273438 281.734375 91.613281 280.035156 92.289062 278.300781 C 92.828125 276.980469 93.59375 275.792969 94.5625 274.714844 C 95.535156 273.636719 96.609375 272.726562 97.789062 271.949219 C 98.5625 271.449219 99.402344 271.050781 100.332031 270.75 C 101.257812 270.449219 102.195312 270.304688 103.148438 270.304688 C 103.777344 270.304688 104.40625 270.371094 105.015625 270.515625 C 105.621094 270.660156 106.207031 270.90625 106.75 271.273438 C 107.742188 271.90625 108.460938 272.605469 108.890625 273.347656 C 109.320312 274.105469 109.53125 274.882812 109.53125 275.703125 C 109.53125 276.480469 109.367188 277.257812 109.023438 278.058594 C 108.679688 278.855469 108.261719 279.613281 107.765625 280.34375 C 107.265625 281.078125 106.691406 281.765625 106.03125 282.433594 C 105.367188 283.089844 104.75 283.65625 104.164062 284.109375 C 103.390625 284.699219 102.640625 285.230469 101.886719 285.707031 C 101.136719 286.1875 100.320312 286.609375 99.414062 286.972656 C 100.1875 287.753906 100.90625 288.285156 101.589844 288.585938 C 102.273438 288.886719 102.925781 289.027344 103.554688 289.027344 C 104.417969 289.027344 105.191406 288.816406 105.898438 288.386719 C 106.605469 287.953125 107.222656 287.464844 107.765625 286.917969 C 108.304688 286.375 108.78125 285.863281 109.1875 285.386719 C 109.597656 284.910156 109.941406 284.621094 110.207031 284.53125 Z M 104.460938 276.601562 C 103.6875 276.558594 102.9375 276.734375 102.1875 277.113281 C 101.433594 277.5 100.773438 278.011719 100.1875 278.644531 C 99.601562 279.277344 99.105469 280.023438 98.730469 280.867188 C 98.34375 281.710938 98.152344 282.566406 98.152344 283.433594 L 98.152344 283.5 L 98.21875 283.433594 C 98.761719 283.019531 99.371094 282.566406 100.019531 282.066406 C 100.683594 281.566406 101.300781 281.035156 101.886719 280.457031 C 102.472656 279.878906 103.015625 279.277344 103.488281 278.644531 C 103.964844 278.011719 104.296875 277.324219 104.472656 276.589844 Z M 104.460938 276.601562 "
         id="cafe4-1"
         inkscape:label="cafe4-1" />
      <path
         style="stroke:none;fill-rule:nonzero;fill:rgb(20%, 13%, 12%);fill-opacity:1"
         d="M 98.210938 267.816406 C 97.898438 267.773438 97.601562 267.742188 97.292969 267.671875 C 97.171875 267.652344 97.0625 267.585938 96.960938 267.527344 C 96.652344 267.339844 96.574219 267.105469 96.71875 266.761719 C 96.839844 266.472656 97.050781 266.253906 97.316406 266.085938 C 97.613281 265.898438 97.910156 265.730469 98.21875 265.574219 C 99.113281 265.140625 99.910156 264.597656 100.628906 263.910156 C 102.328125 262.265625 103.390625 260.332031 103.910156 258.023438 C 103.988281 257.691406 104.242188 256.824219 104.515625 256.179688 C 104.949219 255.203125 105.941406 254.582031 106.980469 254.378906 C 107.554688 254.269531 108.847656 254.4375 109.433594 254.902344 C 109.675781 255.101562 109.851562 255.28125 110.007812 255.769531 C 110.117188 256.113281 110.039062 256.5 109.960938 256.855469 C 109.507812 259 108.546875 260.898438 107.179688 262.597656 C 105.777344 264.34375 104.03125 265.640625 102.066406 266.675781 C 101.402344 267.019531 100.726562 267.375 100 267.5625 C 99.414062 267.707031 98.828125 267.796875 98.21875 267.828125 Z M 98.210938 267.816406 "
         id="cafe4-2" />
    </g>
    <g
       id="g42">
      <path
         id="ronron1"
         style="stroke:none;fill-rule:nonzero;fill:rgb(20%, 13%, 12%);fill-opacity:1"
         d="M 173.355469 297.347656 C 174.128906 297.625 174.671875 298.015625 174.980469 298.546875 C 175.300781 299.070312 175.457031 299.644531 175.457031 300.289062 C 175.457031 301.199219 175.148438 302.101562 174.539062 302.988281 C 173.933594 303.878906 173.125 304.433594 172.132812 304.664062 C 170.949219 304.988281 169.746094 304.964844 168.496094 304.597656 C 167.25 304.234375 166.109375 303.644531 165.074219 302.820312 C 164.078125 302.042969 163.238281 301.132812 162.566406 300.089844 C 161.878906 299.046875 161.316406 297.914062 160.863281 296.714844 C 160.410156 295.503906 160.046875 294.261719 159.769531 292.960938 C 159.496094 291.660156 159.273438 290.382812 159.097656 289.105469 L 158.820312 286.441406 C 158.148438 286.628906 157.460938 286.765625 156.789062 286.851562 C 156.113281 286.941406 155.429688 287.042969 154.753906 287.128906 L 153.804688 287.128906 L 153.398438 291.90625 L 153.054688 295.183594 C 152.964844 296.003906 152.824219 296.835938 152.644531 297.667969 C 152.457031 298.511719 152.039062 299.222656 151.351562 299.824219 C 150.578125 300.511719 149.761719 300.84375 148.910156 300.84375 C 147.730469 300.84375 146.757812 300.277344 145.996094 299.136719 C 145.675781 298.722656 145.464844 298.203125 145.355469 297.558594 C 145.246094 296.925781 145.1875 296.214844 145.1875 295.4375 C 145.1875 294.527344 145.257812 293.550781 145.386719 292.503906 C 145.519531 291.460938 145.6875 290.429688 145.863281 289.429688 C 146.050781 288.429688 146.238281 287.484375 146.4375 286.597656 C 146.648438 285.707031 146.792969 284.941406 146.878906 284.308594 L 146.878906 284.164062 C 146.148438 283.441406 145.675781 282.554688 145.453125 281.5 C 145.367188 280.722656 145.398438 280.023438 145.554688 279.378906 C 145.707031 278.746094 146.105469 278.167969 146.746094 277.667969 C 147.199219 277.347656 147.585938 277.167969 147.90625 277.125 C 148.039062 276.167969 148.207031 275.214844 148.382812 274.257812 C 148.558594 273.304688 148.789062 272.371094 149.054688 271.460938 C 149.242188 270.828125 149.53125 270.371094 149.9375 270.09375 C 150.347656 269.816406 150.800781 269.683594 151.296875 269.683594 C 151.9375 269.683594 152.535156 269.90625 153.097656 270.339844 C 153.660156 270.773438 153.992188 271.371094 154.082031 272.148438 C 154.3125 274.292969 154.378906 276.445312 154.292969 278.632812 L 154.359375 278.632812 C 157.253906 278.632812 159.515625 277.722656 161.152344 275.902344 C 162.785156 274.082031 163.480469 271.671875 163.261719 268.671875 C 163.074219 266.53125 162.433594 264.863281 161.328125 263.652344 C 160.222656 262.441406 158.875 261.597656 157.285156 261.097656 C 156.335938 260.820312 155.363281 260.6875 154.367188 260.6875 C 153.242188 260.6875 152.117188 260.867188 151.011719 261.199219 C 149.894531 261.542969 148.910156 262.042969 148.0625 262.699219 C 147.199219 263.363281 146.503906 264.175781 145.984375 265.152344 C 145.464844 266.128906 145.199219 267.242188 145.199219 268.460938 C 145.199219 269.460938 145.355469 270.4375 145.675781 271.394531 C 145.71875 271.484375 145.753906 271.527344 145.773438 271.527344 C 145.796875 271.527344 145.808594 271.570312 145.808594 271.660156 C 145.898438 271.75 145.960938 271.847656 146.007812 271.9375 C 146.050781 272.027344 146.117188 272.125 146.21875 272.214844 C 146.535156 272.714844 146.636719 273.214844 146.527344 273.714844 C 146.414062 274.214844 146.171875 274.660156 145.808594 275.046875 C 145.445312 275.4375 145.011719 275.679688 144.515625 275.804688 C 144.019531 275.914062 143.542969 275.792969 143.089844 275.425781 C 141.730469 274.382812 140.671875 273.136719 139.898438 271.703125 C 139.125 270.273438 138.761719 268.695312 138.804688 266.960938 C 138.894531 265.230469 139.324219 263.609375 140.097656 262.078125 C 140.871094 260.542969 141.910156 259.210938 143.222656 258.066406 C 144.40625 257.011719 145.675781 256.136719 147.054688 255.445312 C 148.4375 254.757812 149.851562 254.226562 151.296875 253.859375 C 152.789062 253.449219 154.257812 253.238281 155.714844 253.238281 C 157.894531 253.238281 159.945312 253.703125 161.890625 254.613281 C 163.425781 255.347656 164.785156 256.28125 165.96875 257.402344 C 167.148438 258.523438 168.144531 259.777344 168.949219 261.144531 C 169.757812 262.507812 170.375 263.976562 170.785156 265.519531 C 171.191406 267.0625 171.390625 268.617188 171.390625 270.160156 C 171.390625 272.761719 170.828125 275.234375 169.691406 277.601562 C 168.550781 279.96875 166.773438 281.945312 164.320312 283.542969 C 164.6875 284 165.019531 284.699219 165.304688 285.632812 C 165.601562 286.5625 165.902344 287.5625 166.222656 288.628906 C 166.542969 289.695312 166.90625 290.796875 167.304688 291.90625 C 167.710938 293.015625 168.1875 294.015625 168.730469 294.871094 C 169.269531 295.738281 169.921875 296.402344 170.660156 296.878906 C 171.402344 297.359375 172.308594 297.503906 173.347656 297.324219 Z M 173.355469 297.347656 " />
      <path
         id="ronron2"
         style=" stroke:none;fill-rule:nonzero;fill:rgb(20%,13.725491%,12.156863%);fill-opacity:1;"
         d="M 184.015625 269.574219 C 185.1875 269.660156 186.292969 270.003906 187.308594 270.59375 C 188.324219 271.183594 189.242188 271.925781 190.058594 272.816406 C 190.875 273.703125 191.539062 274.714844 192.058594 275.847656 C 192.578125 276.992188 192.953125 278.125 193.175781 279.257812 C 193.363281 280.121094 193.449219 281.054688 193.449219 282.054688 C 193.449219 283.964844 193.097656 285.785156 192.402344 287.519531 C 191.695312 289.25 190.644531 290.773438 189.242188 292.09375 C 187.210938 293.960938 184.988281 294.980469 182.59375 295.171875 C 181.367188 295.304688 180.195312 295.148438 179.058594 294.691406 C 177.929688 294.238281 176.902344 293.605469 176.007812 292.78125 C 174.417969 291.328125 173.300781 289.453125 172.652344 287.152344 C 171.988281 284.855469 171.800781 282.644531 172.078125 280.5 C 172.253906 278.722656 172.671875 277.136719 173.335938 275.726562 C 173.988281 274.316406 174.839844 273.113281 175.875 272.136719 C 176.914062 271.160156 178.128906 270.4375 179.511719 269.984375 C 180.890625 269.527344 182.394531 269.394531 184.027344 269.574219 Z M 182.25 276.324219 C 181.707031 276.324219 181.167969 276.480469 180.648438 276.769531 C 180.128906 277.070312 179.6875 277.511719 179.324219 278.101562 C 178.957031 278.691406 178.691406 279.421875 178.539062 280.289062 C 178.382812 281.15625 178.394531 282.132812 178.570312 283.222656 C 178.804688 284.5 179.089844 285.453125 179.457031 286.085938 C 179.820312 286.71875 180.25 287.152344 180.746094 287.386719 C 181.566406 287.753906 182.394531 287.53125 183.222656 286.707031 C 184.050781 285.886719 184.722656 284.820312 185.222656 283.5 C 185.453125 282.855469 185.5625 282.109375 185.5625 281.246094 C 185.5625 279.921875 185.230469 278.789062 184.582031 277.835938 C 183.929688 276.878906 183.144531 276.378906 182.238281 276.335938 Z M 182.25 276.324219 " />
      <path
         id="ronron3"
         style=" stroke:none;fill-rule:nonzero;fill:rgb(20%,13.725491%,12.156863%);fill-opacity:1;"
         d="M 216.539062 291.339844 C 216.8125 292.117188 216.945312 292.816406 216.945312 293.460938 C 216.945312 294.871094 216.515625 296.058594 215.664062 297.015625 C 214.8125 297.96875 213.917969 298.445312 212.96875 298.445312 C 212.296875 298.445312 211.6875 298.148438 211.148438 297.558594 C 210.605469 296.925781 210.285156 296.371094 210.175781 295.914062 C 210.0625 295.460938 209.941406 294.828125 209.800781 294.003906 C 209.535156 292.140625 209.378906 290.171875 209.355469 288.109375 C 209.335938 286.03125 209.300781 284.066406 209.257812 282.199219 C 209.167969 280.601562 209.027344 279.554688 208.847656 279.054688 C 208.660156 278.558594 208.394531 278.421875 208.03125 278.644531 C 207.390625 279.101562 206.859375 279.976562 206.429688 281.277344 C 206 282.578125 205.632812 284.007812 205.347656 285.574219 C 205.050781 287.140625 204.816406 288.695312 204.628906 290.21875 C 204.441406 291.75 204.265625 292.9375 204.089844 293.804688 C 203.957031 294.261719 203.710938 294.660156 203.371094 295.003906 C 203.027344 295.347656 202.652344 295.605469 202.253906 295.792969 C 201.757812 296.027344 201.304688 296.113281 200.894531 296.070312 C 200.488281 296.027344 200.035156 295.882812 199.539062 295.660156 C 198.996094 295.382812 198.542969 295.015625 198.179688 294.539062 C 197.8125 294.058594 197.503906 293.527344 197.261719 292.925781 C 197.019531 292.328125 196.820312 291.71875 196.6875 291.082031 C 196.554688 290.441406 196.433594 289.851562 196.34375 289.308594 C 196.113281 288.261719 195.945312 287.1875 195.835938 286.097656 C 195.726562 285 195.671875 283.933594 195.671875 282.886719 C 195.625 280.699219 195.703125 278.625 195.914062 276.648438 C 196.125 274.667969 196.511719 272.625 197.105469 270.539062 C 197.238281 270.128906 197.546875 269.792969 198.023438 269.550781 C 198.5 269.304688 199.007812 269.171875 199.546875 269.171875 C 200.046875 269.171875 200.5 269.285156 200.90625 269.515625 C 201.316406 269.75 201.570312 270.128906 201.65625 270.671875 C 201.878906 271.859375 201.988281 273.160156 201.96875 274.558594 C 201.945312 275.96875 201.976562 277.289062 202.066406 278.523438 C 202.429688 276.878906 202.863281 275.558594 203.359375 274.527344 C 203.855469 273.503906 204.410156 272.703125 205.027344 272.136719 C 205.644531 271.570312 206.339844 271.183594 207.136719 270.972656 C 207.933594 270.761719 208.792969 270.640625 209.742188 270.59375 C 211.046875 270.59375 212.109375 270.960938 212.9375 271.683594 C 213.765625 272.414062 214.417969 273.316406 214.890625 274.382812 C 215.367188 275.449219 215.707031 276.613281 215.929688 277.855469 C 216.152344 279.113281 216.339844 280.257812 216.472656 281.300781 C 216.558594 281.800781 216.601562 282.277344 216.601562 282.734375 L 216.601562 284.097656 C 216.601562 285.007812 216.582031 285.863281 216.539062 286.652344 C 216.492188 287.453125 216.472656 288.308594 216.472656 289.21875 L 216.472656 290.273438 C 216.472656 290.617188 216.492188 290.972656 216.539062 291.328125 Z M 216.539062 291.339844 " />
      <path
         id="ronron4"
         style=" stroke:none;fill-rule:nonzero;fill:rgb(20%,13.725491%,12.156863%);fill-opacity:1;"
         d="M 236.421875 271.828125 C 237.195312 272.238281 237.734375 272.761719 238.054688 273.394531 C 238.375 274.035156 238.53125 274.667969 238.53125 275.304688 C 238.53125 276.125 238.277344 276.847656 237.78125 277.492188 C 237.28125 278.136719 236.574219 278.445312 235.667969 278.445312 C 234.984375 278.445312 234.289062 278.269531 233.558594 277.902344 L 232.953125 277.703125 L 232.542969 277.703125 C 231.363281 277.980469 230.433594 278.65625 229.757812 279.746094 C 229.074219 280.832031 228.554688 282.097656 228.191406 283.53125 C 227.828125 284.964844 227.59375 286.417969 227.472656 287.898438 C 227.351562 289.375 227.308594 290.640625 227.308594 291.683594 C 227.308594 292.726562 226.964844 293.582031 226.292969 294.238281 C 225.617188 294.902344 224.777344 295.269531 223.785156 295.371094 C 222.789062 295.414062 221.9375 295.046875 221.230469 294.28125 C 220.523438 293.503906 220.183594 292.636719 220.183594 291.683594 C 220.136719 291.449219 220.117188 291.226562 220.117188 290.996094 L 220.117188 285.976562 C 220.117188 284.542969 220.136719 283.097656 220.183594 281.644531 C 220.183594 279.957031 220.25 278.257812 220.390625 276.523438 C 220.4375 275.613281 220.515625 274.726562 220.636719 273.859375 C 220.746094 272.992188 220.902344 272.105469 221.078125 271.195312 C 221.164062 270.605469 221.476562 270.148438 221.992188 269.828125 C 222.511719 269.503906 223.019531 269.328125 223.519531 269.285156 C 223.792969 269.285156 224.105469 269.316406 224.46875 269.382812 C 224.832031 269.449219 225.199219 269.5625 225.550781 269.726562 C 225.914062 269.882812 226.214844 270.082031 226.46875 270.304688 C 226.722656 270.539062 226.867188 270.78125 226.910156 271.058594 C 226.953125 271.292969 226.964844 271.726562 226.941406 272.359375 C 226.921875 272.992188 226.875 273.671875 226.808594 274.371094 C 226.742188 275.082031 226.65625 275.726562 226.566406 276.3125 C 226.480469 276.902344 226.402344 277.289062 226.359375 277.480469 C 227.394531 275.203125 228.566406 273.59375 229.859375 272.636719 C 231.152344 271.683594 232.445312 271.203125 233.757812 271.203125 C 234.621094 271.203125 235.503906 271.417969 236.410156 271.816406 Z M 236.421875 271.828125 " />
      <path
         id="ronron5"
         style="stroke:none;fill-rule:nonzero;fill:rgb(20%, 13%, 12%);fill-opacity:1"
         d="M 251.566406 269.574219 C 252.734375 269.660156 253.839844 270.003906 254.855469 270.59375 C 255.875 271.183594 256.789062 271.925781 257.609375 272.816406 C 258.425781 273.703125 259.085938 274.714844 259.605469 275.847656 C 260.125 276.992188 260.5 278.125 260.722656 279.257812 C 260.910156 280.121094 261 281.054688 261 282.054688 C 261 283.964844 260.644531 285.785156 259.949219 287.519531 C 259.242188 289.25 258.191406 290.773438 256.789062 292.09375 C 254.757812 293.960938 252.539062 294.980469 250.140625 295.171875 C 248.914062 295.304688 247.742188 295.148438 246.605469 294.691406 C 245.480469 294.238281 244.453125 293.605469 243.554688 292.78125 C 241.964844 291.328125 240.851562 289.453125 240.199219 287.152344 C 239.535156 284.855469 239.347656 282.644531 239.625 280.5 C 239.800781 278.722656 240.21875 277.136719 240.882812 275.726562 C 241.535156 274.316406 242.386719 273.113281 243.425781 272.136719 C 244.460938 271.160156 245.675781 270.4375 247.058594 269.984375 C 248.4375 269.527344 249.941406 269.394531 251.578125 269.574219 Z M 249.796875 276.324219 C 249.257812 276.324219 248.714844 276.480469 248.195312 276.769531 C 247.675781 277.070312 247.234375 277.511719 246.871094 278.101562 C 246.507812 278.691406 246.242188 279.421875 246.085938 280.289062 C 245.929688 281.15625 245.941406 282.132812 246.121094 283.222656 C 246.351562 284.5 246.636719 285.453125 247.003906 286.085938 C 247.367188 286.71875 247.796875 287.152344 248.296875 287.386719 C 249.113281 287.753906 249.941406 287.53125 250.769531 286.707031 C 251.597656 285.886719 252.273438 284.820312 252.769531 283.5 C 253 282.855469 253.113281 282.109375 253.113281 281.246094 C 253.113281 279.921875 252.78125 278.789062 252.128906 277.835938 C 251.476562 276.878906 250.691406 276.378906 249.785156 276.335938 Z M 249.796875 276.324219 " />
      <path
         id="ronron6"
         style="stroke:none;fill-rule:nonzero;fill:rgb(20%, 13%, 12%);fill-opacity:1"
         d="M 284.074219 291.339844 C 284.351562 292.117188 284.484375 292.816406 284.484375 293.460938 C 284.484375 294.871094 284.050781 296.058594 283.203125 297.015625 C 282.351562 297.96875 281.457031 298.445312 280.507812 298.445312 C 279.832031 298.445312 279.226562 298.148438 278.683594 297.558594 C 278.140625 296.925781 277.820312 296.371094 277.710938 295.914062 C 277.601562 295.460938 277.480469 294.828125 277.335938 294.003906 C 277.070312 292.140625 276.917969 290.171875 276.894531 288.109375 C 276.871094 286.03125 276.839844 284.066406 276.792969 282.199219 C 276.707031 280.601562 276.5625 279.554688 276.386719 279.054688 C 276.199219 278.558594 275.933594 278.421875 275.570312 278.644531 C 274.929688 279.101562 274.398438 279.976562 273.96875 281.277344 C 273.535156 282.578125 273.171875 284.007812 272.882812 285.574219 C 272.585938 287.140625 272.355469 288.695312 272.167969 290.21875 C 271.980469 291.75 271.800781 292.9375 271.625 293.804688 C 271.492188 294.261719 271.25 294.660156 270.90625 295.003906 C 270.566406 295.347656 270.1875 295.605469 269.792969 295.792969 C 269.292969 296.027344 268.839844 296.113281 268.433594 296.070312 C 268.023438 296.027344 267.570312 295.882812 267.074219 295.660156 C 266.53125 295.382812 266.078125 295.015625 265.714844 294.539062 C 265.351562 294.058594 265.042969 293.527344 264.796875 292.925781 C 264.554688 292.328125 264.355469 291.71875 264.222656 291.082031 C 264.089844 290.441406 263.96875 289.851562 263.882812 289.308594 C 263.648438 288.261719 263.484375 287.1875 263.375 286.097656 C 263.261719 285 263.207031 283.933594 263.207031 282.886719 C 263.164062 280.699219 263.242188 278.625 263.449219 276.648438 C 263.660156 274.667969 264.046875 272.625 264.644531 270.539062 C 264.777344 270.128906 265.085938 269.792969 265.5625 269.550781 C 266.035156 269.304688 266.542969 269.171875 267.085938 269.171875 C 267.582031 269.171875 268.035156 269.285156 268.445312 269.515625 C 268.851562 269.75 269.105469 270.128906 269.195312 270.671875 C 269.414062 271.859375 269.527344 273.160156 269.503906 274.558594 C 269.480469 275.96875 269.515625 277.289062 269.601562 278.523438 C 269.96875 276.878906 270.398438 275.558594 270.894531 274.527344 C 271.394531 273.503906 271.945312 272.703125 272.5625 272.136719 C 273.183594 271.570312 273.878906 271.183594 274.671875 270.972656 C 275.46875 270.761719 276.332031 270.640625 277.28125 270.59375 C 278.585938 270.59375 279.644531 270.960938 280.472656 271.683594 C 281.300781 272.414062 281.953125 273.316406 282.429688 274.382812 C 282.902344 275.449219 283.246094 276.613281 283.464844 277.855469 C 283.6875 279.113281 283.875 280.257812 284.007812 281.300781 C 284.097656 281.800781 284.140625 282.277344 284.140625 282.734375 L 284.140625 284.097656 C 284.140625 285.007812 284.117188 285.863281 284.074219 286.652344 C 284.03125 287.453125 284.007812 288.308594 284.007812 289.21875 L 284.007812 290.273438 C 284.007812 290.617188 284.03125 290.972656 284.074219 291.328125 Z M 284.074219 291.339844 " />
    </g>
    <path
       id="steam3-2"
       style="display:none;fill:#a1a1a1;fill-opacity:0.66666669;fill-rule:nonzero;stroke:none;filter:url(#filter39)"
       d="m 192.92836,137.80859 c -0.41797,-7.05468 -3.49219,-12.71093 -9.09375,-16.98828 -1.80469,-1.375 -3.16407,-1.3164 -4.17969,-0.0273 -1.00391,1.26562 -0.64453,2.53125 1.19922,3.92969 2.73828,2.08203 4.7539,4.67187 6.08593,7.87109 1.79297,4.30859 1.40235,8.21484 -1.42187,11.99219 -2.14453,2.875 -3.92188,5.98047 -4.07422,9.71875 -0.0391,0.91797 0.0352,1.76562 0.92969,2.34375 1.64453,1.07031 3.68359,0.32422 3.85547,-1.67969 0.26172,-3.11719 1.85937,-5.53906 3.51953,-7.98438 1.8789,-2.76953 3.36719,-5.66796 3.1875,-9.17578 z"
       sodipodi:nodetypes="cccccccccccc" />
    <path
       id="steam2-2"
       style="display:none;fill:#a1a1a1;fill-opacity:0.66666669;fill-rule:nonzero;stroke:none;filter:url(#filter38)"
       d="m 179.01524,133.41406 c -0.043,-7.95312 -6.57032,-17.12109 -14.01563,-19.6914 -1.95703,-0.67578 -3.34765,-0.29297 -3.80078,1.16797 -0.57812,1.84765 0.48438,2.69531 2.04297,3.42968 6.13672,2.87891 10.05078,7.51953 10.84375,14.40235 0.50391,4.3789 -1.93359,7.72265 -4.29297,11.03125 -2.52344,3.52734 -4.42969,7.25 -4.32812,11.75 0.0351,1.64062 0.43359,2.91796 2.35546,2.90625 1.82032,-0.008 2.51172,-1.12891 2.46094,-2.83985 -0.10156,-3.42969 1.51953,-6.22265 3.42578,-8.85547 2.89063,-3.99609 5.47657,-8.08593 5.3086,-13.29687 z"
       sodipodi:nodetypes="sccccccccccs" />
    <path
       id="steam1-2"
       style="display:none;fill:#a1a1a1;fill-opacity:0.66666669;fill-rule:nonzero;stroke:none;filter:url(#filter36)"
       d="m 158.5131,135.65234 c -0.3711,-6.13672 -2.28125,-11.48437 -7.08985,-15.5 -0.41797,-0.35156 -0.85156,-0.69921 -1.32031,-0.97265 -1.25391,-0.75 -2.52344,-0.91016 -3.4375,0.44922 -0.90234,1.34375 -0.67578,2.69531 0.6875,3.58984 6.60156,4.33594 8.73828,15.53125 2.42188,22.10547 -2.39454,2.49219 -3.71875,5.5664 -3.63672,9.13281 0.0312,1.53125 0.40625,2.75781 2.22656,2.83203 1.8125,0.0703 2.69531,-0.87109 2.60937,-2.64844 -0.15234,-3.11328 1.6875,-5.33203 3.48829,-7.44531 2.88671,-3.39062 3.76171,-7.3789 4.05078,-11.53515 z m 0,0" />
  </g>
</svg>
