<svg width="87" height="92" viewBox="0 0 87 92" fill="none" xmlns="http://www.w3.org/2000/svg">
<g clip-path="url(#clip0_76_130)">
<path d="M19.9171 63.3172C19.807 62.0116 19.6443 60.7923 19.5741 59.565C19.397 56.4616 19.6395 53.3997 20.3623 50.3778C21.2574 46.6352 22.7907 43.1866 25.1921 40.1599C26.6169 38.3637 28.4087 36.9734 30.325 35.7381C33.2624 33.8429 36.4647 32.4749 39.6494 31.0686C41.4476 30.2744 43.2794 29.5393 44.7393 28.1458C45.36 27.5529 45.7094 26.9025 45.7238 26.0044C45.7477 24.5135 45.8865 23.0225 45.9902 21.5331C46.0205 21.1064 45.9376 20.9243 45.4382 21.0281C44.8366 21.1512 44.2303 21.2822 43.6064 21.287C43.1421 21.2902 42.8725 21.0665 42.8517 20.6254C42.8326 20.2211 43.048 19.9638 43.4884 19.9095C44.1793 19.8248 44.8669 19.7034 45.5578 19.6155C45.9168 19.5691 46.1131 19.4636 46.1163 19.029C46.1226 18.2939 46.2056 17.5588 46.2838 16.8269C46.3269 16.4274 46.2407 16.194 45.7987 16.1061C45.4142 16.0294 45.0424 15.8616 44.6771 15.7082C44.2782 15.5404 44.1745 15.2096 44.3069 14.8213C44.4393 14.4314 44.7584 14.3259 45.127 14.4186C45.5466 14.5241 45.9567 14.6711 46.4003 14.8085C46.6093 12.4466 46.8119 10.1295 47.021 7.8107C47.1167 6.73681 47.2523 5.67411 47.7118 4.67853C48.3564 3.27864 49.585 3.09486 50.5663 4.2886C51.605 5.55106 52.4506 6.94615 53.2676 8.35882C53.4064 8.60013 53.5915 8.82226 53.6936 9.07635C54.1324 10.1726 54.9014 10.5641 56.0949 10.537C58.2027 10.489 60.3136 10.6712 62.4181 10.3628C63.0037 10.2765 63.4297 10.0607 63.8063 9.57494C65.2072 7.76755 66.7373 6.06563 68.2531 4.35252C68.9376 3.57907 70.0146 3.75805 70.455 4.69451C70.7773 5.38007 70.8172 6.12476 70.7964 6.86146C70.7182 9.52859 70.6113 12.1941 70.5156 14.8597C70.5124 14.9396 70.5044 15.0195 70.5028 15.0978C70.4821 15.7993 70.4965 15.7945 71.1219 15.5436C72.3936 15.0323 73.67 14.5369 74.9513 14.0495C75.3039 13.9152 75.6629 13.9088 75.8863 14.2972C76.1448 14.7462 75.9501 15.1633 75.4204 15.3726C73.9253 15.9639 72.4367 16.5728 70.9368 17.1497C70.6018 17.2775 70.4709 17.4421 70.4917 17.8033C70.522 18.3194 70.522 18.8404 70.4917 19.3582C70.4709 19.7177 70.6002 19.844 70.9528 19.8791C72.1622 20.0006 73.3669 20.1572 74.5747 20.2866C74.9545 20.3266 75.2225 20.4704 75.2911 20.8715C75.3773 21.3813 75.0406 21.7393 74.4774 21.6833C73.3286 21.5699 72.1798 21.4372 71.0342 21.2934C70.6512 21.2455 70.5108 21.3318 70.5284 21.7584C70.6879 25.6593 70.8969 29.5569 71.2208 33.4465C71.5671 37.6142 71.9564 41.7787 72.3377 45.9433C72.5882 48.6807 72.8499 51.4166 73.1228 54.1524C73.3733 56.6693 73.4977 59.2118 73.9509 61.692C74.3785 64.0331 74.605 66.3791 74.7087 68.7394C74.7949 70.6986 74.7789 70.5931 73.019 70.9015C71.5033 71.1684 69.9667 71.2004 68.435 71.2179C64.4892 71.2611 60.5433 71.2771 56.5975 71.3138C52.3533 71.3538 48.1091 71.3777 43.8649 71.4576C38.8229 71.5535 33.781 71.4704 28.7406 71.3969C26.3504 71.3618 23.9635 71.2147 21.6308 70.6347C19.4528 70.0929 17.8126 68.7186 16.3574 67.1062C13.4328 63.8669 12.1212 59.9309 11.4766 55.7009C10.7267 50.7821 10.8846 45.8857 11.7925 41.0117C12.6414 36.4525 14.0933 32.085 16.142 27.9157C17.3993 25.3572 18.8002 22.8883 20.525 20.6158C22.8115 17.6035 25.5319 15.101 29.1267 13.7474C30.9201 13.0731 32.771 12.918 34.5787 13.8114C36.6977 14.8581 36.9226 17.1641 35.8584 18.9011C34.8069 20.619 33.3741 22.0029 31.8822 23.3213C27.6237 27.0831 24.0784 31.4202 21.2989 36.3774C18.0152 42.2342 16.493 48.5177 16.8616 55.2311C16.9797 57.3853 17.3227 59.5075 18.2976 61.4731C18.6598 62.2034 19.0779 62.8857 19.9187 63.3236L19.9171 63.3172ZM58.2776 62.5821C60.5625 62.5773 62.7181 62.3792 64.8737 62.1986C66.005 62.1043 67.133 61.9748 68.2627 61.879C68.6919 61.8422 69.0094 62.0068 69.062 62.4846C69.1179 62.9816 68.8546 63.2245 68.3903 63.29C68.2324 63.3124 68.0728 63.3348 67.9132 63.3316C67.441 63.3236 67.2495 63.5473 67.1139 64.0108C66.4916 66.1314 65.4034 67.9771 63.7201 69.4425C63.6339 69.5176 63.4903 69.5847 63.5765 69.7238C63.6467 69.8388 63.7887 69.7989 63.9052 69.7925C66.5889 69.6519 69.2759 69.5592 71.9516 69.2843C73.3749 69.1389 73.3078 68.9727 73.1467 67.763C72.593 63.5985 72.1239 59.4196 71.6963 55.2391C71.181 50.1861 70.7454 45.1251 70.3194 40.0625C69.8199 34.1273 69.3732 28.1906 69.1897 22.2362C69.1785 21.8975 69.2344 21.5363 69.1307 21.2279C68.9887 20.8028 68.5084 20.9994 68.1925 20.8715C67.7888 20.7069 67.5542 20.4369 67.642 20.0022C67.7266 19.5819 68.0568 19.3949 68.4541 19.494C69.0014 19.6298 69.1418 19.4557 69.1211 18.9155C69.0844 17.995 69.1099 17.9759 68.2467 18.2315C67.7728 18.3722 67.4394 18.2523 67.3037 17.7953C67.1697 17.343 67.3979 17.0282 67.8335 16.8684C68.076 16.7805 68.3169 16.6814 68.5658 16.6143C68.9535 16.5105 69.0732 16.2851 69.0828 15.8776C69.1211 14.286 69.1977 12.6943 69.2743 11.1043C69.3492 9.53179 69.4466 7.96251 69.5184 6.39003C69.5327 6.07362 69.5184 5.69488 69.1418 5.59421C68.8227 5.50951 68.561 5.74922 68.3999 6.00171C67.5447 7.35046 66.4198 8.49785 65.5327 9.81464C64.5259 11.3088 63.168 11.9528 61.3954 11.964C59.1424 11.9784 56.8943 11.9432 54.6429 11.8442C54.0191 11.817 53.5803 11.5677 53.2644 11.0611C52.8128 10.3356 52.3645 9.6085 51.9257 8.87499C51.262 7.76595 50.6094 6.65051 49.9472 5.54307C49.7924 5.28259 49.5994 4.99973 49.2627 5.04608C48.8957 5.09721 48.8846 5.47595 48.8128 5.75241C48.5814 6.64093 48.4889 7.55501 48.3947 8.46589C48.1793 10.5657 47.9751 12.6672 47.7581 14.7686C47.7198 15.1345 47.8076 15.3327 48.1985 15.4701C49.0792 15.7801 49.9313 16.1685 50.796 16.5232C51.2444 16.707 51.4949 17.0058 51.2859 17.5012C51.0721 18.0078 50.6748 17.995 50.2376 17.8129C49.5403 17.5236 48.8335 17.2519 48.1442 16.9451C47.7788 16.7821 47.6336 16.8588 47.6193 17.2583C47.6001 17.7953 47.5618 18.3322 47.5188 18.8676C47.4869 19.2527 47.6368 19.3566 48.0102 19.2783C48.5942 19.1552 49.1893 19.0881 49.7749 18.973C50.386 18.8532 50.8168 19.0466 50.9141 19.5116C51.0019 19.9367 50.7083 20.2419 50.0557 20.3585C49.3505 20.4848 48.6436 20.6014 47.932 20.6893C47.5778 20.7325 47.4198 20.8444 47.4023 21.2375C47.3337 22.8291 47.1773 24.4176 47.147 26.0092C47.1183 27.5306 46.421 28.6476 45.2977 29.5809C43.7756 30.8449 41.9854 31.6232 40.1935 32.387C37.0263 33.739 33.8751 35.1197 30.9839 37.015C28.7358 38.4884 26.7254 40.1999 25.2367 42.4899C23.5135 45.1426 22.3504 48.0143 21.6563 51.0874C20.9846 54.0613 20.7564 57.0688 21.0213 60.1099C21.1186 61.219 21.1473 62.3312 21.5765 63.3907C21.7712 63.8701 21.7073 64.3575 21.2797 64.7602C20.8521 65.1613 20.3751 65.0767 19.9395 64.8961C19.0667 64.5349 18.312 63.9948 17.7184 63.2373C16.7723 62.0308 16.2952 60.6117 15.9617 59.1559C15.0666 55.2455 15.3506 51.3063 15.9059 47.3927C16.3925 43.9617 17.5413 40.7224 19.0683 37.6078C20.9654 33.739 23.4146 30.2536 26.2116 26.9936C28.1103 24.7819 30.2995 22.8787 32.4519 20.9306C33.5049 19.9766 34.4352 18.9091 34.9074 17.53C35.2728 16.4609 34.9154 15.5884 33.915 15.0754C33.5432 14.8852 33.1507 14.7414 32.7295 14.6791C31.0908 14.4362 29.607 14.9412 28.2013 15.6827C25.7537 16.9723 23.7369 18.8005 22.0408 20.9642C19.3954 24.3393 17.3898 28.0899 15.8373 32.0722C14.3135 35.9778 13.2892 40.0161 12.7515 44.187C12.1499 48.8613 12.2345 53.4844 13.3993 58.0644C14.1173 60.8882 15.1783 63.5569 17.0882 65.8086C18.5306 67.5105 20.2378 68.8385 22.4604 69.3722C24.1932 69.7877 25.9627 69.9011 27.7338 69.9427C31.0797 70.021 34.4272 70.0658 37.7747 70.1105C38.3443 70.1185 38.9235 70.1776 39.5713 70.053C38.1847 69.4233 37.0008 68.6675 36.0435 67.5968C35.852 67.3826 35.6462 67.3683 35.4053 67.3699C34.6474 67.3699 33.8895 67.3746 33.1332 67.3699C31.311 67.3571 29.5081 67.218 27.8279 66.4222C26.7828 65.9268 25.8813 65.2429 25.2639 64.2537C23.847 61.9876 23.7098 59.549 24.3129 57.0049C24.7692 55.0793 25.7904 53.5899 27.5551 52.6566C28.9688 51.9088 30.5244 51.7681 32.0785 51.7346C32.8651 51.717 33.4044 51.6738 33.8177 50.7949C34.6218 49.0866 36.2685 48.5848 38.0156 48.3819C41.9183 47.9296 45.8418 47.8146 49.7653 47.7778C53.8101 47.7411 57.8548 47.7922 61.8964 47.9552C63.1202 48.0047 64.3121 48.2061 65.4449 48.6903C66.6527 49.2081 67.4585 50.0822 67.7649 51.3798C67.9531 52.1772 68.0967 52.981 68.0808 53.804C68.0744 54.13 68.0792 54.3346 68.518 54.1812C68.9232 54.039 69.2695 54.186 69.4115 54.6382C69.5535 55.0937 69.3269 55.3749 68.928 55.5203C66.9687 56.2395 65.0029 56.9426 63.042 57.6553C61.6044 58.1779 60.1668 58.6973 58.7356 59.2358C58.5664 59.2997 58.2266 59.2726 58.4308 59.6928C58.7356 60.3193 58.4819 60.7156 57.7766 60.8195C57.4623 60.8658 57.14 60.8546 56.8241 60.8914C56.5847 60.9201 56.5672 61.1135 56.5927 61.3005C56.6262 61.5466 56.8033 61.4123 56.915 61.3948C57.1496 61.3548 57.3889 61.3101 57.6107 61.227C57.9984 61.0831 58.3718 61.04 58.6207 61.4315C58.8824 61.8438 58.7515 62.2162 58.284 62.5853L58.2776 62.5821ZM51.1535 69.9906C53.6122 69.9139 55.9673 70.0817 58.3127 69.8468C59.5222 69.7254 60.7444 69.5847 61.831 69.0062C63.7297 67.9931 64.7221 66.224 65.5327 64.3352C65.8422 63.6128 65.7959 63.5761 65.0109 63.6224C62.8649 63.7503 60.7236 63.9836 58.5712 63.9996C58.0287 64.0044 57.4719 63.982 56.9916 63.7391C56.2242 63.3508 55.487 63.0743 54.6892 63.624C54.6749 63.6336 54.6509 63.6304 54.6302 63.6336C54.2712 63.6943 53.9888 63.5825 53.8659 63.2261C53.7431 62.8745 53.7925 62.5453 54.1483 62.3456C54.3893 62.2098 54.6413 62.0755 54.9046 61.9972C55.2971 61.8806 55.1248 61.5865 55.1392 61.3564C55.1583 61.0432 54.9333 61.0831 54.7291 61.0943C54.5695 61.1039 54.41 61.0943 54.2504 61.1023C53.7606 61.1247 53.4128 60.9409 53.4 60.412C53.3872 59.915 53.7271 59.6944 54.1754 59.6912C55.0514 59.6864 55.771 59.4643 56.4635 58.8299C57.4128 57.9606 58.7228 57.6873 59.9083 57.2446C61.9921 56.4648 64.103 55.7537 66.206 55.0217C66.4884 54.9227 66.6097 54.7629 66.6336 54.4592C66.707 53.4924 66.6081 52.5496 66.3336 51.6227C66.0991 50.8301 65.6188 50.2708 64.8418 49.948C64.0201 49.6076 63.1617 49.4685 62.2873 49.3838C59.5653 49.1202 56.8321 49.2608 54.1052 49.1825C50.3222 49.0722 46.5343 49.1425 42.7544 49.3966C41.186 49.5021 39.6064 49.4909 38.0539 49.7738C36.862 49.9911 35.6909 50.2803 35.0271 51.4405C34.5628 52.2539 34.424 53.1728 34.3745 54.0853C34.2325 56.7189 34.3091 59.3493 34.8372 61.9413C35.2856 64.1386 36.2222 66.0722 38.0347 67.5105C39.6654 68.8033 41.5849 69.3482 43.5681 69.7126C46.1163 70.1824 48.6947 69.9858 51.1535 69.9858V69.9906ZM34.7287 65.914C34.483 65.3531 34.2437 64.8945 34.0841 64.4103C33.9692 64.0619 33.7666 63.95 33.4379 63.9277C32.6641 63.8733 31.887 63.8398 31.1196 63.7343C29.7139 63.5393 28.4598 63.0535 27.7035 61.7351C26.6424 59.8894 26.7972 57.0784 29.3006 56.0349C30.3042 55.6162 31.3398 55.5299 32.3944 55.5363C32.8093 55.5379 32.9561 55.4245 32.9353 54.9994C32.9114 54.5248 32.9162 54.039 32.9912 53.5707C33.0582 53.152 32.889 53.1089 32.5476 53.1041C31.5647 53.0897 30.6074 53.2655 29.6453 53.4253C28.2061 53.665 27.0796 54.4081 26.3728 55.6738C25.2463 57.6873 25.0899 59.8287 25.7744 62.0212C26.2786 63.6368 27.3094 64.7746 28.9273 65.3579C30.7909 66.0307 32.7199 65.9524 34.7271 65.9156L34.7287 65.914ZM32.471 62.4543C32.6928 62.4718 32.8763 62.4638 33.0486 62.5038C33.4682 62.6029 33.4922 62.4543 33.422 62.0755C33.1348 60.5318 32.9273 58.9769 32.9305 57.4028C32.9305 57.136 32.9066 56.9458 32.5588 56.9394C31.7386 56.9234 30.9217 56.9458 30.1463 57.2223C29.5033 57.4524 28.8938 57.7976 28.6544 58.4927C28.246 59.6785 28.5746 61.5322 30.2994 62.0835C31.027 62.3152 31.7594 62.4351 32.471 62.4543Z" fill="#33231F"/>
<path d="M58.2999 62.5457C58.7658 62.1766 58.8982 61.8042 58.6365 61.3919C58.3876 61.0004 58.0143 61.0451 57.6266 61.1874C57.4048 61.2689 57.1654 61.3152 56.9309 61.3552C56.8208 61.3743 56.6437 61.5086 56.6086 61.2609C56.5831 61.0739 56.6006 60.8805 56.84 60.8518C57.1559 60.815 57.4782 60.8262 57.7925 60.7798C58.4977 60.676 58.7514 60.2796 58.4467 59.6532C58.2424 59.2329 58.5839 59.2585 58.7514 59.1961C60.1826 58.6576 61.6202 58.1382 63.0578 57.6156C65.0203 56.9029 66.9845 56.1997 68.9438 55.4806C69.3411 55.3352 69.5693 55.0539 69.4273 54.5984C69.2868 54.1478 68.9406 53.9992 68.5337 54.1414C68.0934 54.2948 68.0886 54.0918 68.0966 53.7642C68.1125 52.9412 67.9689 52.1374 67.7806 51.3399C67.4743 50.0423 66.6685 49.1681 65.4607 48.6504C64.3295 48.1661 63.136 47.9648 61.9122 47.9152C57.8707 47.7522 53.8243 47.7011 49.7812 47.7379C45.8578 47.773 41.9359 47.8881 38.0316 48.3419C36.2845 48.5449 34.6379 49.0467 33.8337 50.755C33.4205 51.634 32.8812 51.6771 32.0946 51.6947C30.5405 51.7283 28.9832 51.8689 27.5712 52.6168C25.8065 53.5501 24.7869 55.0395 24.329 56.9652C23.7259 59.5093 23.8647 61.9481 25.28 64.2141C25.8974 65.2033 26.8005 65.8873 27.844 66.3827C29.5257 67.1786 31.3271 67.3192 33.1492 67.3304C33.9071 67.3352 34.665 67.3304 35.4213 67.3304C35.6622 67.3304 35.868 67.3432 36.0595 67.5573C37.0168 68.628 38.1991 69.3839 39.5873 70.0136C38.9395 70.1382 38.3603 70.0791 37.7907 70.0711C34.4432 70.0264 31.0957 69.9832 27.7499 69.9033C25.9788 69.8618 24.2077 69.7483 22.4766 69.3328C20.254 68.799 18.5483 67.471 17.1044 65.7691C15.1945 63.5158 14.1334 60.8485 13.4154 58.0247C12.2507 53.4447 12.1661 48.8197 12.7676 44.147C13.3053 39.976 14.3297 35.936 15.8534 32.0319C17.4075 28.0511 19.4131 24.2987 22.0569 20.9236C23.753 18.7598 25.7698 16.9315 28.2174 15.6419C29.6214 14.902 31.1069 14.3954 32.7455 14.6383C33.1668 14.7006 33.5593 14.8445 33.931 15.0346C34.9314 15.5476 35.2888 16.4202 34.9235 17.4893C34.4512 18.8684 33.521 19.936 32.4679 20.89C30.3171 22.8381 28.1264 24.7414 26.2277 26.9531C23.4307 30.2132 20.9815 33.7003 19.0844 37.5676C17.5575 40.6807 16.4087 43.9217 15.922 47.3527C15.3668 51.2664 15.0828 55.2057 15.9779 59.1162C16.3114 60.5705 16.7868 61.9896 17.7346 63.1977C18.3281 63.9536 19.0828 64.4954 19.9556 64.8566C20.3912 65.0371 20.8683 65.1218 21.2959 64.7207C21.7235 64.318 21.7873 63.8306 21.5926 63.3512C21.1634 62.2916 21.1347 61.1794 21.0374 60.0703C20.7709 57.0276 21.0007 54.0215 21.6724 51.0475C22.3649 47.976 23.5296 45.1042 25.2528 42.4498C26.7399 40.1597 28.7519 38.4466 31 36.9747C33.8911 35.0794 37.0424 33.6987 40.2095 32.3467C42.0013 31.5812 43.7916 30.8045 45.3137 29.5405C46.4369 28.6072 47.1326 27.4917 47.1629 25.9687C47.1933 24.3771 47.3496 22.7885 47.4182 21.1968C47.4358 20.8037 47.5937 20.6919 47.9479 20.6487C48.658 20.5608 49.3664 20.4441 50.0716 20.3179C50.7242 20.2012 51.0178 19.896 50.93 19.4709C50.8343 19.0043 50.4035 18.8125 49.7908 18.9324C49.2052 19.0458 48.6101 19.1145 48.0261 19.2376C47.6528 19.3159 47.5028 19.2136 47.5347 18.8269C47.5778 18.2915 47.6161 17.7546 47.6352 17.2176C47.6496 16.8181 47.7948 16.7414 48.1602 16.9044C48.8494 17.2128 49.5563 17.4829 50.2535 17.7721C50.6907 17.9543 51.088 17.9671 51.3018 17.4605C51.5092 16.9667 51.2603 16.6679 50.812 16.4825C49.9472 16.1277 49.0951 15.7394 48.2144 15.4294C47.8235 15.2919 47.7357 15.0938 47.774 14.7278C47.991 12.6279 48.1953 10.5264 48.4107 8.42494C48.5048 7.51404 48.5973 6.59992 48.8287 5.71139C48.9005 5.43493 48.9117 5.05618 49.2786 5.00504C49.6153 4.95869 49.8084 5.24156 49.9631 5.50204C50.6269 6.61111 51.2779 7.72659 51.9416 8.83405C52.3804 9.56757 52.8287 10.2947 53.2803 11.0202C53.5962 11.5268 54.0366 11.7761 54.6588 11.8033C56.9085 11.9024 59.1583 11.9375 61.4112 11.9232C63.1838 11.912 64.5417 11.2679 65.5485 9.77373C66.4356 8.45691 67.5605 7.30947 68.4157 5.96069C68.5752 5.7082 68.8385 5.46848 69.1576 5.55318C69.5342 5.65386 69.5485 6.03261 69.5342 6.34903C69.4624 7.92153 69.365 9.49088 69.29 11.0634C69.2135 12.6535 69.1369 14.2452 69.0986 15.8369C69.089 16.2428 68.9693 16.4697 68.5816 16.5736C68.3327 16.6407 68.0934 16.7398 67.8493 16.8277C67.4121 16.9875 67.1855 17.3023 67.3195 17.7546C67.4551 18.2132 67.7902 18.3315 68.2625 18.1908C69.1257 17.9352 69.1002 17.9543 69.1369 18.8748C69.1592 19.415 69.0172 19.5892 68.4699 19.4533C68.0726 19.3543 67.7423 19.5412 67.6578 19.9615C67.57 20.3962 67.8046 20.6679 68.2083 20.8309C68.5226 20.9587 69.0044 20.7622 69.1464 21.1873C69.2501 21.4957 69.1943 21.8585 69.2055 22.1957C69.3906 28.1501 69.8373 34.087 70.3351 40.0223C70.7611 45.085 71.1951 50.1462 71.7121 55.1993C72.1397 59.3799 72.6088 63.5573 73.1624 67.7235C73.3236 68.9333 73.3922 69.0995 71.9674 69.2449C69.2917 69.5182 66.6047 69.6109 63.921 69.7531C63.8061 69.7595 63.6625 69.7994 63.5923 69.6844C63.5078 69.5437 63.6498 69.4782 63.7359 69.4031C65.4192 67.9377 66.5074 66.0919 67.1297 63.9712C67.2653 63.5078 67.4567 63.2824 67.929 63.292C68.087 63.2952 68.2481 63.2729 68.4061 63.2505C68.8704 63.1834 69.1337 62.9404 69.0778 62.445C69.0252 61.9672 68.7076 61.8026 68.2785 61.8394C67.1472 61.9369 66.0191 62.0647 64.8895 62.159C62.7339 62.3396 60.5783 62.5377 58.2935 62.5425L58.2999 62.5457ZM46.7258 38.6783C46.6763 40.1901 47.4262 41.3775 48.2655 42.5377C48.8175 43.3016 51.3321 44.0926 51.3018 45.0882C51.2874 45.5852 49.443 45.9288 49.9727 45.932C50.5295 45.9352 50.6444 45.5645 50.6556 45.0882C50.6843 43.7826 48.2671 43.4742 47.5347 42.4498C46.8502 41.4909 45.6855 39.9504 45.8322 38.6783C46.062 36.6807 49.151 33.1809 50.93 32.3467C51.3816 32.1341 52.0597 33.8377 51.8922 33.3008C51.7597 32.8789 51.356 32.7654 50.7896 32.962C48.6309 33.7099 46.7385 36.3707 46.7258 38.6767V38.6783ZM44.4521 39.3271C44.5367 40.5337 44.4776 40.9364 45.3137 41.9208C45.8354 42.5361 45.6775 45.0307 45.6328 45.932C44.6212 47.0267 44.8143 45.6268 45.3392 45.606C45.8673 45.5852 43.401 44.5912 43.4106 44.147C43.4345 43.1114 45.6248 42.8573 44.9308 42.1334C43.0991 40.2253 43.7182 36.9763 45.6328 35.7187C46.0285 35.4582 43.6723 36.5465 43.4106 36.1565C43.1457 35.7634 45.1988 34.3299 44.835 34.5457C44.6994 34.6272 45.9535 36.0558 45.8323 36.1565C44.4378 37.3215 44.9419 35.7842 44.835 37.5676L44.4521 39.3271ZM54.6062 40.505C54.5535 41.523 54.9269 41.3295 55.471 42.1334C55.9528 42.8429 55.7406 43.8369 55.8188 44.7414C55.8683 45.3231 54.5535 45.7339 55.0306 45.4222C55.2891 45.2544 55.3114 45.0083 55.3002 44.7414C55.254 43.6548 54.7402 42.7534 54.1179 41.9208C53.2994 40.8245 53.1861 39.6915 53.7063 38.4402C54.0924 37.5117 54.6764 36.7606 55.471 36.1565C56.0055 35.7506 56.1092 35.3831 55.8188 35.0155C55.5236 34.6431 56.7894 36.5752 56.2676 36.9747C54.6434 38.2165 54.7274 37.9064 54.6062 39.9536V40.505ZM60.5528 16.3674C60.3342 16.3578 60.1156 16.3419 59.897 16.3387C58.8232 16.3227 58.4515 16.898 58.9285 17.8776C59.136 18.3043 59.3896 18.715 59.6609 19.1034C60.0215 19.6179 60.4906 19.7186 61.0745 19.4789C61.7526 19.2008 62.1691 18.6351 62.5935 18.0886C63.0658 17.4781 62.8711 16.858 62.1404 16.572C61.6298 16.3706 61.0873 16.393 60.5528 16.3674ZM54.8934 16.5768C55.396 16.572 55.6433 16.2939 55.6624 15.8816C55.6816 15.4709 55.4024 15.2072 54.9971 15.1912C54.5583 15.1737 54.2791 15.4166 54.2823 15.8784C54.2839 16.2939 54.5248 16.5224 54.895 16.5784L54.8934 16.5768ZM65.7862 14.8972C65.3682 14.9531 65.1097 15.1769 65.1288 15.6323C65.148 16.0558 65.4192 16.2875 65.8149 16.2923C66.2202 16.2971 66.4723 16.0494 66.4803 15.6243C66.4882 15.1737 66.2489 14.9355 65.7862 14.8972Z" fill="#EED9BE"/>
<path d="M51.1555 69.995C48.6968 69.995 46.1183 70.1915 43.5702 69.7217C41.5869 69.3557 39.6659 68.8124 38.0368 67.5196C36.2243 66.0813 35.2877 64.1477 34.8393 61.9504C34.3112 59.3584 34.2346 56.7296 34.3766 54.0944C34.4261 53.1803 34.5649 52.2615 35.0292 51.4496C35.6929 50.2879 36.8625 50.0002 38.056 49.7829C39.6084 49.4984 41.1881 49.5096 42.7565 49.4057C46.5364 49.1517 50.3242 49.0813 54.1073 49.1916C56.8341 49.2715 59.5673 49.1293 62.2893 49.393C63.1637 49.4777 64.0221 49.6151 64.8438 49.9571C65.6209 50.2799 66.1011 50.8392 66.3357 51.6318C66.6101 52.5587 66.709 53.5015 66.6357 54.4684C66.6133 54.772 66.4921 54.9334 66.208 55.0309C64.1051 55.7628 61.9958 56.4739 59.9104 57.2537C58.7249 57.698 57.4149 57.9713 56.4655 58.839C55.7731 59.4734 55.0535 59.6956 54.1775 59.7004C53.7292 59.7036 53.3909 59.9225 53.4021 60.4211C53.4148 60.95 53.7627 61.1322 54.2525 61.1114C54.4121 61.105 54.5716 61.1114 54.7312 61.1034C54.9354 61.0923 55.1604 61.0523 55.1412 61.3655C55.1269 61.5956 55.3008 61.8897 54.9067 62.0063C54.6434 62.0846 54.3913 62.2189 54.1504 62.3547C53.7946 62.5545 53.7451 62.8837 53.868 63.2352C53.9924 63.5916 54.2732 63.7035 54.6322 63.6427C54.6514 63.6395 54.6753 63.6427 54.6913 63.6331C55.4891 63.0834 56.2262 63.3583 56.9937 63.7482C57.4723 63.9911 58.0292 64.0135 58.5733 64.0087C60.7257 63.9927 62.8669 63.7594 65.013 63.6315C65.7996 63.5852 65.8443 63.622 65.5347 64.3443C64.7258 66.2316 63.7317 68.0022 61.833 69.0154C60.7464 69.5955 59.5242 69.7361 58.3148 69.8559C55.9693 70.0908 53.6143 69.9231 51.1555 69.9998V69.995ZM50.5923 50.4541C47.9628 50.4541 45.3333 50.4477 42.7054 50.4573C41.3253 50.4621 39.9579 50.6474 38.6352 51.015C37.7895 51.2499 36.9726 51.6638 36.8417 52.7057C36.7077 53.77 37.322 54.422 38.1565 54.9158C38.7293 55.2546 39.3675 55.4112 40.0249 55.4959C42.3815 55.7995 44.7557 55.7308 47.1203 55.8219C51.5401 55.9913 55.9629 55.9737 60.3763 55.6062C61.6096 55.5039 62.8255 55.3025 63.9774 54.8183C65.0385 54.3709 65.5634 53.5127 65.4565 52.4229C65.3799 51.6382 64.6268 50.9207 63.6041 50.7241C63.06 50.6187 62.5016 50.5484 61.9479 50.534C58.1648 50.4333 54.3801 50.3102 50.5939 50.4557L50.5923 50.4541Z" fill="#F08E7F"/>
<path d="M34.7309 65.9185C32.7237 65.9552 30.7947 66.0319 28.9311 65.3608C27.3132 64.7775 26.2824 63.6397 25.7782 62.024C25.0937 59.8315 25.2501 57.6901 26.3766 55.6766C27.0834 54.4109 28.2099 53.6678 29.6491 53.4281C30.6096 53.2683 31.5685 53.0926 32.5514 53.1069C32.8928 53.1117 33.062 53.1549 32.995 53.5736C32.92 54.0418 32.9152 54.5276 32.9391 55.0022C32.9599 55.4257 32.8115 55.5408 32.3982 55.5392C31.3436 55.5344 30.308 55.6207 29.3044 56.0378C26.801 57.0797 26.6478 59.8922 27.7073 61.738C28.4652 63.0564 29.7193 63.5438 31.1234 63.7371C31.8908 63.8426 32.6679 63.8762 33.4417 63.9305C33.7704 63.9529 33.973 64.0663 34.0879 64.4131C34.2475 64.8989 34.4868 65.356 34.7325 65.9169L34.7309 65.9185Z" fill="#EE8D7E"/>
<path d="M32.4732 62.4588C31.7616 62.438 31.0276 62.3197 30.3016 62.088C28.5768 61.5367 28.2482 59.6814 28.6566 58.4972C28.896 57.8021 29.5055 57.4569 30.1485 57.2268C30.9239 56.9503 31.7408 56.9279 32.561 56.9439C32.9088 56.9503 32.9343 57.1405 32.9327 57.4073C32.9295 58.983 33.137 60.5379 33.4242 62.08C33.4944 62.4604 33.4704 62.6074 33.0508 62.5083C32.8785 62.4684 32.695 62.4763 32.4732 62.4588Z" fill="#EED9BE"/>
<path d="M46.7039 38.7192C46.7166 36.4116 48.609 33.7508 50.7678 33.0046C51.3358 32.808 51.7395 32.9199 51.8703 33.3433C52.0378 33.8803 51.7299 34.1264 51.2783 34.3389C49.4977 35.1747 48.3632 36.5218 48.1335 38.5194C47.9867 39.7898 48.6935 40.7599 49.378 41.7203C50.1104 42.7446 50.6624 43.8249 50.6337 45.1305C50.6226 45.6067 50.5077 45.9775 49.9508 45.9743C49.4227 45.9711 49.2217 45.6467 49.236 45.1497C49.2663 44.1541 48.7956 43.3439 48.2436 42.58C47.4043 41.4199 46.6544 40.2325 46.7039 38.7208V38.7192Z" fill="#33231F"/>
<path d="M42.3767 39.3696C42.4836 37.5878 43.0373 36.0361 44.4318 34.8711C44.5531 34.7688 44.6791 34.6682 44.8147 34.5883C45.1785 34.3709 45.5471 34.3246 45.812 34.7193C46.0736 35.1092 46.0082 35.5008 45.6125 35.7612C43.6978 37.0189 43.0788 40.2677 44.9105 42.1758C45.6045 42.8997 45.9891 43.7914 45.9651 44.8269C45.9556 45.2712 45.8471 45.6275 45.3189 45.6483C44.794 45.6691 44.5371 45.3958 44.5626 44.8797C44.6073 43.9768 44.0728 43.3328 43.551 42.7191C42.7134 41.7347 42.4597 40.5777 42.3767 39.3712V39.3696Z" fill="#33231F"/>
<path d="M51.9469 39.9944C52.0681 37.9473 52.96 36.3061 54.5843 35.0645C55.1077 34.665 55.5018 34.6825 55.797 35.0565C56.0873 35.424 55.9836 35.7916 55.4491 36.1975C54.6545 36.8015 54.0706 37.5526 53.6844 38.4811C53.1643 39.7324 53.2776 40.8654 54.0961 41.9616C54.7184 42.7958 55.2337 43.6971 55.2784 44.7822C55.2896 45.049 55.2672 45.2951 55.0087 45.4629C54.5317 45.773 53.9397 45.5572 53.8903 44.9755C53.8137 44.071 53.351 43.3679 52.8691 42.6584C52.325 41.8546 51.8926 41.0124 51.9453 39.9944H51.9469Z" fill="#33231F"/>
<path d="M60.5325 16.4084C61.067 16.434 61.6095 16.4116 62.1201 16.613C62.8493 16.899 63.0455 17.5207 62.5732 18.1295C62.1488 18.676 61.7324 19.2418 61.0542 19.5198C60.4719 19.7595 60.0012 19.6588 59.6406 19.1443C59.3677 18.7544 59.1156 18.3453 58.9082 17.9186C58.4311 16.939 58.8029 16.3637 59.8767 16.3797C60.0953 16.3829 60.3139 16.3988 60.5325 16.4084Z" fill="#33231F"/>
<path d="M54.8731 16.6178C54.5045 16.5618 54.2636 16.3333 54.2604 15.9178C54.2572 15.456 54.5364 15.2131 54.9752 15.2307C55.3805 15.2466 55.6613 15.5103 55.6406 15.921C55.6214 16.3349 55.3741 16.6114 54.8715 16.6162L54.8731 16.6178Z" fill="#33231F"/>
<path d="M65.7659 14.9382C66.2287 14.9766 66.468 15.2147 66.46 15.6653C66.452 16.0904 66.1999 16.3365 65.7947 16.3333C65.4006 16.3285 65.1277 16.0968 65.1086 15.6733C65.0878 15.2179 65.3479 14.9941 65.7659 14.9382Z" fill="#33231F"/>
<path d="M50.5923 50.4541C54.3786 50.3102 58.1617 50.4317 61.9463 50.5324C62.5 50.5467 63.0585 50.6187 63.6025 50.7225C64.6253 50.9207 65.3784 51.6366 65.455 52.4213C65.5619 53.5111 65.0369 54.3693 63.9759 54.8167C62.8255 55.3009 61.6097 55.5023 60.3747 55.6046C55.9614 55.9721 51.5385 55.9897 47.1188 55.8203C44.7526 55.7292 42.3784 55.7979 40.0233 55.4943C39.366 55.4096 38.7277 55.253 38.1549 54.9142C37.3204 54.4204 36.7078 53.7684 36.8402 52.7041C36.971 51.6622 37.7879 51.2483 38.6336 51.0134C39.9563 50.6458 41.3237 50.4605 42.7039 50.4557C45.3334 50.4461 47.9628 50.4525 50.5907 50.4525L50.5923 50.4541Z" fill="#7B5E57"/>
<path d="M66.9476 31.4998C66.4373 31.4998 65.2231 31.7774 64.4499 32.4784C63.757 33.1066 63.6781 34.1132 63.3037 35.3498C62.5898 37.7082 63.2995 40.5148 63.7447 41.5208C64.0952 42.313 64.8418 42.8534 65.4033 43.4381C66.0834 44.1462 66.6644 45.049 67.296 45.3568C68.1569 45.7762 68.0664 43.1422 68.4422 41.8804C68.9367 40.2196 68.1646 39.3091 67.6507 38.5128C67.1433 37.7264 66.7149 37.0182 66.5277 36.0606C66.2617 34.6996 66.2943 33.7459 66.0846 33.5566C64.2336 31.8851 65.8708 39.3932 66.1288 40.4448C66.49 41.9171 66.9448 44.0536 67.0415 45.4724C67.0458 45.5348 66.9027 45.0602 66.8551 43.1114C66.8074 41.1626 66.8074 37.6463 66.8768 36.0894C66.9462 34.5324 67.085 35.0413 67.1565 36.2751C67.4829 41.9075 66.9476 43.3189 66.7618 43.7683C66.6914 43.9387 66.5298 43.1002 66.412 41.0567C66.2943 39.0133 66.2017 35.4507 66.2234 33.8237C66.2452 32.1966 66.384 32.613 66.5711 33.6835C67.0558 36.455 67.228 38.7385 67.228 38.8619C67.228 42.063 67.3682 34.8226 67.4846 34.0031C67.6132 33.0975 67.6486 32.2513 67.6255 31.8293C67.5793 30.9868 67.3233 33.8777 67.2049 34.7217C67.0868 35.5628 66.9027 36.4966 66.412 37.129C65.8986 37.7905 65.3605 38.4595 64.7303 39.6267C64.5556 39.9503 64.4268 40.2793 64.2858 40.3305C63.4969 40.617 63.7229 37.4977 63.9781 36.4069C64.4083 34.568 65.4516 40.8345 65.4523 42.5646C65.4525 43.0937 65.268 42.9067 65.1502 42.6494C64.9399 42.0683 64.752 41.5496 64.5887 41.1766C64.5179 40.9887 64.4716 40.8037 64.2837 40.613" stroke="#33231F" stroke-width="2" stroke-linecap="round"/>
<path d="M51.2773 8.27078C50.9648 8.40413 50.3371 8.94155 49.8421 9.50321C49.3483 10.0636 49.2138 10.9161 48.8986 11.6354C48.8239 11.8059 48.8528 11.9937 48.9417 12.1297C49.1326 12.4218 49.7472 12.4462 50.3526 12.3796C50.6096 12.3513 50.7358 12.1795 50.8489 12.022C51.461 11.1695 51.2315 9.84399 51.255 9.53015C51.2824 9.16609 50.3829 9.25808 49.7775 9.39209C49.3446 9.48791 49.1235 9.88574 48.8993 10.1767C48.6785 10.4631 48.7181 11.1397 48.8515 11.8576C48.907 12.1567 49.2515 12.2199 49.4778 12.2213C50.2884 12.2261 50.9594 11.5061 51.4106 10.8326C51.6336 10.4998 51.6813 9.71333 51.5924 8.86006C51.5625 8.57218 51.3258 8.62907 51.1675 8.71864C50.5175 9.08648 50.3802 9.97329 50.3122 10.9161C50.2827 11.3246 50.1553 11.6812 50.1546 12.0172C50.1543 12.1814 50.3317 12.3088 50.5115 12.3998C50.8901 12.5912 51.3648 12.492 51.7682 12.2907C51.959 12.1954 52.0827 12.0448 52.1736 11.8873C52.2646 11.7297 52.309 11.5519 52.3319 11.2158C52.3548 10.8798 52.3548 10.3908 52.3548 9.88708" stroke="#33231F" stroke-width="2" stroke-linecap="round"/>
<path d="M22.7228 21.2015C22.6339 21.514 22.3646 22.2306 22.0285 22.9276C21.6946 23.6201 21.1092 24.2509 20.7253 24.8146C20.3873 25.311 21.419 23.5856 21.4217 22.3949C21.4221 22.2104 21.155 22.3222 20.9745 22.4568C20.2353 23.0085 20.0748 23.8469 20.0068 24.6779C19.9752 25.0636 19.8943 25.8201 20.0721 26.6512C20.1368 26.9537 20.6055 26.8155 20.8998 26.703C21.4341 26.4988 21.8231 26.142 22.1147 25.7837C23.0268 24.6631 22.5854 21.8373 22.9909 20.889C23.2616 21.646 23.0838 22.904 22.7464 23.6233C22.6784 23.8038 22.6339 23.9816 22.3188 24.2994" stroke="#33231F" stroke-width="2" stroke-linecap="round"/>
<path d="M49.3916 10.5605C49.3916 10.2481 49.3027 9.5315 49.3236 8.83447C49.8833 8.36103 50.6901 8.18189 51.3871 8.09097C51.5454 8.13475 51.6787 8.26809 51.8161 8.80955" stroke="#33231F" stroke-width="2" stroke-linecap="round"/>
<path d="M53.1629 12.3116C52.9407 12.5797 52.045 13.0282 50.4974 13.0753C49.6623 12.7171 49.2138 12.3574 48.9 12.1338C48.7639 11.9991 48.675 11.8214 48.4487 11.5035" stroke="#33231F" stroke-width="2" stroke-linecap="round"/>
<path d="M53.971 11.5035L53.7017 11.0994" stroke="#33231F" stroke-width="2" stroke-linecap="round"/>
<path d="M30.4002 37.2302C30.3113 37.5427 29.8642 38.1703 29.2129 38.598C28.5703 39.02 28.0674 39.6062 27.7522 40.3254C27.6775 40.496 27.7064 40.6837 27.7731 40.8419C28.0578 41.5178 28.7812 41.9417 29.4547 42.2131C29.6273 42.2826 29.813 42.3027 29.8379 42.3922C29.8628 42.4818 29.7295 42.6152 29.483 42.6839C29.2365 42.7525 28.8809 42.7525 28.6755 42.6414C27.5637 42.0399 28.4688 39.8809 28.6923 39.5671C29.1623 38.9075 30.438 38.8465 31.1404 38.6229C31.1878 38.6078 30.8986 38.5771 30.7397 38.4882C30.5807 38.3993 30.4918 38.2215 30.446 38.041C30.4002 37.8605 30.4002 37.6827 30.5114 37.5467C30.7658 37.2353 31.3404 37.2302 31.8334 37.2746C32.063 37.2953 32.2374 37.408 32.3513 37.5427C32.833 38.1127 32.3775 39.0674 32.1075 39.7866C31.8008 40.6033 30.9875 41.0447 30.2682 41.4043C30.0878 41.4945 29.91 41.5834 29.6628 41.6292C29.4156 41.675 29.1045 41.675 28.9442 41.4528C28.5431 40.8966 28.9173 40.1059 29.2304 39.6802C29.8836 38.7924 30.9794 38.534 31.7445 38.1966C32.088 38.0451 32.4637 37.9494 32.7331 37.9259C32.8452 37.9161 32.8247 38.2134 32.758 38.4168C32.4417 39.3817 30.8986 39.7866 30.2231 40.3039C30.0544 40.433 29.8211 40.5059 29.7288 40.4628C29.6365 40.4197 29.681 40.2419 29.7928 40.0836C30.3423 39.3057 31.4724 38.4478 32.261 37.771C32.8552 37.261 33.4066 37.0066 33.6759 36.9608C33.7757 36.9438 33.7675 37.1817 33.7009 37.3622C33.3602 38.2843 32.3344 38.9785 31.7047 39.6297C31.0019 40.3566 30.2682 40.8642 29.9073 41.5376C29.8193 41.7017 29.8615 41.8959 30.0393 41.9875C30.5204 42.2353 31.1168 41.9902 31.4529 41.7888C32.1364 41.3793 32.6873 40.646 33.115 39.9267C33.5493 39.1963 34.6134 38.27 35.3596 37.3676C35.866 36.7551 35.8324 36.1096 35.8108 35.7957C35.7881 35.4648 35.1616 35.4792 34.7137 35.5236C33.8078 35.6136 33.1426 36.2847 32.5351 36.8463C32.1868 37.1683 31.7054 37.676 31.3673 38.0808C30.8652 38.682 32.9109 37.3676 33.6301 36.8281C33.8106 36.6928 33.9884 36.5594 33.9911 36.5796C34.0893 37.3161 32.5607 37.8983 31.7499 38.6647C30.9352 39.4346 29.9531 40.4143 29.5934 41.1336C29.2338 41.8528 28.9644 42.3916 28.9186 42.6832C28.8765 42.9516 29.7672 42.8872 30.5295 42.8428C31.4157 42.7911 31.9681 41.9471 32.7095 41.3632C33.597 40.6643 34.1689 40.0614 34.8201 39.4775C35.573 38.8025 36.0546 37.8632 36.6614 36.7628C37.0673 36.0267 37.3126 35.2583 37.6722 34.4272C37.7606 34.223 37.8514 34.0461 37.8083 33.9323C37.7652 33.8184 37.5874 33.774 37.4291 33.8178C36.7269 34.012 35.928 34.935 35.0053 35.6119C34.802 35.7472 34.6242 35.8806 34.4437 36.0159C34.2632 36.1513 34.0854 36.2847 33.7675 36.422" stroke="#33231F" stroke-width="2" stroke-linecap="round"/>
</g>
<g clip-path="url(#clip1_76_130)">
<path d="M12.2619 82.9476C12.4317 82.9476 12.5566 83.0153 12.6367 83.1475C12.7168 83.2796 12.7552 83.4504 12.7552 83.6631C12.7552 83.8887 12.7071 84.1369 12.6078 84.4077C12.5085 84.6784 12.3676 84.9266 12.185 85.149C11.9992 85.3617 11.8006 85.5357 11.5827 85.6743C11.3649 85.8129 11.1343 85.9354 10.8844 86.0417C10.5032 86.2126 10.0964 86.3318 9.6639 86.3995C9.23144 86.4672 8.80539 86.4736 8.38253 86.4188C7.76427 86.3511 7.21649 86.1642 6.73918 85.8548C6.25867 85.5454 5.84222 85.1393 5.48985 84.6365C5.14708 84.1756 4.90683 83.6599 4.75947 83.0927C4.61532 82.5254 4.52882 81.9582 4.5032 81.3909C4.47757 80.7044 4.57367 79.9792 4.7883 79.2121C5.00613 78.445 5.32007 77.7231 5.73331 77.043C6.14655 76.363 6.64628 75.7635 7.2293 75.2413C7.81233 74.7192 8.46582 74.3518 9.18659 74.1423C9.58061 74.023 9.93619 73.965 10.2501 73.965C10.6185 73.965 10.9421 74.0359 11.224 74.1745C11.5059 74.3131 11.7365 74.4936 11.9127 74.7192C12.0889 74.9448 12.2234 75.2027 12.3163 75.4927C12.4092 75.7828 12.4541 76.0858 12.4541 76.4049C12.4541 76.7884 12.3868 77.1687 12.2555 77.5426C12.1241 77.9165 11.9255 78.2517 11.666 78.5417C11.4034 78.8318 11.0734 79.0606 10.6826 79.225C10.2886 79.3894 9.83048 79.4539 9.30512 79.412C9.14815 79.3991 9.0104 79.3443 8.89188 79.254C8.77335 79.1606 8.68366 79.051 8.62599 78.9253C8.56513 78.7996 8.54591 78.6707 8.56513 78.5385C8.58435 78.4064 8.66123 78.3 8.79257 78.2227C8.98798 78.1163 9.18659 78.0679 9.382 78.0744C9.58061 78.0808 9.76961 78.0454 9.95221 77.9648C10.2661 77.8198 10.4936 77.6199 10.6313 77.3718C10.7691 77.1236 10.8396 76.869 10.8396 76.6176C10.8396 76.3533 10.7787 76.1309 10.6538 75.9536C10.5288 75.7731 10.3687 75.699 10.1732 75.7248C9.55819 75.7925 9.02962 75.9826 8.58435 76.2985C8.13907 76.6144 7.76748 77.0108 7.46636 77.4878C7.16524 77.9648 6.9442 78.4869 6.80005 79.0542C6.65589 79.6215 6.58542 80.1887 6.58542 80.756C6.58542 81.2459 6.63667 81.71 6.74238 82.1515C6.8481 82.5931 7.00186 82.9831 7.20368 83.3215C7.40549 83.6599 7.66177 83.9306 7.96929 84.1337C8.27682 84.34 8.6324 84.4399 9.03603 84.4399C9.33715 84.4399 9.6639 84.3754 10.0163 84.2433C10.3687 84.1111 10.7499 83.8984 11.1535 83.6083L11.2336 83.5503C11.6404 83.1539 11.9832 82.9541 12.2587 82.9541L12.2619 82.9476Z" fill="#33231F"/>
<path d="M20.2736 79.7214C20.1423 80.4208 20.075 81.075 20.075 81.681C20.075 82.1967 20.1263 82.6962 20.2224 83.1765C20.3217 83.6599 20.469 84.1692 20.6644 84.7106C20.7701 85.0136 20.7285 85.2682 20.5363 85.4745C20.3441 85.6808 20.0269 85.7936 19.5817 85.8226C19.319 85.8355 19.114 85.7549 18.9698 85.5841C18.8257 85.4133 18.72 85.1973 18.6559 84.9395C18.5886 84.6816 18.5438 84.4109 18.5181 84.1273C18.4925 83.8436 18.4701 83.5955 18.4573 83.3827C18.39 83.5826 18.2651 83.8082 18.0825 84.066C17.8967 84.3239 17.6788 84.5688 17.4226 84.7977C17.1663 85.0297 16.8876 85.2231 16.5865 85.381C16.2854 85.5389 15.9874 85.6131 15.6991 85.6002C15.3724 85.5873 15.052 85.5164 14.7445 85.3907C14.437 85.265 14.1711 85.0587 13.9469 84.7654C13.7226 84.4753 13.5689 84.1498 13.4824 83.7856C13.3959 83.4214 13.367 83.0572 13.3927 82.6866C13.4439 81.9872 13.6361 81.3297 13.9629 80.7141C14.2896 80.1017 14.7029 79.6215 15.2026 79.2798C15.571 79.0413 15.965 78.9221 16.3847 78.9221C16.7274 78.9221 17.0478 79.0091 17.3489 79.1799C17.65 79.3507 17.9127 79.6086 18.1369 79.9534C18.1626 79.8471 18.185 79.7472 18.2074 79.6569C18.2266 79.5634 18.2555 79.4764 18.2971 79.3991C18.4028 79.0542 18.5598 78.7996 18.7712 78.6255C18.9826 78.4515 19.2389 78.4128 19.54 78.5063C19.7643 78.574 19.9405 78.7255 20.0718 78.9607C20.2031 79.1992 20.2704 79.4506 20.2704 79.7149L20.2736 79.7214ZM18.0889 81.349C18.1017 81.1879 18.0536 81.0718 17.9415 81.0009C17.8294 80.9268 17.682 80.8913 17.4995 80.8913C17.3008 80.8913 17.0894 80.9332 16.8588 81.0106C16.6281 81.0912 16.4135 81.204 16.2085 81.349C16.0035 81.4973 15.8337 81.6649 15.6959 81.8582C15.5582 82.0516 15.4877 82.2676 15.4877 82.5061C15.4877 82.5995 15.4973 82.6962 15.5165 82.7961C15.5358 82.8961 15.5774 82.9992 15.6447 83.1056C15.6959 83.199 15.7792 83.2796 15.8913 83.3473C16.0035 83.415 16.138 83.4472 16.295 83.4472C16.4263 83.4472 16.5705 83.415 16.7274 83.3473C16.8844 83.2796 17.0414 83.1668 17.2015 83.0089C17.3617 82.8509 17.5123 82.635 17.666 82.3707C17.8166 82.1032 17.9575 81.7648 18.0889 81.3522V81.349Z" fill="#33231F"/>
<path d="M24.2107 82.809C24.2363 83.112 24.2619 83.4569 24.2908 83.8404C24.3164 84.2239 24.3292 84.6268 24.3292 85.049C24.3292 85.3939 24.31 85.7323 24.2684 86.0707C24.2267 86.4092 24.1562 86.7282 24.0505 87.0312C23.9448 87.3342 23.7942 87.6081 23.602 87.8531C23.4098 88.098 23.1664 88.2914 22.8749 88.4365C22.7692 88.5041 22.6122 88.5203 22.4072 88.4848C22.2022 88.4493 22.0003 88.3849 21.8049 88.285C21.6063 88.1851 21.4461 88.0529 21.3212 87.8885C21.1963 87.7242 21.1674 87.5276 21.2315 87.3052C21.2988 87.1182 21.3821 86.9474 21.4878 86.7895C21.4878 86.7766 21.5006 86.7573 21.5262 86.7282C21.8017 86.3995 21.9907 86.045 22.0868 85.6679C22.1829 85.2908 22.2342 84.8976 22.2342 84.4882C22.2342 84.1982 22.2182 83.9016 22.1861 83.5955C22.1541 83.2925 22.1221 82.9895 22.0964 82.6833C21.8594 82.6576 21.6544 82.5995 21.475 82.5157C21.2956 82.4319 21.1899 82.2611 21.1514 82.0097C21.1258 81.8518 21.1354 81.7293 21.1803 81.6423C21.2283 81.5553 21.2892 81.4908 21.3693 81.4425C21.4493 81.3941 21.5422 81.3587 21.6544 81.3329C21.7665 81.3071 21.8818 81.2781 22.0003 81.2523C21.9747 80.988 21.9683 80.7044 21.9811 80.4014C21.9939 80.0985 22.0292 79.7891 22.09 79.4796C22.1509 79.1702 22.2374 78.864 22.3495 78.5675C22.4616 78.271 22.6058 77.997 22.7788 77.7456C23.0703 77.3621 23.4162 77.072 23.8199 76.8754C24.2235 76.6756 24.6752 76.6305 25.1717 76.7368C25.3287 76.7626 25.4472 76.8529 25.5273 77.0044C25.6074 77.1558 25.6458 77.317 25.6458 77.491C25.6458 77.6747 25.601 77.8456 25.5177 77.997C25.4312 78.1485 25.3031 78.213 25.1333 78.184C24.845 78.1453 24.6239 78.2388 24.4734 78.4612C24.3228 78.6868 24.2139 78.9607 24.1466 79.283C24.0794 79.6086 24.0441 79.9373 24.0377 80.2725C24.0313 80.6077 24.0281 80.8752 24.0281 81.075C24.2523 81.0493 24.4734 81.0331 24.688 81.0267C24.9026 81.0203 25.1237 81.0299 25.3479 81.0557C25.5305 81.0944 25.6747 81.1911 25.7708 81.3426C25.8701 81.494 25.9181 81.6616 25.9181 81.8486C25.9181 82.0355 25.8669 82.2031 25.7708 82.3546C25.6715 82.5061 25.5241 82.6157 25.3287 82.6833C25.1429 82.751 24.9571 82.7833 24.7681 82.7833C24.5791 82.7833 24.3901 82.7897 24.2075 82.8026L24.2107 82.809Z" fill="#33231F"/>
<path d="M31.9661 82.5738C32.1487 82.548 32.328 82.5576 32.4978 82.6028C32.6676 82.6511 32.7605 82.7704 32.7733 82.9702C32.7733 83.2474 32.706 83.5149 32.5747 83.7727C32.4434 84.0306 32.28 84.2691 32.0814 84.485C31.886 84.7042 31.6681 84.8943 31.4311 85.0587C31.194 85.2231 30.9666 85.3456 30.7424 85.4261C30.3099 85.597 29.8902 85.684 29.4834 85.684C29.0381 85.684 28.6313 85.5873 28.2629 85.3971C27.8945 85.207 27.5774 84.9524 27.3083 84.6333C27.0392 84.3174 26.831 83.9532 26.6868 83.5439C26.5427 83.1346 26.469 82.7059 26.469 82.2547C26.469 81.7648 26.5683 81.2716 26.7637 80.7689C26.9207 80.3853 27.1417 80.0405 27.4236 79.7278C27.7055 79.4152 28.0162 79.1509 28.359 78.9253C28.5833 78.7802 28.8267 78.6642 29.0958 78.5772C29.3649 78.4902 29.6372 78.4483 29.9127 78.4483C30.0953 78.4483 30.2779 78.4676 30.454 78.5095C30.6302 78.5514 30.8 78.6223 30.957 78.7287C31.2453 78.9124 31.4535 79.1154 31.5784 79.3314C31.7034 79.5506 31.7642 79.7762 31.7642 80.0147C31.7642 80.2403 31.7162 80.4659 31.6169 80.6979C31.5176 80.93 31.3959 81.1492 31.2517 81.3619C31.1075 81.5746 30.941 81.7744 30.7488 81.9678C30.5566 82.158 30.3772 82.3224 30.2074 82.4545C29.9831 82.6253 29.7653 82.78 29.5475 82.9186C29.3296 83.0572 29.0926 83.1797 28.8299 83.286C29.0542 83.5117 29.2624 83.6664 29.461 83.7534C29.6596 83.8404 29.8486 83.8823 30.0312 83.8823C30.2811 83.8823 30.5053 83.8211 30.7103 83.6954C30.9153 83.5697 31.0947 83.4279 31.2517 83.2699C31.4087 83.112 31.5464 82.9637 31.6649 82.8252C31.7835 82.6866 31.8828 82.6028 31.9597 82.577L31.9661 82.5738ZM30.2939 80.2757C30.0696 80.2628 29.8518 80.3144 29.634 80.424C29.4161 80.5368 29.2239 80.6851 29.0542 80.8688C28.8844 81.0525 28.7402 81.2684 28.6313 81.5134C28.5192 81.7583 28.4647 82.0065 28.4647 82.2579V82.2772L28.4839 82.2579C28.6409 82.1386 28.8171 82.0065 29.0061 81.8615C29.1983 81.7164 29.3777 81.5617 29.5475 81.3941C29.7173 81.2265 29.8742 81.0525 30.012 80.8688C30.1497 80.6851 30.2458 80.4852 30.2971 80.2725L30.2939 80.2757Z" fill="#33231F"/>
<path d="M50.2736 86.2964C50.4979 86.3769 50.6549 86.4898 50.7445 86.6445C50.8374 86.7959 50.8823 86.9635 50.8823 87.1505C50.8823 87.4148 50.7926 87.6758 50.6164 87.9337C50.4402 88.1915 50.2064 88.3527 49.9181 88.4203C49.5753 88.5138 49.2261 88.5074 48.8641 88.401C48.5022 88.2947 48.1722 88.1238 47.8711 87.8853C47.5828 87.6597 47.3393 87.3954 47.1439 87.0925C46.9453 86.7895 46.7819 86.4607 46.6506 86.1127C46.5192 85.7613 46.4135 85.4004 46.3334 85.0233C46.2534 84.6462 46.1893 84.2755 46.138 83.9049L46.0579 83.1313C45.8625 83.1861 45.6639 83.2248 45.4685 83.2506C45.2731 83.2764 45.0745 83.3054 44.8791 83.3312H44.6036L44.4851 84.7171L44.3858 85.6679C44.3601 85.9064 44.3185 86.1481 44.2672 86.3898C44.2128 86.6348 44.0911 86.8411 43.8924 87.0151C43.6682 87.2149 43.4311 87.3116 43.1845 87.3116C42.8417 87.3116 42.5598 87.1473 42.3388 86.8153C42.2459 86.696 42.185 86.5445 42.153 86.3576C42.121 86.1739 42.1049 85.9676 42.1049 85.742C42.1049 85.4777 42.1242 85.1941 42.1626 84.8911C42.201 84.5882 42.2491 84.2884 42.3003 83.9983C42.3548 83.7083 42.4093 83.4343 42.4669 83.1765C42.5278 82.9186 42.5694 82.6962 42.5951 82.5125V82.4706C42.3836 82.2611 42.2459 82.0033 42.1818 81.6971C42.1562 81.4715 42.1658 81.2684 42.2106 81.0815C42.2555 80.8978 42.3708 80.7302 42.5566 80.5852C42.688 80.4917 42.8001 80.4401 42.893 80.4272C42.9314 80.15 42.9795 79.8729 43.0307 79.5957C43.082 79.3185 43.1492 79.0478 43.2261 78.7835C43.2806 78.5998 43.3639 78.4676 43.4824 78.387C43.6009 78.3065 43.7323 78.2678 43.8764 78.2678C44.0622 78.2678 44.2352 78.3323 44.3986 78.4579C44.562 78.5836 44.6581 78.7577 44.6837 78.9833C44.751 79.6054 44.7702 80.2306 44.7445 80.8656H44.7638C45.6031 80.8656 46.2598 80.6013 46.7339 80.0727C47.208 79.5441 47.4098 78.8447 47.3457 77.9745C47.2913 77.3524 47.1055 76.869 46.7851 76.5177C46.4648 76.1664 46.074 75.9214 45.6127 75.7764C45.3372 75.6958 45.0553 75.6571 44.767 75.6571C44.4402 75.6571 44.1135 75.7087 43.7931 75.8054C43.4696 75.9053 43.1845 76.0503 42.9378 76.2405C42.688 76.4339 42.4861 76.6692 42.3356 76.9528C42.185 77.2364 42.1081 77.5587 42.1081 77.9133C42.1081 78.2033 42.153 78.487 42.2459 78.7641C42.2587 78.7899 42.2683 78.8028 42.2747 78.8028C42.2811 78.8028 42.2843 78.8157 42.2843 78.8415C42.31 78.8673 42.3292 78.8963 42.342 78.9221C42.3548 78.9479 42.374 78.9769 42.4029 79.0026C42.4957 79.1477 42.5246 79.2927 42.4925 79.4378C42.4605 79.5828 42.39 79.7117 42.2843 79.8245C42.1786 79.9373 42.0537 80.0082 41.9095 80.0437C41.7654 80.0759 41.6276 80.0405 41.4963 79.9341C41.1023 79.6311 40.7947 79.2702 40.5705 78.8544C40.3463 78.4386 40.2405 77.9809 40.2534 77.4781C40.279 76.9754 40.4039 76.5048 40.6282 76.06C40.8524 75.6152 41.1535 75.2285 41.5347 74.8965C41.8775 74.5903 42.2459 74.3357 42.6463 74.1359C43.0467 73.936 43.4568 73.7813 43.8764 73.675C44.3089 73.5557 44.7349 73.4945 45.1578 73.4945C45.7889 73.4945 46.3847 73.6298 46.9485 73.8941C47.3938 74.1069 47.7878 74.3776 48.1306 74.7031C48.4733 75.0286 48.7616 75.3928 48.9955 75.7893C49.2293 76.1857 49.4087 76.6112 49.5272 77.0592C49.6458 77.5072 49.7034 77.9584 49.7034 78.4064C49.7034 79.1606 49.5401 79.8793 49.2101 80.5658C48.8802 81.2523 48.3644 81.826 47.6533 82.2901C47.759 82.4223 47.8551 82.6253 47.9384 82.8961C48.0248 83.1668 48.1113 83.4569 48.2042 83.7663C48.2971 84.0757 48.4029 84.3948 48.5182 84.7171C48.6367 85.0394 48.7744 85.3295 48.9314 85.5776C49.0884 85.829 49.2774 86.0224 49.492 86.161C49.7066 86.2996 49.9693 86.3415 50.2704 86.2899L50.2736 86.2964Z" fill="#33231F"/>
<path d="M53.365 78.2356C53.7046 78.2613 54.0249 78.3613 54.3196 78.5321C54.6144 78.7029 54.8802 78.9188 55.1173 79.1767C55.3543 79.4345 55.5465 79.7278 55.6971 80.0566C55.8477 80.3885 55.9566 80.7173 56.0207 81.046C56.0751 81.2974 56.1007 81.5682 56.1007 81.8582C56.1007 82.4126 55.9982 82.9412 55.7964 83.444C55.5914 83.9468 55.2871 84.3883 54.8802 84.7719C54.2908 85.3133 53.6469 85.6099 52.9518 85.6647C52.5962 85.7033 52.2566 85.6582 51.9267 85.5261C51.5999 85.3939 51.302 85.2102 51.0425 84.9717C50.5812 84.5495 50.2577 84.0048 50.0687 83.3376C49.8765 82.6705 49.822 82.0291 49.9021 81.407C49.9534 80.8913 50.0751 80.4304 50.2673 80.0211C50.4563 79.6118 50.703 79.2637 51.0041 78.9801C51.3052 78.6965 51.6576 78.487 52.058 78.3548C52.4585 78.2227 52.8941 78.184 53.3682 78.2356H53.365ZM52.8525 80.1952C52.6955 80.1952 52.5385 80.2403 52.388 80.3241C52.2374 80.4111 52.1093 80.54 52.0036 80.7108C51.8979 80.8817 51.821 81.0944 51.7761 81.3458C51.7313 81.5972 51.7345 81.8808 51.7857 82.1967C51.853 82.5673 51.9363 82.8445 52.042 83.0282C52.1477 83.2119 52.2727 83.3376 52.4168 83.4053C52.6539 83.5117 52.8941 83.4472 53.1344 83.2087C53.3746 82.9702 53.57 82.6608 53.7142 82.2772C53.7815 82.0903 53.8135 81.8744 53.8135 81.623C53.8135 81.2394 53.7174 80.9107 53.5284 80.6335C53.3394 80.3563 53.1119 80.2113 52.8493 80.1984L52.8525 80.1952Z" fill="#33231F"/>
<path d="M62.7958 84.5527C62.8759 84.7783 62.9143 84.9814 62.9143 85.1683C62.9143 85.5776 62.7894 85.9225 62.5427 86.1997C62.2961 86.4769 62.0366 86.6155 61.7611 86.6155C61.5657 86.6155 61.3895 86.5284 61.2326 86.3576C61.0756 86.1739 60.9827 86.0127 60.9507 85.8806C60.9186 85.7485 60.8834 85.5647 60.8417 85.3262C60.7649 84.7848 60.72 84.2143 60.7136 83.6148C60.7072 83.0121 60.6976 82.4416 60.6848 81.9002C60.6591 81.436 60.6175 81.1331 60.5662 80.988C60.5118 80.843 60.4349 80.8043 60.3292 80.8688C60.1434 81.0009 59.9896 81.2555 59.8647 81.6326C59.7398 82.0097 59.634 82.4255 59.5508 82.88C59.4643 83.3344 59.397 83.7856 59.3425 84.2272C59.2881 84.672 59.2368 85.0168 59.1856 85.2682C59.1471 85.4004 59.0767 85.5164 58.9773 85.6163C58.878 85.7162 58.7691 85.7904 58.6538 85.8451C58.5096 85.9128 58.3783 85.9386 58.2598 85.9257C58.1413 85.9128 58.0099 85.8709 57.8658 85.8065C57.7088 85.7259 57.5775 85.6195 57.4717 85.4809C57.366 85.3424 57.2763 85.1877 57.2059 85.0136C57.1354 84.8396 57.0777 84.6623 57.0393 84.4786C57.0008 84.2916 56.9656 84.1208 56.94 83.9629C56.8727 83.6599 56.8247 83.3473 56.7926 83.0314C56.7606 82.7124 56.7446 82.4029 56.7446 82.1C56.7318 81.465 56.7542 80.8623 56.815 80.2886C56.8759 79.7149 56.988 79.1219 57.161 78.516C57.1995 78.3967 57.2891 78.3 57.4269 78.2291C57.5646 78.1582 57.712 78.1195 57.869 78.1195C58.0131 78.1195 58.1445 78.1518 58.263 78.2195C58.3815 78.2871 58.4552 78.3967 58.4808 78.5546C58.5449 78.8995 58.5769 79.2766 58.5705 79.6827C58.5641 80.092 58.5737 80.4756 58.5993 80.8333C58.7051 80.3563 58.83 79.9728 58.9741 79.673C59.1183 79.3765 59.2785 79.1445 59.4579 78.9801C59.6372 78.8157 59.8391 78.7029 60.0697 78.6417C60.3004 78.5804 60.5502 78.545 60.8257 78.5321C61.2037 78.5321 61.5112 78.6384 61.7515 78.8479C61.9918 79.0607 62.1808 79.3217 62.3185 79.6311C62.4563 79.9406 62.5556 80.279 62.6196 80.6399C62.6837 81.0042 62.7382 81.3361 62.7766 81.6391C62.8022 81.7841 62.815 81.9227 62.815 82.0549V82.4513C62.815 82.7156 62.8086 82.9638 62.7958 83.1926C62.783 83.4247 62.7766 83.6728 62.7766 83.9371V84.2433C62.7766 84.3432 62.783 84.4464 62.7958 84.5495V84.5527Z" fill="#33231F"/>
<path d="M68.562 78.8898C68.7862 79.0091 68.9432 79.1606 69.0361 79.3443C69.129 79.5312 69.1738 79.7149 69.1738 79.8986C69.1738 80.1372 69.1002 80.3466 68.956 80.5336C68.8119 80.7205 68.6068 80.8108 68.3442 80.8108C68.1455 80.8108 67.9437 80.7592 67.7323 80.6528L67.5561 80.5948H67.4376C67.0948 80.6754 66.8257 80.872 66.6303 81.1879C66.4317 81.5037 66.2811 81.8711 66.1754 82.2869C66.0697 82.7027 66.0025 83.1249 65.9672 83.5536C65.932 83.9822 65.9192 84.3497 65.9192 84.6526C65.9192 84.9556 65.8199 85.2038 65.6244 85.3939C65.429 85.5873 65.1856 85.6937 64.8973 85.7227C64.609 85.7356 64.3623 85.6292 64.1573 85.4068C63.9523 85.1812 63.853 84.9298 63.853 84.6526C63.8401 84.5849 63.8337 84.5205 63.8337 84.4528V82.996C63.8337 82.5802 63.8401 82.1612 63.853 81.739C63.853 81.2491 63.8722 80.756 63.9138 80.2532C63.9266 79.9889 63.9491 79.7311 63.9843 79.4797C64.0163 79.2283 64.0612 78.9704 64.1124 78.7061C64.1381 78.5353 64.2278 78.4032 64.3783 78.3097C64.5289 78.2162 64.6762 78.1647 64.8204 78.1518C64.9005 78.1518 64.9902 78.1614 65.0959 78.1808C65.2016 78.2001 65.3073 78.2323 65.4098 78.2807C65.5155 78.3258 65.602 78.3838 65.6757 78.4483C65.7494 78.516 65.791 78.5869 65.8038 78.6674C65.8167 78.7351 65.8199 78.8608 65.8134 79.0445C65.807 79.2283 65.7942 79.4249 65.775 79.6279C65.7558 79.8342 65.7302 80.0211 65.7045 80.1919C65.6789 80.3628 65.6565 80.4756 65.6437 80.5304C65.9448 79.8696 66.2844 79.4023 66.6592 79.1251C67.034 78.8479 67.4088 78.7093 67.79 78.7093C68.0398 78.7093 68.2961 78.7706 68.5588 78.8866L68.562 78.8898Z" fill="#33231F"/>
<path d="M72.9539 78.2356C73.2934 78.2613 73.6138 78.3613 73.9085 78.5321C74.2032 78.7029 74.4691 78.9188 74.7062 79.1767C74.9432 79.4345 75.1354 79.7278 75.286 80.0566C75.4365 80.3885 75.5454 80.7173 75.6095 81.046C75.664 81.2974 75.6896 81.5682 75.6896 81.8582C75.6896 82.4126 75.5871 82.9412 75.3853 83.444C75.1803 83.9468 74.8759 84.3883 74.4691 84.7719C73.8797 85.3133 73.2358 85.6099 72.5406 85.6647C72.1851 85.7033 71.8455 85.6582 71.5155 85.5261C71.1888 85.3939 70.8909 85.2102 70.6314 84.9717C70.1701 84.5495 69.8466 84.0048 69.6576 83.3376C69.4654 82.6705 69.4109 82.0291 69.491 81.407C69.5422 80.8913 69.664 80.4304 69.8562 80.0211C70.0452 79.6118 70.2918 79.2637 70.593 78.9801C70.8941 78.6965 71.2465 78.487 71.6469 78.3548C72.0473 78.2227 72.483 78.184 72.9571 78.2356H72.9539ZM72.4413 80.1952C72.2844 80.1952 72.1274 80.2403 71.9768 80.3241C71.8263 80.4111 71.6981 80.54 71.5924 80.7108C71.4867 80.8817 71.4098 81.0944 71.365 81.3458C71.3201 81.5972 71.3233 81.8808 71.3746 82.1967C71.4419 82.5673 71.5252 82.8445 71.6309 83.0282C71.7366 83.2119 71.8615 83.3376 72.0057 83.4053C72.2427 83.5117 72.483 83.4472 72.7232 83.2087C72.9635 82.9702 73.1589 82.6608 73.3031 82.2772C73.3703 82.0903 73.4024 81.8744 73.4024 81.623C73.4024 81.2394 73.3063 80.9107 73.1173 80.6335C72.9283 80.3563 72.7008 80.2113 72.4381 80.1984L72.4413 80.1952Z" fill="#33231F"/>
<path d="M82.3815 84.5527C82.4616 84.7783 82.5 84.9814 82.5 85.1683C82.5 85.5776 82.3751 85.9225 82.1284 86.1997C81.8818 86.4769 81.6223 86.6155 81.3468 86.6155C81.1514 86.6155 80.9752 86.5284 80.8182 86.3576C80.6613 86.1739 80.5684 86.0127 80.5363 85.8806C80.5043 85.7485 80.4691 85.5647 80.4274 85.3262C80.3505 84.7848 80.3057 84.2143 80.2993 83.6148C80.2929 83.0121 80.2833 82.4416 80.2705 81.9002C80.2448 81.436 80.2032 81.1331 80.1519 80.988C80.0975 80.843 80.0206 80.8043 79.9149 80.8688C79.7291 81.0009 79.5753 81.2555 79.4504 81.6326C79.3255 82.0097 79.2197 82.4255 79.1365 82.88C79.05 83.3344 78.9827 83.7856 78.9282 84.2272C78.8738 84.672 78.8225 85.0168 78.7713 85.2682C78.7328 85.4004 78.6623 85.5164 78.563 85.6163C78.4637 85.7162 78.3548 85.7904 78.2395 85.8451C78.0953 85.9128 77.964 85.9386 77.8455 85.9257C77.727 85.9128 77.5956 85.8709 77.4515 85.8065C77.2945 85.7259 77.1631 85.6195 77.0574 85.4809C76.9517 85.3424 76.862 85.1877 76.7916 85.0136C76.7211 84.8396 76.6634 84.6623 76.625 84.4786C76.5865 84.2916 76.5513 84.1208 76.5257 83.9629C76.4584 83.6599 76.4103 83.3473 76.3783 83.0314C76.3463 82.7124 76.3303 82.4029 76.3303 82.1C76.3174 81.465 76.3399 80.8623 76.4007 80.2886C76.4616 79.7149 76.5737 79.1219 76.7467 78.516C76.7851 78.3967 76.8748 78.3 77.0126 78.2291C77.1503 78.1582 77.2977 78.1195 77.4547 78.1195C77.5988 78.1195 77.7302 78.1518 77.8487 78.2195C77.9672 78.2871 78.0409 78.3967 78.0665 78.5546C78.1306 78.8995 78.1626 79.2766 78.1562 79.6827C78.1498 80.092 78.1594 80.4756 78.185 80.8333C78.2908 80.3563 78.4157 79.9728 78.5598 79.673C78.704 79.3765 78.8642 79.1445 79.0436 78.9801C79.2229 78.8157 79.4248 78.7029 79.6554 78.6417C79.8861 78.5804 80.1359 78.545 80.4114 78.5321C80.7894 78.5321 81.0969 78.6384 81.3372 78.8479C81.5775 79.0607 81.7665 79.3217 81.9042 79.6311C82.042 79.9406 82.1413 80.279 82.2053 80.6399C82.2694 81.0042 82.3238 81.3361 82.3623 81.6391C82.3879 81.7841 82.4007 81.9227 82.4007 82.0549V82.4513C82.4007 82.7156 82.3943 82.9638 82.3815 83.1926C82.3687 83.4247 82.3623 83.6728 82.3623 83.9371V84.2433C82.3623 84.3432 82.3687 84.4464 82.3815 84.5495V84.5527Z" fill="#33231F"/>
<path d="M28.4807 77.7263C28.391 77.7134 28.3045 77.7038 28.2148 77.6844C28.1796 77.678 28.1476 77.6586 28.1187 77.6425C28.029 77.5877 28.0066 77.52 28.0483 77.4201C28.0835 77.3363 28.1444 77.2719 28.2213 77.2235C28.3077 77.1687 28.3942 77.1204 28.4839 77.0753C28.7434 76.9496 28.9741 76.7916 29.1823 76.5918C29.6756 76.1148 29.9831 75.554 30.1337 74.8836C30.1561 74.7869 30.2298 74.5355 30.3099 74.3486C30.4348 74.065 30.7231 73.8845 31.0242 73.8265C31.1908 73.7942 31.5656 73.8426 31.7354 73.9779C31.8059 74.0359 31.8571 74.0875 31.902 74.2293C31.934 74.3292 31.9116 74.4421 31.8892 74.5452C31.7578 75.1672 31.4791 75.7184 31.0819 76.2115C30.6751 76.7175 30.1689 77.0946 29.5987 77.3944C29.4065 77.4943 29.2111 77.5974 28.9997 77.6522C28.8299 77.6941 28.6601 77.7199 28.4839 77.7295L28.4807 77.7263Z" fill="#33231F"/>
</g>
<defs>
<clipPath id="clip0_76_130">
<rect width="64.9995" height="68.0018" fill="white" transform="translate(11.0002 3.49908)"/>
</clipPath>
<clipPath id="clip1_76_130">
<rect width="78" height="15" fill="white" transform="translate(4.5 73.5009)"/>
</clipPath>
</defs>
</svg>
