<?xml version="1.0" encoding="UTF-8" standalone="no"?>
<svg
   version="1.2"
   viewBox="0 0 1000 1000"
   width="1000"
   height="1000"
   id="svg91"
   sodipodi:docname="tasse.svg"
   inkscape:version="1.3 (003919af9c, 2023-07-16)"
   xmlns:inkscape="http://www.inkscape.org/namespaces/inkscape"
   xmlns:sodipodi="http://sodipodi.sourceforge.net/DTD/sodipodi-0.dtd"
   xmlns="http://www.w3.org/2000/svg"
   xmlns:svg="http://www.w3.org/2000/svg">
  <defs
     id="defs91" />
  <sodipodi:namedview
     id="namedview91"
     pagecolor="#ffffff"
     bordercolor="#000000"
     borderopacity="0.25"
     inkscape:showpageshadow="2"
     inkscape:pageopacity="0.0"
     inkscape:pagecheckerboard="0"
     inkscape:deskcolor="#d1d1d1"
     inkscape:zoom="1.1807854"
     inkscape:cx="486.96402"
     inkscape:cy="464.52133"
     inkscape:window-width="1680"
     inkscape:window-height="981"
     inkscape:window-x="173"
     inkscape:window-y="1420"
     inkscape:window-maximized="0"
     inkscape:current-layer="OBJECTS" />
  <style
     id="style1">&#10;		.s0 { opacity: .24;mix-blend-mode: multiply;fill: #645f54 } &#10;		.s1 { fill: #f1e9d7 } &#10;		.s2 { fill: #e6dbc2 } &#10;		.s3 { fill: #fff6e5 } &#10;		.s4 { fill: #d4cab3 } &#10;		.s5 { fill: #cb8d42 } &#10;		.s6 { fill: #bc7c3f } &#10;		.s7 { fill: #b56e35 } &#10;		.s8 { fill: #ffffff } &#10;		.s9 { fill: #feffe0 } &#10;		.s10 { fill: #db9f55 } &#10;		.s11 { fill: #915524 } &#10;	</style>
  <g
     id="OBJECTS">
    <g
       id="cup_shadow"
       inkscape:label="cup_shadow"
       style="display:inline">
      <path
         id="coffee-shadow"
         class="s0"
         d="m 767.46,499.8 c 0,177.22 -151.28,320.89 -337.89,320.89 -186.61,0 -337.89,-143.67 -337.89,-320.89 0,-177.23 151.28,-320.89 337.89,-320.89 186.61,0 337.89,143.66 337.89,320.89 z"
         inkscape:label="coffee-shadow">
        <title
           id="title91">coffee-shadow</title>
      </path>
    </g>
    <g
       id="&lt;Group&gt;"
       inkscape:label="coffee_cup">
      <path
         id="path1"
         class="s1"
         d="M 830.17,503.16 C 830.17,685.88 682.05,834 499.33,834 316.62,834 168.49,685.88 168.49,503.16 c 0,-182.72 148.13,-330.84 330.84,-330.84 182.72,0 330.84,148.12 330.84,330.84 z"
         style="display:inline" />
      <path
         id="path2"
         class="s2"
         d="m 810.89,499.8 c 0,171.67 -139.17,310.84 -310.85,310.84 -171.67,0 -310.84,-139.17 -310.84,-310.84 0,-171.68 139.17,-310.85 310.84,-310.85 171.68,0 310.85,139.17 310.85,310.85 z"
         style="display:inline" />
      <path
         id="path3"
         class="s3"
         d="m 810.89,490.32 v 28.64 c 0,11.56 -9.46,21.01 -21.02,21.01 h -70.81 c -11.56,0 -21.01,-9.45 -21.01,-21.01 v -28.64 c 0,-11.56 9.45,-21.01 21.01,-21.01 h 70.81 c 11.56,0 21.02,9.45 21.02,21.01 z"
         style="display:inline" />
      <path
         id="path4"
         class="s4"
         d="m 762.98,499.8 c 0,13.64 -1.04,27.08 -3.04,40.17 h -40.88 c -11.56,0 -21.01,-9.45 -21.01,-21.01 v -28.64 c 0,-11.56 9.45,-21.01 21.01,-21.01 h 42.16 q 1.76,15.02 1.76,30.49 z"
         style="display:inline" />
      <path
         id="path5"
         class="s4"
         d="m 704.43,499.8 c 0,136.39 -115.34,246.97 -257.61,246.97 -142.28,0 -257.62,-110.58 -257.62,-246.97 0,-136.4 115.34,-246.98 257.62,-246.98 142.27,0 257.61,110.58 257.61,246.98 z"
         style="display:inline" />
      <path
         id="path6"
         class="s3"
         d="m 747.01,499.8 c 0,136.39 -110.57,246.97 -246.97,246.97 -136.4,0 -246.97,-110.58 -246.97,-246.97 0,-136.4 110.57,-246.98 246.97,-246.98 136.4,0 246.97,110.58 246.97,246.98 z"
         style="display:inline" />
      <path
         id="path7"
         class="s2"
         d="m 732.95,499.8 c 0,128.63 -104.28,232.9 -232.91,232.9 -128.63,0 -232.9,-104.27 -232.9,-232.9 0,-128.63 104.27,-232.91 232.9,-232.91 128.63,0 232.91,104.28 232.91,232.91 z"
         style="display:inline" />
      <path
         id="path8"
         class="s4"
         d="m 500.04,266.89 c -9.49,0 -18.84,0.58 -28.03,1.69 115.41,13.84 204.87,112.08 204.87,231.22 0,119.14 -89.46,217.37 -204.87,231.22 9.19,1.1 18.54,1.68 28.03,1.68 128.63,0 232.91,-104.27 232.91,-232.9 0,-128.63 -104.28,-232.91 -232.91,-232.91 z"
         style="display:inline" />
    </g>
    <g
       id="pattern"
       inkscape:label="pattern">
      <path
         id="path11"
         class="s7"
         d="m 500.04,310.21 c -3.71,0 -7.38,0.14 -11.04,0.35 99.4,5.9 178.19,88.36 178.19,189.24 0,100.87 -78.79,183.33 -178.19,189.23 3.66,0.22 7.33,0.35 11.04,0.35 15.44,0 30.87,-1.86 45.85,-5.58 6.79,-1.68 13.58,-5.12 20.31,-6.5 15.46,-3.17 29.1,-11.59 42.69,-19.21 12.93,-7.25 17.96,-18.3 28.86,-27.97 11.29,-10.02 20.42,-24.64 27.75,-37.68 15.82,-28.21 24.13,-60.31 24.13,-92.64 0,-30.3 -7.28,-60.43 -21.26,-87.32 -6.86,-13.19 -15.27,-25.56 -25,-36.79 -12.58,-14.51 -26.79,-32.38 -43.7,-41.86 -16.77,-9.41 -35.94,-14.52 -54.69,-18.26 -14.69,-3.58 -29.81,-5.36 -44.94,-5.36 z"
         style="display:inline" />
      <path
         id="path12"
         class="s8"
         d="m493.97 647.32c11.24 2.05 22.33 7.51 28.78 16.95-20.18-13.61-47.47-7.02-67.42-21.27 13.04 3.29 25.72 1.97 38.64 4.32z" />
      <path
         id="path9"
         class="s5"
         d="m 689.64,499.8 c 0,67.64 -35.41,126.99 -88.72,160.53 -29.21,18.41 -63.81,29.06 -100.88,29.06 -104.7,0 -189.59,-84.89 -189.59,-189.59 0,-37.58 10.94,-72.61 29.79,-102.07 33.68,-52.63 92.67,-87.53 159.8,-87.53 104.71,0 189.6,84.89 189.6,189.6 z"
         style="display:inline" />
      <path
         id="path13"
         class="s8"
         d="m585.25 627.02c-7.62 7.29-13.03 16.05-21.6 22.69-8.86 6.87-19.15 11.45-28.86 17.03 2.33-12.5 12.12-17.71 22.67-23.11 9.65-4.93 19.93-9.15 27.79-16.61z" />
      <path
         id="path10"
         class="s6"
         d="m 500.04,310.21 c -9.37,0 -18.59,0.69 -27.6,2.01 91.62,13.36 161.98,92.25 161.98,187.58 0,95.33 -70.36,174.21 -161.98,187.58 9.01,1.31 18.23,2 27.6,2 104.71,0 189.59,-84.88 189.59,-189.58 0,-104.71 -84.88,-189.59 -189.59,-189.59 z"
         style="display:inline" />
      <path
         id="path14"
         class="s9"
         d="m 511.07,392.07 c -2.32,10.44 -11.72,20.9 -17.35,29.77 1.78,-8.52 5.07,-16.73 9.67,-24.12 0.51,-0.83 1.06,-1.69 1.18,-2.66 0.12,-0.98 -0.33,-2.1 -1.26,-2.4 -0.69,-0.23 -1.43,0.03 -2.09,0.32 -7.34,3.23 -12.64,10.67 -13.29,18.65 -3.31,-7.44 -7.4,-14.54 -12.19,-21.13 -1,-1.37 -2.66,-2.89 -4.16,-2.08 -0.95,0.52 -1.24,1.74 -1.29,2.83 -0.28,6.48 4.32,12.06 8.94,16.62 4.62,4.55 9.79,9.22 11.21,15.55 -6.79,-6.79 -11.58,-11.39 -20.22,-14.99 -8.35,-3.48 -15.07,-10.53 -17.76,-19.21 -1.22,-3.93 -1.6,-8.26 -0.17,-12.13 1.42,-3.87 4.9,-7.14 9.01,-7.52 4.72,-0.45 8.98,2.77 12.2,6.23 5.95,6.37 10.31,14.19 12.58,22.59 0.68,-6.77 4.68,-13.13 10.51,-16.68 3.07,-1.88 7.03,-2.97 10.25,-1.37 4.03,1.99 5.2,7.35 4.23,11.73 z" />
      <path
         id="path15"
         class="s9"
         d="m 513.75,420.69 c -3.4,2.35 -7.35,5.47 -9.43,9.11 -1.08,1.89 -5.1,7.57 -5.12,9.3 0.04,-8.52 4.29,-13.18 8.87,-19.88 q 4.5,-6.58 9.47,-12.83 c 1.48,-1.86 9.96,-9.54 9.82,-11.54 0.64,8.84 1.27,17.81 -0.5,26.5 -1.78,8.68 -6.3,17.2 -13.88,21.85 -4.94,3.03 -11.61,5.07 -13.01,10.67 0.35,-5.76 4.28,-10.65 8.42,-14.69 4.15,-4.03 8.82,-7.77 11.45,-12.92 1.13,-2.23 1.55,-5.51 -0.64,-6.74 -1.71,-0.96 -3.83,0.06 -5.45,1.17 z" />
      <path
         id="path16"
         class="s9"
         d="m 522.58,462.39 c 4.03,-0.77 6.92,-0.99 10.02,-3.79 -3.47,7.37 -8.07,11.69 -14.08,17.19 -6.31,5.78 -12.62,13.11 -12.03,21.62 1.37,-6.31 7.19,-10.59 12.85,-13.76 5.65,-3.17 11.88,-6.11 15.33,-11.59 2.53,-4.02 3.21,-8.89 3.75,-13.61 q 1.22,-10.63 1.89,-21.32 c -1.62,6.14 -6.69,10.79 -12.09,14.16 -11.92,7.45 -25.18,12.15 -24.45,28.68 -0.07,-1.58 4.63,-8.89 5.92,-10.7 2.67,-3.76 8.53,-6.04 12.89,-6.88 z" />
      <path
         id="path17"
         class="s9"
         d="m 535.77,501.06 c -0.52,6.75 -6.21,11.79 -11.38,16.19 -5.18,4.39 -10.68,9.79 -10.6,16.56 1.83,-5.39 6.73,-9.14 11.69,-11.97 4.96,-2.83 10.34,-5.16 14.38,-9.18 3.97,-3.95 6.32,-9.22 8.21,-14.48 3.58,-9.96 5.84,-20.39 6.7,-30.93 -2.41,7.16 -8.28,12.62 -14.48,16.97 -6.2,4.34 -12.98,7.92 -18.59,13 -5.79,5.25 -9.55,11.89 -11,19.45 0.19,-1.01 4.32,-3.9 5.24,-4.81 1.94,-1.92 3.26,-2.84 5.99,-3.78 4.87,-1.69 10.59,-2.55 13.84,-7.02 z" />
      <path
         id="path18"
         class="s9"
         d="m 551.61,519.46 c 4.09,-2.83 8.69,-6.25 12.25,-9.67 1.96,-1.89 3.28,-4.76 4.06,-7.32 0.61,-1.99 0.07,-5.25 0.86,-6.95 -1.91,4.08 -1.12,8.85 -0.18,13.25 2.9,13.53 0,27.18 -11.02,36.45 -6.54,5.5 -14.77,8.52 -22.03,13.03 -7.26,4.51 -14,11.45 -14.32,19.96 -1.93,-8.18 3.46,-16.23 9.22,-22.38 5.76,-6.15 12.5,-12.23 14.2,-20.47 -11.05,3.56 -20.68,11.32 -26.5,21.34 -1.25,-8.61 5.13,-16.93 11.69,-22.69 6.57,-5.76 14.58,-9.58 21.77,-14.55 z" />
      <path
         id="path19"
         class="s9"
         d="m 564.72,567.76 c -3.81,9.6 -13.42,15.35 -21.97,21.18 -8.55,5.83 -17.32,13.73 -17.66,24.04 9.37,-11.83 25.62,-15.62 37.6,-24.82 9.82,-7.53 16.55,-18.69 19.74,-30.61 3.2,-11.93 3.01,-24.59 0.63,-36.7 0.11,10.29 -6.54,19.59 -14.53,26.12 -8,6.53 -17.44,11.05 -25.88,17 -8.23,5.8 -15.47,14.1 -20.71,22.67 -2.44,4 -4.2,8.5 -4.38,13.17 0.12,-3.25 4.71,-8.07 6.83,-10.27 3.18,-3.3 6.24,-4.34 10.2,-6.23 10.18,-4.87 20.1,-10.37 30.13,-15.55 z" />
      <path
         id="path20"
         class="s9"
         d="m 546.59,622.63 c -6.31,3.09 -20.41,8.61 -22.41,16.42 2.2,-8.61 6.89,-14.52 14.33,-19.23 12.16,-7.71 24.75,-14.78 36.18,-23.52 11.43,-8.73 21.79,-19.34 27.9,-32.33 6.11,-12.99 7.54,-28.63 1.52,-41.65 2.94,8.28 5.54,16.74 6.46,25.47 0.93,8.73 0.11,17.8 -3.55,25.79 -4.04,8.82 -11.25,15.8 -18.73,22.02 -12.76,10.62 -26.79,19.71 -41.7,27.03 z" />
      <path
         id="path21"
         class="s9"
         d="m 586.57,616.94 c -19.39,8.46 -42.94,13.4 -52.31,34.17 1.38,-3.07 -1,-8.95 0.9,-13.04 2.33,-5.03 6.62,-6.69 11.2,-9.47 14.27,-8.64 29.63,-15.49 43.24,-25.23 15.29,-10.94 28.65,-26.8 30.1,-45.49 1.22,-15.58 -5.89,-30.41 -9.94,-45.51 -0.52,-1.96 -0.96,-4.18 0.12,-5.9 1.98,-3.18 6.95,-1.91 10.01,0.26 11.88,8.44 19.13,23.52 19.98,37.78 0.44,7.37 -0.54,14.83 -2.89,21.84 -1.14,3.39 -2.61,6.68 -4.39,9.79 -1.5,2.62 -4.89,5.54 -5.86,8.25 5.75,-16.1 6.91,-33.78 3.31,-50.47 -0.72,-3.34 -2.54,-7.26 -6.43,-7.58 1.37,0.11 1.51,18.49 1.49,20.33 -0.09,7.06 -0.8,14.11 -2.11,21.04 -2.44,12.9 -6.27,26.58 -15.38,36.39 -5.63,6.06 -13.45,9.53 -21.04,12.84 z" />
      <path
         id="path22"
         class="s9"
         d="m 640.07,580.36 c 6.35,-12.29 10.28,-26.21 8.69,-39.94 -2.26,-19.58 -15.34,-36.77 -16.96,-56.41 -0.43,-5.15 0.78,-11.52 5.69,-13.2 2.61,-0.9 5.59,-0.06 7.8,1.58 2.22,1.65 3.78,4.02 5.09,6.43 8.63,15.83 8.35,34.95 5.86,52.81 0.78,-14.81 -3.01,-29.83 -10.72,-42.5 -3.31,3.88 -1.1,9.74 0.95,14.4 4.93,11.17 8.09,23.31 8.31,35.56 0.17,9.8 -2.97,20.22 -5.88,29.6 -3.85,12.43 -10.03,23.85 -18.17,33.96 -8.16,10.14 -18.27,15.54 -30.12,20.63 3.57,-1.54 7.17,-5.42 10.04,-7.98 3.01,-2.69 6.28,-4.42 9.38,-6.96 4.55,-3.73 8.38,-8.34 11.21,-13.49 2.75,-5 6.18,-9.37 8.83,-14.49 z" />
      <path
         id="path23"
         class="s9"
         d="m 620.25,488.84 c 4.42,2.69 8.21,7.83 10.89,12.2 3.63,5.92 2.9,13.36 5.25,19.62 -2.56,-6.8 -7.74,-12.54 -14.14,-15.99 -4.8,-2.6 -11.29,-7.51 -16.98,-5.06 -3.46,1.49 -5.44,5.32 -5.79,9.06 -0.35,3.74 0.64,7.46 1.62,11.09 -2.5,-2.56 -3.27,-6.3 -3.67,-9.85 -0.45,-3.93 -0.58,-7.95 0.37,-11.79 0.96,-3.84 3.1,-7.51 6.43,-9.67 4.73,-3.06 11.22,-2.53 16.02,0.39 z" />
      <path
         id="path24"
         class="s9"
         d="m 668.95,508.33 c -3.1,-18.22 -12.44,-34.83 -16.55,-52.85 -0.86,-3.77 -1.14,-8.5 2.06,-10.7 1.98,-1.35 4.72,-1.16 6.85,-0.08 2.14,1.08 3.79,2.91 5.3,4.76 7.77,9.61 13.02,21.21 15.11,33.37 -3.56,-8.38 -10.26,-15.39 -18.5,-19.32 2.82,1.34 5.16,12.65 5.98,15.54 1.28,4.53 2.49,9.12 3.37,13.75 1.95,10.15 2.5,20.55 1.7,30.85 -1.56,20.37 -8.37,40.4 -20.02,57.27 6.66,-9.65 10.39,-23.2 12.99,-34.46 2.87,-12.48 3.87,-25.46 1.71,-38.13 z" />
      <path
         id="path25"
         class="s9"
         d="m 472.13,426.56 c 3.73,1.25 8.03,3.04 11.07,5.61 3.13,2.66 4.56,6.97 6.72,10.56 0.42,0.71 1.27,1.52 1.95,1.03 0.47,-0.34 0.39,-1.05 0.27,-1.63 -0.96,-4.43 -2.24,-6.44 -4.79,-10.13 -2.85,-3.08 -6.89,-5.72 -10.17,-8.43 q -6.15,-5.08 -12.64,-9.71 c -1.94,-1.38 -12.22,-6.42 -12.63,-8.38 1.83,8.67 3.7,17.47 7.8,25.33 4.11,7.85 10.81,14.79 19.38,17.16 5.58,1.55 12.56,1.67 15.45,6.67 -1.93,-5.44 -7.05,-9.06 -12.15,-11.79 -5.1,-2.73 -10.62,-5.04 -14.57,-9.26 -1.71,-1.83 -3.02,-4.87 -1.26,-6.65 1.38,-1.4 3.71,-1 5.57,-0.38 z" />
      <path
         id="path26"
         class="s9"
         d="m 475.17,469.07 c -4.09,0.37 -6.92,0.96 -10.68,-0.87 5.37,6.12 10.99,9 18.28,12.63 7.66,3.81 15.75,9.11 17.54,17.45 -3.06,-5.69 -9.84,-8.19 -16.15,-9.68 -6.32,-1.48 -13.11,-2.58 -17.94,-6.89 -3.55,-3.17 -5.54,-7.66 -7.36,-12.04 q -4.11,-9.89 -7.71,-19.98 c 3.25,5.46 9.41,8.52 15.53,10.28 13.51,3.86 27.55,4.71 31.42,20.79 -0.37,-1.53 -6.91,-7.26 -8.64,-8.64 -3.61,-2.88 -9.87,-3.44 -14.29,-3.05 z" />
      <path
         id="path27"
         class="s9"
         d="m 485.64,502.3 c 2.74,2.07 5.87,3.26 8.38,5.74 2.59,2.57 3.15,5.55 4.35,8.96 -4.28,-1.65 -8.49,-3.88 -13.02,-4.24 -4.26,-0.34 -8.59,-0.09 -12.18,-2.88 2.37,6.35 9.23,9.62 15.42,12.41 6.19,2.79 12.97,6.46 14.76,12.99 -3.25,-4.68 -8.99,-6.92 -14.54,-8.27 -5.55,-1.35 -11.37,-2.1 -16.36,-4.85 -4.91,-2.7 -8.62,-7.11 -11.89,-11.64 -6.19,-8.59 -11.24,-17.99 -14.98,-27.88 4.29,6.21 11.44,9.84 18.6,12.3 7.16,2.46 14.67,4.03 21.46,7.36 z" />
      <path
         id="path28"
         class="s9"
         d="m 463.04,531.94 c -4.71,-1.59 -10.08,-3.61 -14.44,-5.91 -2.41,-1.27 -4.47,-3.66 -5.93,-5.91 -1.14,-1.75 -1.52,-5.03 -2.75,-6.44 2.96,3.39 3.53,8.19 3.84,12.68 0.95,13.8 7.5,26.12 20.66,31.99 7.8,3.47 16.55,4.11 24.77,6.43 8.22,2.33 16.62,7.14 19.28,15.23 -0.4,-8.4 -7.81,-14.64 -15.05,-18.96 -7.23,-4.32 -15.39,-8.31 -19.3,-15.75 11.61,0.37 23.01,5.17 31.36,13.19 -1.17,-8.63 -9.6,-14.86 -17.5,-18.58 -7.9,-3.72 -16.66,-5.18 -24.94,-7.97 z" />
      <path
         id="path29"
         class="s9"
         d="m 463.79,581.98 c 6.31,8.18 17.14,11.05 26.97,14.29 9.82,3.23 20.43,8.41 23.61,18.22 -12.28,-8.78 -28.94,-7.93 -43,-13.46 -11.52,-4.53 -21.06,-13.39 -27.43,-23.97 -6.36,-10.58 -9.68,-22.8 -10.74,-35.09 2.73,9.92 11.69,17.01 21.18,21.08 9.49,4.07 19.82,5.8 29.57,9.19 9.51,3.3 18.77,9.28 26.17,16.07 3.45,3.16 6.38,7 7.84,11.44 -1.01,-3.09 -6.75,-6.45 -9.4,-7.98 -3.96,-2.29 -7.19,-2.44 -11.52,-3.17 -11.13,-1.87 -22.19,-4.41 -33.25,-6.62 z" />
      <path
         id="path30"
         class="s9"
         d="m 496.38,629.71 c 6.91,1.23 21.99,2.63 26.06,9.59 -4.49,-7.67 -10.62,-12.06 -19.08,-14.53 -13.81,-4.05 -27.87,-7.36 -41.27,-12.6 -13.4,-5.24 -26.28,-12.57 -35.75,-23.37 -9.46,-10.79 -15.16,-25.42 -12.97,-39.6 -0.53,8.76 -0.69,17.62 0.83,26.26 1.52,8.65 4.81,17.13 10.54,23.8 6.32,7.37 15.18,12.08 24.09,16 15.19,6.67 31.19,11.54 47.55,14.45 z" />
      <path
         id="path31"
         class="s9"
         d="m 456.38,635.29 q 20.51,2.71 41.02,5.42 c 8.61,1.13 16.45,6.71 21.94,13.27 1.43,-14.08 -10.54,-15.73 -21.1,-18.59 -16.1,-4.37 -32.76,-6.71 -48.52,-12.31 -17.73,-6.29 -34.94,-17.84 -41.51,-35.4 -5.47,-14.63 -2.74,-30.86 -3.02,-46.48 -0.04,-2.03 -0.23,-4.29 -1.74,-5.64 -2.79,-2.51 -7.21,0.09 -9.55,3.02 -9.09,11.39 -11.88,27.89 -8.76,41.83 1.61,7.2 4.61,14.1 8.81,20.18 2.04,2.95 4.35,5.71 6.92,8.2 2.17,2.1 6.24,3.97 7.92,6.31 -9.98,-13.88 -15.98,-30.56 -17.14,-47.59 -0.23,-3.4 0.45,-7.68 4.09,-9.06 -1.28,0.49 3.66,18.18 4.19,19.95 2.04,6.76 4.66,13.34 7.84,19.64 5.91,11.72 13.37,23.81 24.84,30.72 7.08,4.27 15.56,5.44 23.77,6.53 z" />
      <path
         id="path32"
         class="s9"
         d="m 394.85,614.92 c -9.5,-10.06 -17.12,-22.36 -19.39,-35.99 -3.23,-19.44 4.58,-39.57 0.72,-58.9 -1.02,-5.07 -3.94,-10.86 -9.12,-11.12 -2.76,-0.13 -5.39,1.49 -7.06,3.69 -1.68,2.19 -2.52,4.89 -3.12,7.58 -3.91,17.6 1.64,35.9 8.96,52.37 -4.84,-14.02 -5.35,-29.49 -1.44,-43.81 4.26,2.82 3.75,9.06 3.07,14.1 -1.65,12.1 -1.33,24.64 1.84,36.48 2.54,9.46 8.44,18.61 13.83,26.82 7.14,10.88 16.23,20.15 26.85,27.62 10.64,7.48 21.85,9.88 34.64,11.49 -3.85,-0.48 -8.38,-3.21 -11.85,-4.89 -3.63,-1.75 -7.25,-2.51 -10.93,-4.09 -5.41,-2.33 -10.36,-5.7 -14.5,-9.87 -4.03,-4.05 -8.54,-7.3 -12.5,-11.48 z" />
      <path
         id="path33"
         class="s9"
         d="m 388.61,521.48 c -3.5,3.81 -5.73,9.8 -7.1,14.74 -1.85,6.69 0.91,13.64 0.38,20.3 0.58,-7.25 3.97,-14.19 9.17,-19.28 3.9,-3.82 8.78,-10.33 14.92,-9.55 3.74,0.48 6.7,3.61 8.07,7.11 1.37,3.5 1.45,7.35 1.51,11.1 1.69,-3.14 1.4,-6.95 0.8,-10.47 -0.65,-3.9 -1.64,-7.81 -3.61,-11.24 -1.98,-3.43 -5.05,-6.36 -8.85,-7.51 -5.39,-1.63 -11.48,0.66 -15.29,4.8 z" />
      <path
         id="path34"
         class="s9"
         d="m 347.19,553.67 c -2.06,-18.37 2.34,-36.91 1.3,-55.37 -0.21,-3.86 -1.26,-8.48 -4.94,-9.71 -2.27,-0.75 -4.85,0.19 -6.6,1.82 -1.76,1.62 -2.84,3.84 -3.77,6.04 -4.82,11.37 -6.66,23.98 -5.31,36.24 1.1,-9.03 5.61,-17.62 12.44,-23.68 -2.33,2.07 -1.46,13.59 -1.45,16.59 0.02,4.7 0.13,9.45 0.56,14.14 0.93,10.29 3.28,20.45 6.89,30.13 7.13,19.14 19.21,36.51 35.07,49.5 -9.07,-7.43 -16.4,-19.43 -22.01,-29.53 -6.2,-11.2 -10.75,-23.4 -12.18,-36.17 z" />
      <path
         id="path35"
         class="s9"
         d="m 501.25,340.41 c 5.01,-1.02 -14.16,32.05 -14.34,32.72 -13.01,-3.98 -20.87,-9.06 -22.05,-23.86 -0.13,-1.61 -0.1,-3.39 0.93,-4.65 1.33,-1.63 3.91,-1.73 5.8,-0.78 5.36,2.67 9.59,11.6 12.71,16.38 0.42,-9.35 7.78,-17.95 16.95,-19.81 z" />
      <path
         id="path36"
         class="s9"
         d="m 394.82,381.65 c -15.33,8.42 -30.03,22.01 -37.22,38.13 -5.74,12.85 -18.12,34.2 -15.49,48.89 -7.12,-39.65 16,-80.26 50.54,-99.4 2.73,-1.51 6.26,-2.86 8.78,-1.01 2.41,1.77 2.26,5.63 0.54,8.08 -1.72,2.45 -4.52,3.86 -7.15,5.31 z" />
      <path
         id="path37"
         class="s9"
         d="m 374.2,432.75 c -7.8,7.51 -14.38,18.02 -16.08,28.82 -1.35,8.61 -5.29,23.37 -1.34,31.72 -10.67,-22.54 -3.43,-50.56 14.12,-67.59 1.38,-1.34 3.28,-2.72 5.08,-2.03 1.73,0.67 2.27,3.01 1.64,4.75 -0.64,1.74 -2.08,3.04 -3.42,4.33 z" />
      <path
         id="path38"
         class="s9"
         d="m 607.35,399.89 c 9.57,5.07 18.81,13.35 23.42,23.26 3.67,7.9 11.55,21 10.06,30.12 4.02,-24.62 -10.68,-49.54 -32.25,-61.06 -1.71,-0.91 -3.91,-1.71 -5.45,-0.55 -1.48,1.12 -1.35,3.52 -0.26,5.02 1.09,1.5 2.84,2.34 4.48,3.21 z" />
      <path
         id="path39"
         class="s9"
         d="m 576.29,356.08 c 17.06,3.86 34.94,12.86 46.32,26.36 9.06,10.76 26.86,27.86 28.39,42.7 -4.12,-40.07 -37.56,-72.71 -76.04,-81.56 -3.04,-0.7 -6.81,-1.02 -8.72,1.45 -1.83,2.37 -0.62,6.05 1.72,7.92 2.33,1.88 5.41,2.47 8.33,3.13 z" />
      <path
         id="path40"
         class="s7"
         d="m438.11 475.8c4.31 3.07 7.84 6.78 11.97 9.84 4.05 3 8.54 2.31 12.68 4.19-4.47-2.04-7.58-6.21-10.05-10.45-2.47-4.24-4.56-8.79-7.88-12.4-1.9-2.08-4.39-3.88-7.2-3.96-14.4-0.43-8 27.64-3.43 33.74 7.66 10.21 18.98 17.63 25.57 28.54-2.07-3.43-2.14-7.92-4.31-11.42-2.16-3.47-4.93-6.54-6.93-10.26-4.69-8.75-8.22-18.13-10.42-27.82z" />
      <path
         id="path41"
         class="s7"
         d="m558.92 455.21c4.3 12.61 3.71 26.82-1.63 39.03 11.86-15.72 14.25-38.04 6.01-55.92-5.38 5.44-10.42 12.56-13.61 19.53-3.37 7.39-4.57 14.39-10.55 20.5 3.64-3.72 8.39-5.71 11.6-10.17 2.94-4.07 5.56-8.64 8.18-12.97z" />
      <path
         id="path42"
         class="s7"
         d="m424.04 573.16c3.57 7.5 9.84 14.74 17.76 17.76-3.8-5.4-6.29-11.43-8.05-17.88-1.19-4.33-1.06-8.7-2.09-13.11-2.64-11.32-4.45-22.84-5.41-34.43-5.11 6.16-6.77 14.5-6.98 22.5-0.23 8.62 1.07 17.38 4.77 25.16z" />
      <path
         id="path43"
         class="s7"
         d="m452.39 657.63c9.77 1.74 19.73 2.39 29.42 4.56 9.69 2.16 19.33 6.01 26.3 13.07-8.72-4.7-18.94-5.68-28.84-5.72-9.9-0.03-19.87 0.79-29.66-0.71-17.25-2.63-32.61-12.2-46.66-22.54-8.85-6.51-15.07-14.03-18.47-24.67 1.66 5.21 8.36 12.26 12.86 15.19 4.16 2.71 9.51 3.87 13.95 6.3 12.79 7.01 26.73 11.96 41.1 14.52z" />
      <path
         id="path44"
         class="s7"
         d="m371.86 621.79c-17.49-7.1-26.19-21.59-33.87-38.14-3.36-7.25-5.92-14.86-7.61-22.67q-1.27-5.86-1.87-11.82c-0.32-3.26 0.53-8.2-0.51-11.21 10.4 30.01 22.59 60.25 43.86 83.84z" />
      <path
         id="path45"
         class="s7"
         d="m382.98 518.11c0.11-3.66 1.14-7.25 1.39-10.91 0.26-3.66-0.44-7.68-3.13-10.17-4.69-4.33-11.62-1.61-16.7 0.42-5.79 2.31-10.55 7.28-12.38 13.27 1.38-4.5 15.18-7.8 19.1-7.28 6.33 0.85 10.4 9.01 11.72 14.67z" />
      <path
         id="path46"
         class="s7"
         d="m585.41 498.07c-0.4-4.3-2.24-8.39-4.11-12.2-0.93-1.89-1.8-3.62-3.32-5.14-0.54-0.55-3.9-2.4-4-2.85 2.02 9.05 0.46 17.35 0.78 26.35 0.13 3.59 0.05 6.6-0.65 10.2-0.55 2.87-0.91 9.91-2.88 12.08 3.67-4.04 7.38-8.12 10.14-12.83 2.76-4.71 4.55-10.17 4.04-15.61z" />
      <path
         id="path47"
         class="s7"
         d="m617.57 473.27c-4.28-3.94-10.31-6.12-16.05-5.13-5.69 0.98-9 5.72-10.36 11.12-1.71 6.75-1.11 14.06 1.68 20.44-0.64-1.48 1.78-7.78 2.56-9.39 1.58-3.24 5.18-5.52 8.25-7.25 3.29-1.84 7.07-2.99 10.81-2.53 6 0.73 7.15 5.22 11.06 8.56 0.08-5.55-3.95-12.14-7.95-15.82z" />
      <path
         id="path48"
         class="s7"
         d="m441.67 431.27c1.64 5.91 5.59 12.34 10.25 16.44 4.7 4.13 11.47 2.48 15.3 5.18-11.66-8.21-20.82-26.17-19.06-40.5 0.35-2.8 0.99-5.78-0.21-8.33-1.2-2.54-5.31-3.75-6.76-1.33-1.06 9.52-2.09 19.31 0.48 28.54z" />
      <path
         id="path49"
         class="s7"
         d="m544.46 427.8c-4.94 6.56-12.11 10.58-18.8 15.16 5.06-18.17 10.19-33.56 9.02-52.77 7.15 5.68 14.88 12.4 15.66 21.5 0.5 5.85-2.11 11.62-5.88 16.11z" />
      <path
         id="path50"
         class="s7"
         d="m523 561.39c0.49-0.84 0.88-2.02 0.16-2.66-0.5-0.45-1.28-0.37-1.93-0.2-2.26 0.56-4.38 1.69-6.11 3.26-1.39 1.26-2.61 2.85-4.39 3.45-2.36 0.78-4.88-0.41-7.01-1.7-2.12-1.3-4.37-2.77-6.85-2.56 2.18-0.19 9.38 8.42 10.77 10.24 2.48 3.27 4.96 6.47 7.2 9.89 1.11-3.11 0.59-6.05 1.32-9.09 0.97-4.01 4.81-7.15 6.84-10.63z" />
      <path
         id="path51"
         class="s7"
         d="m517.63 538.45c-1.52 3.72-3.41 7.47-4.44 11.35-0.48 1.78-2.63 8.31-1.76 9.83-4.92-8.59-8.11-17.04-16.85-22.56 4.44 0.08 8.84 1.67 12.3 4.44 1.12-3.78-0.01-7.93-2.11-11.26-2.11-3.32-5.1-5.98-8.05-8.58 3.67-1.02 6.87 4.93 10.37 3.45 0.47-0.2 0.88-0.52 1.28-0.84q2.96-2.35 5.92-4.7c-4.15 8.25-5.41 17.92-3.52 26.97 1.11-3.46 3.64-6.43 6.86-8.1z" />
      <path
         id="path52"
         class="s7"
         d="m512.99 493.16c-1.19 0.35-3.96 11.52-4.58 13.13-1.44 3.73-2.35 7.51-3.97 11.15-0.1 0.23-0.24 0.49-0.49 0.52-0.26 0.04-0.46-0.19-0.62-0.4-3.01-3.95-5.67-8.35-8.89-12.06-1.89-2.17-7.59-7.89-10.77-7.65 3.69-0.28 7.47-0.34 11.02 0.69 3.56 1.03 6.91 3.28 8.52 6.61 0.65-5.42 4.54-10.44 9.78-11.99z" />
      <path
         id="path53"
         class="s7"
         d="m485.51 477.75c0.39 0.4 4.94 0.44 5.91 0.79 1.95 0.7 3.74 1.83 5.31 3.17 2.27 1.95 5.36 5.47 6.13 8.38-2.84-0.36-4.83-3.26-7.19-4.75-3.71-2.33-7.04-4.38-10.16-7.59z" />
      <path
         id="path54"
         class="s7"
         d="m505.75 482.76c1.43-4.43 4.65-8.25 8.77-10.42-0.82 6.34-4.44 12.27-9.7 15.9-0.65-3.32 0.36-6.93 2.63-9.44-1.47 1.94-3.03 4.69-4.5 6.63" />
      <path
         id="path55"
         class="s7"
         d="m518.24 618.56c11.74 0.26 21.93-7.55 31.04-14.96-7.83 10.88-17.28 20.58-27.94 28.69-17.93-7.43-35.72-14.52-52.93-23.45 8.79 0.82 18.93 0.76 27.24 3.82 7.33 2.71 14.53 5.72 22.59 5.9z" />
      <path
         id="path56"
         class="s7"
         d="m532.11 658.14c3.01 6.29-1.88 12.07-4.84 17.27-0.72-7.13-1.52-17.31-7.11-22.28 4.35-1.76 9.93 0.81 11.95 5.01z" />
      <path
         id="path57"
         class="s7"
         d="m524.92 377.08c-0.64 8.48-6.02 11.12-9.71 18.01 1.12-4.64 2.3-14.72 0.17-19.37-2.2-4.8-12.72-8.67-17.17-4.93 2.88-2.42 5.82-4.88 9.27-6.38 3.46-1.51 7.56-1.97 10.96-0.34 4.64 2.23 6.86 7.88 6.48 13.01z" />
      <path
         id="path58"
         class="s7"
         d="m455.69 349.5c-0.26-4.74 2.14-9.88 6.58-11.53 4.51-1.67 9.44 0.56 13.72 2.75-4.09-6.5-11.71-11.02-19.33-10.12-6.77 0.81-14.8 7.74-13.59 15.24 1.19 7.41 11.59 16.02 17.48 19.97-1.18-5.48-4.55-10.82-4.86-16.31z" />
      <path
         id="path59"
         class="s10"
         d="m408.71 505.81c4.48 3.77 18.71 7.89 20.41 12.08 1.82-0.22 3.48-0.8 5.26-1.31-2.25-6.92-7.88-12.09-12.85-17.41-10.8-11.57-14.71-36.9 3.34-44.85 2.98-1.32 6.55-2 8.4-4.68 1.92-2.78 1.14-6.61-0.36-9.63-1.5-3.01-3.67-5.75-4.51-9.01-0.77-2.94-0.39-6.05-0.7-9.07-0.32-3.02-1.63-6.29-4.44-7.45-3.49-1.45-7.3 0.99-10.18 3.43-15.36 12.96-27.5 29.7-35.05 48.33-2.84 7.01-4.53 16.26 1.27 21.12 2.57 2.14 6.01 2.81 9.15 3.98 7.82 2.92 13.87 9.1 20.26 14.47z" />
      <path
         id="path60"
         class="s10"
         d="m571.4 433.41c-3.93-3.63-11.96-2.8-15.61 0.87-2.05 2.05-3.44 4.72-5.65 6.59-2.21 1.87-5.83 2.67-7.88 0.62 13.1-15.94 23.13-39.67 2.84-53.81-1.93-1.35-4.28-3.66-2.91-5.57 0.71-1 2.1-1.17 3.32-1.22 18.16-0.67 36.38 8.68 46.43 23.83 10.05 15.14 11.59 35.56 3.91 52.04-1.87 4.02-5.04 8.28-9.47 8.23-3.5-0.04-6.41-2.91-7.85-6.1-1.84-4.1-1.87-8.74-2.31-13.22-0.45-4.47-1.52-9.21-4.82-12.26z" />
      <path
         id="path61"
         class="s7"
         d="m 409.37,336.17 c -2.14,1.85 -11.22,1.88 -14.41,3.04 -4.86,1.76 -9.29,4.36 -13.61,7.17 -11.24,7.3 -19.09,11.55 -27.11,22.49 -8.02,10.95 -15.28,22.48 -21.56,34.52 -12.19,23.36 -20.81,48.78 -23.58,75.05 -2.34,22.21 -1.09,44.82 4.11,66.55 3.02,12.66 7.4,24.98 12.96,36.75 8.16,17.25 16.65,34.83 29.52,49.15 13.36,14.86 24.58,21.32 41.74,30.96 22.96,12.9 45.91,27.49 73.49,23.47 -10.19,1.49 -29.81,-9.61 -39.02,-13.74 -13.66,-6.13 -26.79,-13.61 -38.51,-22.96 -24.51,-19.55 -38.35,-47.55 -57.02,-72.07 -7.46,-9.8 -15.2,-20.25 -16.57,-32.48 -1.34,-12 3.65,-23.66 7.55,-35.09 2.49,-7.29 4.58,-15.08 3.08,-22.63 -0.65,-3.22 -1.92,-6.27 -2.6,-9.48 -1.38,-6.55 -0.2,-13.34 0.99,-19.93 4.25,-23.69 8.92,-46.49 24.17,-65.63 16.43,-20.62 36.5,-37.95 56.38,-55.14 z"
         style="display:inline" />
      <path
         id="path62"
         class="s11"
         d="m416.15 332.76c-3.36 0.48-2.63 5.71 0.74 5.23 3.37-0.47 2.63-5.7-0.74-5.23z" />
      <path
         id="path63"
         class="s11"
         d="m428.35 328.5c-2.76 0.39-3.72 3.49-2.26 5.63q0.08 0.12 0.17 0.24c1.37 2.01 4.95 1.5 5.71-0.81q0.05-0.14 0.09-0.27c0.82-2.47-0.96-5.18-3.71-4.79z" />
      <path
         id="path64"
         class="s11"
         d="m406.73 347.13c-2.21 0.31-1.73 3.74 0.49 3.43 2.21-0.31 1.73-3.75-0.49-3.43z" />
      <path
         id="path65"
         class="s11"
         d="m444.25 326.7c-2.63 0.37-2.06 4.45 0.57 4.08 2.63-0.37 2.06-4.45-0.57-4.08z" />
      <path
         id="path66"
         class="s11"
         d="m463.75 675.03c-0.09-0.24-0.43-0.82-0.45-0.85-1.04-2.22-4.33-1.76-4.71 0.66-0.01 0.04-0.18 0.7-0.2 0.95-0.14 1.8 1.31 3.4 3.18 3.14 1.85-0.26 2.81-2.2 2.18-3.9z" />
      <path
         id="path67"
         class="s11"
         d="m481.14 683.08c-0.25-0.77-1.21-1.48-2.02-1.52q-0.16-0.01-0.32-0.02c-1.69-0.08-3.19 1.2-2.94 2.97 0.25 1.77 2.05 2.6 3.64 2.05q0.16-0.05 0.31-0.11c0.77-0.26 1.49-1.2 1.52-2.02 0.02-0.49-0.03-0.88-0.19-1.35z" />
      <path
         id="path68"
         class="s11"
         d="m489.93 678.62q-0.22 0.23-0.43 0.46c-1.59 1.67 1.66 4.12 2.83 2.14q0.16-0.28 0.32-0.55c1.12-1.9-1.2-3.65-2.72-2.05z" />
      <path
         id="path69"
         class="s11"
         d="m469.47 677.69c-2.95 0.42-2.3 5 0.65 4.58 2.94-0.41 2.3-4.99-0.65-4.58z" />
      <path
         id="path70"
         class="s11"
         d="m534.46 677.5c-1.08 0.24-1.47 0.61-2.23 1.32-0.97 0.91-0.42 2.82 1.09 2.56 0.98-0.18 1.62-0.21 2.42-0.89 1.17-1.01 0.45-3.38-1.28-2.99z" />
      <path
         id="path71"
         class="s11"
         d="m615.28 449.09l0.05 0.33c0.31 2.19 3.71 1.72 3.4-0.48l-0.04-0.33c-0.31-2.19-3.72-1.71-3.41 0.48z" />
      <path
         id="path72"
         class="s11"
         d="m627.17 449.49c-2.9 0.41-2.27 4.93 0.64 4.52 2.91-0.41 2.27-4.93-0.64-4.52z" />
      <path
         id="path73"
         class="s11"
         d="m625.96 462.78q-0.08-0.15-0.15-0.29c-1.01-2.01-3.88-1.61-4.3 0.6q-0.03 0.16-0.06 0.32c-0.29 1.52 1.22 2.84 2.67 2.64 1.45-0.2 2.53-1.89 1.84-3.27z" />
      <path
         id="path74"
         class="s11"
         d="m390.6 503.47q0.06 0.15 0.12 0.3c0.6 1.63 3.26 1.25 3.4-0.48q0.01-0.16 0.02-0.32c0.24-3.05-4.61-2.39-3.54 0.5z" />
      <path
         id="path75"
         class="s11"
         d="m409.27 509.97l-0.2-0.12c-1.62-1.01-3.92 0.05-3.63 2.14 0.3 2.07 2.8 2.47 4.08 1.05l0.16-0.18c0.71-0.77 0.48-2.34-0.41-2.89z" />
      <path
         id="path76"
         class="s11"
         d="m390.15 513.43c-0.33-0.01-0.61-0.14-0.95-0.14-2.77 0.01-2.23 4.02 0.46 3.25 0.33-0.09 0.56-0.29 0.88-0.4 1.31-0.42 0.99-2.66-0.39-2.71z" />
      <path
         id="path77"
         class="s11"
         d="m418.38 520.58c-2.15 0.3-1.68 3.64 0.47 3.34 2.15-0.3 1.69-3.65-0.47-3.34z" />
      <path
         id="path78"
         class="s11"
         d="m394.45 632.64c-2.63 0.37-2.06 4.45 0.58 4.08 2.62-0.37 2.05-4.45-0.58-4.08z" />
      <path
         id="path79"
         class="s11"
         d="m405.15 651.89q-0.15 0.06-0.29 0.12c-0.47 0.19-0.83 0.66-0.88 1.17q-0.02 0.15-0.03 0.31c-0.22 1.98 2.39 3.11 3.62 1.47 1.23-1.63-0.56-3.83-2.42-3.07z" />
      <path
         id="path80"
         class="s11"
         d="m571.48 465.12c-2.43 0.34-1.91 4.12 0.53 3.78 2.43-0.35 1.9-4.12-0.53-3.78z" />
      <path
         id="path81"
         class="s11"
         d="m564.61 488.04c-2.77 0.39-2.17 4.69 0.6 4.3 2.77-0.39 2.17-4.69-0.6-4.3z" />
      <path
         id="path82"
         class="s11"
         d="m431.08 441.96q-0.05-0.03-0.11-0.06c-0.78-0.39-1.83-0.02-2.34 0.64-0.57 0.76-0.44 1.67 0.03 2.43q0.04 0.05 0.07 0.11c0.7 1.13 2.49 0.91 3.2-0.04 0.82-1.08 0.31-2.51-0.85-3.08z" />
      <path
         id="path83"
         class="s11"
         d="m434.83 455.71c-2.08 0.29-1.63 3.51 0.45 3.22 2.07-0.29 1.62-3.51-0.45-3.22z" />
      <path
         id="path84"
         class="s11"
         d="m410.45 447.99c-0.52-2.01-3.23-1.63-3.18 0.45q0 0.17 0 0.34c0.05 2.13 3.81 1.61 3.27-0.46q-0.04-0.16-0.09-0.33z" />
      <path
         id="path85"
         class="s11"
         d="m438.14 403.29c-0.26-0.81-1.31-1.19-2.06-0.96q-0.37 0.11-0.62 0.33-1.12-0.04-1.85 0.8c-0.73 0.84-0.44 2.28 0.41 2.9 2.17 1.59 4.87-0.67 4.12-3.07z" />
      <path
         id="path86"
         class="s11"
         d="m447.1 389.96q-0.16 0.03-0.32 0.05c-2.14 0.35-1.69 3.58 0.46 3.33q0.17-0.02 0.34-0.04c2.15-0.25 1.67-3.7-0.48-3.34z" />
      <path
         id="path87"
         class="s11"
         d="m427.57 385.1c-0.72 0.1-0.56 1.21 0.15 1.11 0.72-0.1 0.57-1.22-0.15-1.11z" />
      <path
         id="path88"
         class="s11"
         d="m528.26 373.41c-1.82 0.25-1.42 3.07 0.39 2.81 1.81-0.25 1.42-3.07-0.39-2.81z" />
      <path
         id="path89"
         class="s11"
         d="m542.25 378.42q-0.07-0.14-0.15-0.29c-0.8-1.59-3.07-1.27-3.4 0.48q-0.03 0.16-0.06 0.32c-0.23 1.22 0.98 2.28 2.14 2.12 1.16-0.17 2.03-1.52 1.47-2.63z" />
      <path
         id="path90"
         class="s11"
         d="m510.4 361.39c-2.31 0.32-1.8 3.91 0.51 3.59 2.31-0.33 1.81-3.92-0.51-3.59z" />
      <path
         id="path91"
         class="s11"
         d="m 528.68,356.63 c -1.34,-0.66 -2.77,1.23 -1.76,2.34 0.56,0.62 1.03,0.87 1.88,0.79 0.71,-0.07 1.29,-0.84 1.16,-1.54 -0.16,-0.83 -0.53,-1.22 -1.28,-1.59 z"
         style="display:inline" />
    </g>
  </g>
</svg>
